<svg width="404" height="465" viewBox="0 0 404 465" fill="none" xmlns="http://www.w3.org/2000/svg">
<path d="M216.504 64.9483L215.708 65.7437L217.507 67.5425L218.303 66.7472L216.504 64.9483Z" fill="#494E74"/>
<path d="M217.079 62.6679L214.332 65.4761L216.15 67.2551L218.897 64.4469L217.079 62.6679Z" fill="#494E74"/>
<path d="M217.686 60.2523L212.913 65.0249L214.712 66.8238L219.485 62.0512L217.686 60.2523Z" fill="#494E74"/>
<path d="M218.276 57.9255L211.496 64.7051L213.295 66.504L220.075 59.7244L218.276 57.9255Z" fill="#494E74"/>
<path d="M218.894 55.5617L210.096 64.3604L211.895 66.1592L220.693 57.3606L218.894 55.5617Z" fill="#494E74"/>
<path d="M219.525 53.3119L208.712 64.061L210.505 65.8653L221.319 55.1162L219.525 53.3119Z" fill="#494E74"/>
<path d="M220.058 50.8958L207.35 63.666L209.153 65.4605L221.861 52.6903L220.058 50.8958Z" fill="#494E74"/>
<path d="M220.676 48.5143L205.942 63.248L207.741 65.0469L222.475 50.3132L220.676 48.5143Z" fill="#494E74"/>
<path d="M221.311 46.2392L204.56 63.043L206.361 64.839L223.112 48.0352L221.311 46.2392Z" fill="#494E74"/>
<path d="M221.873 43.8114L203.113 62.5713L204.912 64.3702L223.672 45.6103L221.873 43.8114Z" fill="#494E74"/>
<path d="M222.505 41.4358L201.726 62.2148L203.524 64.0137L224.304 43.2347L222.505 41.4358Z" fill="#494E74"/>
<path d="M223.036 39.0984L200.299 61.8354L202.098 63.6343L224.835 40.8973L223.036 39.0984Z" fill="#494E74"/>
<path d="M223.67 36.7826L199.403 61.0493L201.202 62.8482L225.468 38.5815L223.67 36.7826Z" fill="#494E74"/>
<path d="M224.262 34.4006L199.934 58.7285L201.733 60.5274L226.061 36.1995L224.262 34.4006Z" fill="#494E74"/>
<path d="M224.875 32.0442L200.554 56.3057L202.35 58.1068L226.671 33.8453L224.875 32.0442Z" fill="#494E74"/>
<path d="M225.489 29.6843L201.161 54.0122L202.96 55.8111L227.288 31.4832L225.489 29.6843Z" fill="#494E74"/>
<path d="M226.04 27.3637L201.773 51.6304L203.572 53.4293L227.839 29.1626L226.04 27.3637Z" fill="#494E74"/>
<path d="M226.68 25.0622L202.415 49.3789L204.215 51.1759L228.481 26.8592L226.68 25.0622Z" fill="#494E74"/>
<path d="M227.254 22.6194L202.933 46.8809L204.73 48.682L229.051 24.4205L227.254 22.6194Z" fill="#494E74"/>
<path d="M227.875 20.2653L203.547 44.5933L205.346 46.3922L229.674 22.0642L227.875 20.2653Z" fill="#494E74"/>
<path d="M228.499 17.9548L204.171 42.2827L205.97 44.0816L230.298 19.7537L228.499 17.9548Z" fill="#494E74"/>
<path d="M228.616 16.0742L204.778 39.9126L206.577 41.7115L230.415 17.8731L228.616 16.0742Z" fill="#494E74"/>
<path d="M226.899 16.0638L205.386 37.5771L207.185 39.376L228.698 17.8627L226.899 16.0638Z" fill="#494E74"/>
<path d="M225.095 15.9518L205.901 35.0854L207.697 36.8872L226.891 17.7535L225.095 15.9518Z" fill="#494E74"/>
<path d="M223.356 16.0706L206.554 32.8726L208.353 34.6715L225.155 17.8695L223.356 16.0706Z" fill="#494E74"/>
<path d="M221.666 16.1391L207.181 30.5586L208.975 32.3616L223.461 17.942L221.666 16.1391Z" fill="#494E74"/>
<path d="M219.879 16.0632L207.776 28.166L209.575 29.9649L221.678 17.8621L219.879 16.0632Z" fill="#494E74"/>
<path d="M218.094 16.0726L208.377 25.7891L210.176 27.588L219.893 17.8715L218.094 16.0726Z" fill="#494E74"/>
<path d="M216.405 16.07L208.947 23.4683L210.739 25.2743L218.197 17.8761L216.405 16.07Z" fill="#494E74"/>
<path d="M214.602 15.9883L208.735 21.7959L210.525 23.6039L216.392 17.7963L214.602 15.9883Z" fill="#494E74"/>
<path d="M212.9 15.9991L207.033 21.8066L208.823 23.6146L214.69 17.8071L212.9 15.9991Z" fill="#494E74"/>
<path d="M211.127 15.9951L205.261 21.8027L207.051 23.6107L212.917 17.8031L211.127 15.9951Z" fill="#494E74"/>
<path d="M209.35 16.0799L203.55 21.8804L205.349 23.6793L211.149 17.8788L209.35 16.0799Z" fill="#494E74"/>
<path d="M207.64 15.9971L201.773 21.8047L203.563 23.6127L209.429 17.805L207.64 15.9971Z" fill="#494E74"/>
<path d="M205.864 15.9927L199.998 21.8003L201.787 23.6083L207.654 17.8007L205.864 15.9927Z" fill="#494E74"/>
<path d="M204.104 16.0671L198.303 21.8677L200.102 23.6666L205.903 17.866L204.104 16.0671Z" fill="#494E74"/>
<path d="M202.388 16.0001L196.521 21.8076L198.311 23.6156L204.177 17.808L202.388 16.0001Z" fill="#494E74"/>
<path d="M200.603 16.0078L194.736 21.8154L196.526 23.6234L202.393 17.8158L200.603 16.0078Z" fill="#494E74"/>
<path d="M198.842 16.0662L193.042 21.8667L194.841 23.6656L200.641 17.8651L198.842 16.0662Z" fill="#494E74"/>
<path d="M197.127 15.9975L191.261 21.8052L193.051 23.6132L198.917 17.8055L197.127 15.9975Z" fill="#494E74"/>
<path d="M195.352 15.9937L189.485 21.8013L191.275 23.6092L197.142 17.8017L195.352 15.9937Z" fill="#494E74"/>
<path d="M193.583 16.0657L187.782 21.8662L189.581 23.6651L195.382 17.8646L193.583 16.0657Z" fill="#494E74"/>
<path d="M191.866 15.9956L186 21.8032L187.789 23.6112L193.656 17.8036L191.866 15.9956Z" fill="#494E74"/>
<path d="M190.108 15.9912L184.241 21.7988L186.031 23.6068L191.898 17.7992L190.108 15.9912Z" fill="#494E74"/>
<path d="M188.322 16.0823L182.521 21.8828L184.32 23.6817L190.12 17.8812L188.322 16.0823Z" fill="#494E74"/>
<path d="M186.614 15.9985L180.748 21.8062L182.537 23.6141L188.404 17.8065L186.614 15.9985Z" fill="#494E74"/>
<path d="M184.847 16.0063L178.98 21.814L180.77 23.6219L186.637 17.8143L184.847 16.0063Z" fill="#494E74"/>
<path d="M183.074 16.0691L177.273 21.8696L179.072 23.6685L184.873 17.868L183.074 16.0691Z" fill="#494E74"/>
<path d="M181.371 15.9961L175.504 21.8037L177.294 23.6117L183.16 17.8041L181.371 15.9961Z" fill="#494E74"/>
<path d="M179.584 16.004L173.718 21.8115L175.508 23.6195L181.374 17.8119L179.584 16.004Z" fill="#494E74"/>
<path d="M177.877 15.9858L172.011 21.7935L173.801 23.6014L179.667 17.7938L177.877 15.9858Z" fill="#494E74"/>
<path d="M176.109 15.9937L170.242 21.8013L172.032 23.6092L177.899 17.8017L176.109 15.9937Z" fill="#494E74"/>
<path d="M174.349 16.0706L168.549 21.8711L170.348 23.67L176.148 17.8695L174.349 16.0706Z" fill="#494E74"/>
<path d="M172.616 16.001L166.75 21.8086L168.539 23.6166L174.406 17.8089L172.616 16.001Z" fill="#494E74"/>
<path d="M170.847 16.0088L164.98 21.8164L166.77 23.6244L172.636 17.8167L170.847 16.0088Z" fill="#494E74"/>
<path d="M169.088 16.0701L163.288 21.8706L165.086 23.6695L170.887 17.869L169.088 16.0701Z" fill="#494E74"/>
<path d="M167.372 15.9986L161.505 21.8062L163.295 23.6141L169.161 17.8066L167.372 15.9986Z" fill="#494E74"/>
<path d="M165.597 15.9946L159.73 21.8022L161.52 23.6102L167.387 17.8026L165.597 15.9946Z" fill="#494E74"/>
<path d="M163.829 16.0696L158.028 21.8701L159.827 23.669L165.628 17.8685L163.829 16.0696Z" fill="#494E74"/>
<path d="M162.109 15.9966L156.242 21.8042L158.032 23.6122L163.899 17.8045L162.109 15.9966Z" fill="#494E74"/>
<path d="M160.336 15.9922L154.469 21.7998L156.259 23.6078L162.126 17.8002L160.336 15.9922Z" fill="#494E74"/>
<path d="M158.58 16.0739L152.779 21.8745L154.578 23.6734L160.379 17.8728L158.58 16.0739Z" fill="#494E74"/>
<path d="M156.859 15.9991L150.993 21.8066L152.782 23.6146L158.649 17.8071L156.859 15.9991Z" fill="#494E74"/>
<path d="M155.074 16.0073L149.207 21.8149L150.997 23.6229L156.864 17.8153L155.074 16.0073Z" fill="#494E74"/>
<path d="M153.321 16.073L147.52 21.8735L149.319 23.6724L155.119 17.8719L153.321 16.073Z" fill="#494E74"/>
<path d="M151.598 15.9971L145.731 21.8047L147.521 23.6127L153.388 17.805L151.598 15.9971Z" fill="#494E74"/>
<path d="M149.824 15.9927L143.957 21.8003L145.747 23.6083L151.613 17.8007L149.824 15.9927Z" fill="#494E74"/>
<path d="M148.059 16.0725L142.259 21.873L144.058 23.6719L149.858 17.8714L148.059 16.0725Z" fill="#494E74"/>
<path d="M146.335 15.9946L140.469 21.8022L142.259 23.6102L148.125 17.8026L146.335 15.9946Z" fill="#494E74"/>
<path d="M144.563 15.9907L138.696 21.7983L140.486 23.6063L146.352 17.7987L144.563 15.9907Z" fill="#494E74"/>
<path d="M142.86 16.0019L136.994 21.8096L138.783 23.6175L144.65 17.8099L142.86 16.0019Z" fill="#494E74"/>
<path d="M141.086 15.9975L135.219 21.8052L137.009 23.6132L142.876 17.8055L141.086 15.9975Z" fill="#494E74"/>
<path d="M139.318 16.0739L133.517 21.8745L135.316 23.6734L141.117 17.8728L139.318 16.0739Z" fill="#494E74"/>
<path d="M137.598 15.9996L131.731 21.8071L133.521 23.6151L139.388 17.8075L137.598 15.9996Z" fill="#494E74"/>
<path d="M135.825 15.9951L129.958 21.8027L131.748 23.6107L137.615 17.8031L135.825 15.9951Z" fill="#494E74"/>
<path d="M134.071 16.0613L128.271 21.8618L130.069 23.6607L135.87 17.8602L134.071 16.0613Z" fill="#494E74"/>
<path d="M132.348 16.0024L126.481 21.8101L128.271 23.618L134.138 17.8104L132.348 16.0024Z" fill="#494E74"/>
<path d="M130.579 16.0103L124.712 21.8179L126.502 23.6258L132.368 17.8183L130.579 16.0103Z" fill="#494E74"/>
<path d="M128.809 16.0603L123.009 21.8608L124.808 23.6597L130.608 17.8592L128.809 16.0603Z" fill="#494E74"/>
<path d="M127.087 16L121.22 21.8076L123.01 23.6156L128.877 17.808L127.087 16Z" fill="#494E74"/>
<path d="M125.317 16.0083L119.451 21.8159L121.24 23.6239L127.107 17.8163L125.317 16.0083Z" fill="#494E74"/>
<path d="M123.55 16.0769L117.75 21.8774L119.548 23.6763L125.349 17.8758L123.55 16.0769Z" fill="#494E74"/>
<path d="M121.825 15.9981L115.958 21.8057L117.748 23.6136L123.614 17.8061L121.825 15.9981Z" fill="#494E74"/>
<path d="M120.069 15.9936L114.202 21.8013L115.992 23.6092L121.859 17.8016L120.069 15.9936Z" fill="#494E74"/>
<path d="M118.289 16.0764L112.488 21.877L114.287 23.6758L120.088 17.8753L118.289 16.0764Z" fill="#494E74"/>
<path d="M116.58 16.0127L110.713 21.8203L112.503 23.6283L118.369 17.8207L116.58 16.0127Z" fill="#494E74"/>
<path d="M114.807 16.0088L108.94 21.8164L110.73 23.6244L116.597 17.8167L114.807 16.0088Z" fill="#494E74"/>
<path d="M113.041 16.0633L107.24 21.8638L109.039 23.6627L114.84 17.8622L113.041 16.0633Z" fill="#494E74"/>
<path d="M111.331 15.9986L105.464 21.8062L107.254 23.6141L113.12 17.8066L111.331 15.9986Z" fill="#494E74"/>
<path d="M109.544 16.0063L103.677 21.814L105.467 23.6219L111.334 17.8143L109.544 16.0063Z" fill="#494E74"/>
<path d="M107.843 16.0005L101.976 21.8081L103.766 23.6161L109.633 17.8084L107.843 16.0005Z" fill="#494E74"/>
<path d="M106.068 15.9961L100.201 21.8037L101.991 23.6117L107.858 17.8041L106.068 15.9961Z" fill="#494E74"/>
<path d="M104.301 16.0652L98.5 21.8657L100.299 23.6646L106.099 17.8641L104.301 16.0652Z" fill="#494E74"/>
<path d="M102.593 16.0034L96.7266 21.811L98.5163 23.619L104.383 17.8114L102.593 16.0034Z" fill="#494E74"/>
<path d="M100.806 16.0112L94.9395 21.8188L96.7292 23.6268L102.596 17.8192L100.806 16.0112Z" fill="#494E74"/>
<path d="M99.0388 16.0642L93.2383 21.8647L95.0372 23.6636L100.838 17.8631L99.0388 16.0642Z" fill="#494E74"/>
<path d="M97.3296 16.001L91.4629 21.8086L93.2527 23.6166L99.1194 17.8089L97.3296 16.001Z" fill="#494E74"/>
<path d="M95.5576 15.9971L89.6909 21.8047L91.4807 23.6127L97.3474 17.805L95.5576 15.9971Z" fill="#494E74"/>
<path d="M93.7796 16.0808L87.979 21.8813L89.7779 23.6802L95.5785 17.8797L93.7796 16.0808Z" fill="#494E74"/>
<path d="M92.0693 15.9986L86.2026 21.8062L87.9924 23.6141L93.8591 17.8066L92.0693 15.9986Z" fill="#494E74"/>
<path d="M90.2945 15.9946L84.4277 21.8022L86.2175 23.6102L92.0842 17.8026L90.2945 15.9946Z" fill="#494E74"/>
<path d="M88.53 16.0681L82.7295 21.8687L84.5284 23.6675L90.3289 17.867L88.53 16.0681Z" fill="#494E74"/>
<path d="M86.8199 16.0014L80.9531 21.8091L82.7429 23.6171L88.6096 17.8094L86.8199 16.0014Z" fill="#494E74"/>
<path d="M85.0327 16.0098L79.166 21.8174L80.9558 23.6254L86.8224 17.8178L85.0327 16.0098Z" fill="#494E74"/>
<path d="M83.2702 16.0672L77.4697 21.8677L79.2686 23.6666L85.0691 17.8661L83.2702 16.0672Z" fill="#494E74"/>
<path d="M81.5567 15.9995L75.6899 21.8071L77.4797 23.6151L83.3464 17.8075L81.5567 15.9995Z" fill="#494E74"/>
<path d="M79.8003 15.9951L73.9336 21.8027L75.7234 23.6107L81.5901 17.8031L79.8003 15.9951Z" fill="#494E74"/>
<path d="M78.009 16.0667L72.2085 21.8672L74.0074 23.6661L79.8079 17.8656L78.009 16.0667Z" fill="#494E74"/>
<path d="M76.2964 15.9971L70.4297 21.8047L72.2195 23.6127L78.0862 17.805L76.2964 15.9971Z" fill="#494E74"/>
<path d="M74.54 15.9927L68.6733 21.8003L70.4631 23.6083L76.3298 17.8007L74.54 15.9927Z" fill="#494E74"/>
<path d="M72.8198 16.004L66.9531 21.8115L68.7429 23.6195L74.6095 17.8119L72.8198 16.004Z" fill="#494E74"/>
<path d="M71.0464 16L65.1797 21.8076L66.9695 23.6156L72.8362 17.808L71.0464 16Z" fill="#494E74"/>
<path d="M69.2849 16.0681L63.4844 21.8687L65.2833 23.6675L71.0838 17.867L69.2849 16.0681Z" fill="#494E74"/>
<path d="M67.5581 16.0019L61.6914 21.8096L63.4812 23.6175L69.3479 17.8099L67.5581 16.0019Z" fill="#494E74"/>
<path d="M65.8022 15.9976L59.9355 21.8052L61.7253 23.6132L67.592 17.8056L65.8022 15.9976Z" fill="#494E74"/>
<path d="M64.0251 16.0847L58.2246 21.8853L60.0235 23.6842L65.824 17.8836L64.0251 16.0847Z" fill="#494E74"/>
<path d="M62.3085 16.0049L56.4419 21.8125L58.2317 23.6205L64.0983 17.8129L62.3085 16.0049Z" fill="#494E74"/>
<path d="M60.5391 16.0127L54.6724 21.8203L56.4621 23.6283L62.3289 17.8207L60.5391 16.0127Z" fill="#494E74"/>
<path d="M58.7766 16.0721L52.9761 21.8726L54.775 23.6715L60.5755 17.8709L58.7766 16.0721Z" fill="#494E74"/>
<path d="M57.0625 16.0024L51.1958 21.8101L52.9856 23.618L58.8523 17.8104L57.0625 16.0024Z" fill="#494E74"/>
<path d="M55.2779 16.0107L49.4111 21.8184L51.2009 23.6263L57.0676 17.8187L55.2779 16.0107Z" fill="#494E74"/>
<path d="M53.5173 16.0711L47.7168 21.8716L49.5157 23.6705L55.3162 17.87L53.5173 16.0711Z" fill="#494E74"/>
<path d="M51.8013 16.0005L45.9346 21.8081L47.7243 23.6161L53.5911 17.8084L51.8013 16.0005Z" fill="#494E74"/>
<path d="M50.0269 15.9961L44.1602 21.8037L45.9499 23.6117L51.8167 17.8041L50.0269 15.9961Z" fill="#494E74"/>
<path d="M48.2557 16.0705L42.4551 21.8711L44.254 23.67L50.0546 17.8694L48.2557 16.0705Z" fill="#494E74"/>
<path d="M46.54 16.0152L40.6733 21.8228L42.4631 23.6307L48.3298 17.8232L46.54 16.0152Z" fill="#494E74"/>
<path d="M44.7657 16.0112L38.8989 21.8188L40.6887 23.6268L46.5554 17.8192L44.7657 16.0112Z" fill="#494E74"/>
<path d="M43.008 16.075L37.2075 21.8755L39.0064 23.6744L44.8069 17.8739L43.008 16.075Z" fill="#494E74"/>
<path d="M41.2896 16.001L35.4229 21.8086L37.2126 23.6166L43.0793 17.8089L41.2896 16.001Z" fill="#494E74"/>
<path d="M39.5043 16.0088L33.6377 21.8164L35.4275 23.6244L41.2941 17.8168L39.5043 16.0088Z" fill="#494E74"/>
<path d="M37.8013 16.0029L31.9346 21.8105L33.7243 23.6185L39.5911 17.8109L37.8013 16.0029Z" fill="#494E74"/>
<path d="M36.0278 15.9986L30.1611 21.8062L31.9509 23.6141L37.8176 17.8066L36.0278 15.9986Z" fill="#494E74"/>
<path d="M34.2663 16.0589L28.4658 21.8594L30.2647 23.6583L36.0652 17.8578L34.2663 16.0589Z" fill="#494E74"/>
<path d="M32.5518 16.0058L26.6851 21.8135L28.4748 23.6215L34.3416 17.8138L32.5518 16.0058Z" fill="#494E74"/>
<path d="M30.7666 16.0137L24.8999 21.8213L26.6897 23.6293L32.5564 17.8216L30.7666 16.0137Z" fill="#494E74"/>
<path d="M29.0061 16.076L23.2056 21.8765L25.0045 23.6754L30.805 17.8749L29.0061 16.076Z" fill="#494E74"/>
<path d="M27.2905 16.0035L21.4238 21.811L23.2136 23.619L29.0802 17.8115L27.2905 16.0035Z" fill="#494E74"/>
<path d="M25.5161 15.999L19.6494 21.8066L21.4392 23.6146L27.3059 17.807L25.5161 15.999Z" fill="#494E74"/>
<path d="M23.7468 16.075L17.9463 21.8755L19.7452 23.6744L25.5457 17.8739L23.7468 16.075Z" fill="#494E74"/>
<path d="M22.0288 16.001L16.1621 21.8086L17.9519 23.6166L23.8186 17.8089L22.0288 16.001Z" fill="#494E74"/>
<path d="M20.2719 15.9971L14.4053 21.8047L16.195 23.6127L22.0617 17.8051L20.2719 15.9971Z" fill="#494E74"/>
<path d="M18.4969 16.0622L12.6963 21.8628L14.4952 23.6617L20.2958 17.8611L18.4969 16.0622Z" fill="#494E74"/>
<path d="M16.7783 16.004L10.9116 21.8115L12.7014 23.6195L18.568 17.8119L16.7783 16.004Z" fill="#494E74"/>
<path d="M15.0108 16.0122L9.14404 21.8198L10.9338 23.6278L16.8005 17.8202L15.0108 16.0122Z" fill="#494E74"/>
<path d="M13.2375 16.0613L7.43701 21.8618L9.23591 23.6607L15.0364 17.8602L13.2375 16.0613Z" fill="#494E74"/>
<path d="M11.5171 16.0019L5.65039 21.8096L7.44016 23.6175L13.3069 17.8099L11.5171 16.0019Z" fill="#494E74"/>
<path d="M9.76069 15.9976L3.89404 21.8052L5.68381 23.6132L11.5505 17.8056L9.76069 15.9976Z" fill="#494E74"/>
<path d="M7.97629 16.0779L2.17578 21.8784L3.97468 23.6773L9.77519 17.8768L7.97629 16.0779Z" fill="#494E74"/>
<path d="M6.27298 15.9995L0.40625 21.8071L2.19602 23.6151L8.06274 17.8075L6.27298 15.9995Z" fill="#494E74"/>
<path d="M4.49856 15.9956L-1.36816 21.8032L0.421605 23.6112L6.28833 17.8036L4.49856 15.9956Z" fill="#494E74"/>
<path d="M2.77932 16.0068L-3.0874 21.8145L-1.29763 23.6224L4.56909 17.8148L2.77932 16.0068Z" fill="#494E74"/>
<path d="M1.02298 16.0024L-4.84375 21.8101L-3.05398 23.618L2.81274 17.8104L1.02298 16.0024Z" fill="#494E74"/>
<path d="M-0.764359 16.0793L-6.56494 21.8799L-4.76604 23.6788L1.03454 17.8782L-0.764359 16.0793Z" fill="#494E74"/>
<path d="M130.751 274.021H-65.623V276.564H130.751V274.021Z" fill="#494E74"/>
<path d="M140.027 271.649H-65.623V274.193H140.027V271.649Z" fill="#494E74"/>
<path d="M162.004 278.871L160.542 280.272L162.301 282.109L163.764 280.708L162.004 278.871Z" fill="#494E74"/>
<path d="M162.61 276.416L158.816 280.209L160.615 282.008L164.409 278.215L162.61 276.416Z" fill="#494E74"/>
<path d="M163.213 273.953L157.04 280.066L158.83 281.874L165.003 275.761L163.213 273.953Z" fill="#494E74"/>
<path d="M163.835 271.753L155.275 280.253L157.068 282.058L165.627 273.558L163.835 271.753Z" fill="#494E74"/>
<path d="M164.386 269.376L153.568 280.194L155.367 281.993L166.185 271.175L164.386 269.376Z" fill="#494E74"/>
<path d="M164.999 266.987L151.795 280.191L153.594 281.99L166.798 268.786L164.999 266.987Z" fill="#494E74"/>
<path d="M165.583 264.599L150.002 280.126L151.798 281.928L167.379 266.401L165.583 264.599Z" fill="#494E74"/>
<path d="M166.222 262.305L148.319 280.208L150.118 282.007L168.021 264.104L166.222 262.305Z" fill="#494E74"/>
<path d="M166.816 259.847L146.52 280.08L148.316 281.882L168.612 261.649L166.816 259.847Z" fill="#494E74"/>
<path d="M167.369 257.625L144.763 280.176L146.56 281.977L169.165 259.427L167.369 257.625Z" fill="#494E74"/>
<path d="M167.988 255.27L143.048 280.21L144.847 282.009L169.787 257.069L167.988 255.27Z" fill="#494E74"/>
<path d="M168.581 252.856L141.263 280.117L143.06 281.917L170.378 254.657L168.581 252.856Z" fill="#494E74"/>
<path d="M169.22 250.484L139.514 280.129L141.311 281.93L171.017 252.285L169.22 250.484Z" fill="#494E74"/>
<path d="M169.763 248.232L145.497 272.499L147.296 274.297L171.562 250.031L169.763 248.232Z" fill="#494E74"/>
<path d="M143.658 274.331L137.791 280.139L139.581 281.947L145.447 276.139L143.658 274.331Z" fill="#494E74"/>
<path d="M170.386 245.947L146.12 270.264L147.921 272.061L172.187 247.744L170.386 245.947Z" fill="#494E74"/>
<path d="M141.884 274.31L136.017 280.117L137.807 281.925L143.674 276.117L141.884 274.31Z" fill="#494E74"/>
<path d="M170.973 243.54L141.824 272.689L143.623 274.488L172.772 245.338L170.973 243.54Z" fill="#494E74"/>
<path d="M140.106 274.413L134.305 280.213L136.104 282.012L141.905 276.212L140.106 274.413Z" fill="#494E74"/>
<path d="M171.601 241.159L132.551 280.208L134.35 282.007L173.4 242.958L171.601 241.159Z" fill="#494E74"/>
<path d="M172.036 239.017L147.219 263.834L149.018 265.633L173.835 240.816L172.036 239.017Z" fill="#494E74"/>
<path d="M138.779 272.206L130.776 280.209L132.575 282.008L140.578 274.005L138.779 272.206Z" fill="#494E74"/>
<path d="M170.614 238.647L148.427 260.833L150.226 262.632L172.413 240.446L170.614 238.647Z" fill="#494E74"/>
<path d="M135.777 273.501L129.059 280.219L130.858 282.018L137.576 275.3L135.777 273.501Z" fill="#494E74"/>
<path d="M169.2 238.215L149.089 258.389L150.891 260.185L171.002 240.011L169.2 238.215Z" fill="#494E74"/>
<path d="M133.464 274.043L127.296 280.21L129.095 282.009L135.263 275.842L133.464 274.043Z" fill="#494E74"/>
<path d="M167.811 237.928L149.663 256.076L151.462 257.875L169.61 239.727L167.811 237.928Z" fill="#494E74"/>
<path d="M131.419 274.266L125.491 280.135L127.281 281.943L133.209 276.074L131.419 274.266Z" fill="#494E74"/>
<path d="M166.397 237.62L150.268 253.749L152.067 255.548L168.196 239.419L166.397 237.62Z" fill="#494E74"/>
<path d="M129.596 274.399L123.796 280.2L125.595 281.999L131.395 276.198L129.596 274.399Z" fill="#494E74"/>
<path d="M165.051 237.326L150.872 251.44L152.667 253.243L166.845 239.129L165.051 237.326Z" fill="#494E74"/>
<path d="M127.884 274.329L122.018 280.137L123.807 281.945L129.674 276.137L127.884 274.329Z" fill="#494E74"/>
<path d="M163.638 236.875L151.475 249.039L153.274 250.838L165.437 238.674L163.638 236.875Z" fill="#494E74"/>
<path d="M126.115 274.337L120.249 280.145L122.038 281.953L127.905 276.145L126.115 274.337Z" fill="#494E74"/>
<path d="M162.234 236.501L152.089 246.646L153.888 248.445L164.033 238.3L162.234 236.501Z" fill="#494E74"/>
<path d="M124.337 274.398L118.537 280.199L120.335 281.998L126.136 276.197L124.337 274.398Z" fill="#494E74"/>
<path d="M160.825 236.139L152.639 244.326L154.438 246.125L162.624 237.938L160.825 236.139Z" fill="#494E74"/>
<path d="M122.641 274.327L116.774 280.135L118.564 281.943L124.43 276.135L122.641 274.327Z" fill="#494E74"/>
<path d="M159.414 235.848L153.246 242.016L155.045 243.815L161.213 237.647L159.414 235.848Z" fill="#494E74"/>
<path d="M120.866 274.323L115 280.13L116.789 281.938L122.656 276.131L120.866 274.323Z" fill="#494E74"/>
<path d="M158.022 235.462L153.861 239.623L155.66 241.422L159.82 237.261L158.022 235.462Z" fill="#494E74"/>
<path d="M119.076 274.415L113.275 280.215L115.074 282.014L120.875 276.214L119.076 274.415Z" fill="#494E74"/>
<path d="M156.678 235.086L154.476 237.289L156.274 239.088L158.477 236.885L156.678 235.086Z" fill="#494E74"/>
<path d="M117.378 274.325L111.512 280.132L113.301 281.94L119.168 276.133L117.378 274.325Z" fill="#494E74"/>
<path d="M155.274 234.742L155.09 234.926L156.887 236.726L157.071 236.542L155.274 234.742Z" fill="#494E74"/>
<path d="M115.605 274.32L109.738 280.128L111.528 281.936L117.395 276.128L115.605 274.32Z" fill="#494E74"/>
<path d="M113.829 274.402L108.028 280.203L109.827 282.001L115.628 276.201L113.829 274.402Z" fill="#494E74"/>
<path d="M112.128 274.328L106.262 280.135L108.051 281.943L113.918 276.136L112.128 274.328Z" fill="#494E74"/>
<path d="M110.342 274.336L104.475 280.144L106.265 281.951L112.131 276.144L110.342 274.336Z" fill="#494E74"/>
<path d="M108.641 274.33L102.774 280.137L104.564 281.945L110.43 276.138L108.641 274.33Z" fill="#494E74"/>
<path d="M106.867 274.325L101 280.133L102.79 281.941L108.657 276.133L106.867 274.325Z" fill="#494E74"/>
<path d="M105.087 274.404L99.2866 280.204L101.085 282.003L106.886 276.202L105.087 274.404Z" fill="#494E74"/>
<path d="M183.589 194.209L182.365 195.433L184.164 197.232L185.388 196.008L183.589 194.209Z" fill="#494E74"/>
<path d="M103.391 274.315L97.5239 280.123L99.3137 281.931L105.18 276.123L103.391 274.315Z" fill="#494E74"/>
<path d="M184.18 191.82L180.998 195.001L182.797 196.8L185.979 193.619L184.18 191.82Z" fill="#494E74"/>
<path d="M101.604 274.323L95.7373 280.131L97.527 281.939L103.394 276.131L101.604 274.323Z" fill="#494E74"/>
<path d="M184.742 189.512L179.603 194.652L181.401 196.451L186.541 191.311L184.742 189.512Z" fill="#494E74"/>
<path d="M99.826 274.403L94.0254 280.204L95.8242 282.002L101.625 276.202L99.826 274.403Z" fill="#494E74"/>
<path d="M185.349 187.119L178.203 194.266L180.002 196.065L187.148 188.918L185.349 187.119Z" fill="#494E74"/>
<path d="M98.1293 274.33L92.2627 280.138L94.0524 281.946L99.9191 276.138L98.1293 274.33Z" fill="#494E74"/>
<path d="M185.939 184.809L176.773 193.975L178.572 195.774L187.738 186.608L185.939 184.809Z" fill="#494E74"/>
<path d="M96.355 274.326L90.4883 280.134L92.278 281.942L98.1447 276.134L96.355 274.326Z" fill="#494E74"/>
<path d="M186.57 182.416L175.385 193.601L177.184 195.4L188.369 184.215L186.57 182.416Z" fill="#494E74"/>
<path d="M94.5837 274.402L88.7832 280.203L90.5821 282.001L96.3826 276.201L94.5837 274.402Z" fill="#494E74"/>
<path d="M187.162 179.993L173.964 193.13L175.759 194.933L188.956 181.796L187.162 179.993Z" fill="#494E74"/>
<path d="M92.8672 274.328L87.0005 280.136L88.7902 281.944L94.6569 276.136L92.8672 274.328Z" fill="#494E74"/>
<path d="M187.729 177.688L172.635 192.845L174.438 194.64L189.532 179.483L187.729 177.688Z" fill="#494E74"/>
<path d="M91.0937 274.324L85.2271 280.131L87.0168 281.939L92.8834 276.132L91.0937 274.324Z" fill="#494E74"/>
<path d="M188.339 175.398L171.231 192.506L173.03 194.305L190.138 177.197L188.339 175.398Z" fill="#494E74"/>
<path d="M89.3225 274.402L83.522 280.202L85.3208 282.001L91.1213 276.201L89.3225 274.402Z" fill="#494E74"/>
<path d="M188.927 172.929L169.793 192.123L171.595 193.919L190.728 174.725L188.927 172.929Z" fill="#494E74"/>
<path d="M87.6172 274.313L81.7505 280.121L83.5402 281.929L89.4069 276.121L87.6172 274.313Z" fill="#494E74"/>
<path d="M189.548 170.683L168.402 191.829L170.201 193.628L191.347 172.482L189.548 170.683Z" fill="#494E74"/>
<path d="M85.8482 274.321L79.9814 280.129L81.7712 281.937L87.6379 276.129L85.8482 274.321Z" fill="#494E74"/>
<path d="M190.163 168.34L167.006 191.44L168.803 193.242L191.96 170.141L190.163 168.34Z" fill="#494E74"/>
<path d="M84.0749 274.406L78.2744 280.207L80.0733 282.005L85.8738 276.205L84.0749 274.406Z" fill="#494E74"/>
<path d="M190.743 166.061L166.478 190.377L168.278 192.174L192.544 167.858L190.743 166.061Z" fill="#494E74"/>
<path d="M82.354 274.329L76.4873 280.136L78.277 281.944L84.1438 276.137L82.354 274.329Z" fill="#494E74"/>
<path d="M191.322 163.649L167.056 187.916L168.855 189.715L193.121 165.448L191.322 163.649Z" fill="#494E74"/>
<path d="M80.5865 274.336L74.7197 280.144L76.5095 281.952L82.3762 276.144L80.5865 274.336Z" fill="#494E74"/>
<path d="M191.932 161.267L167.604 185.595L169.403 187.394L193.731 163.066L191.932 161.267Z" fill="#494E74"/>
<path d="M78.8132 274.405L73.0127 280.206L74.8116 282.004L80.6121 276.204L78.8132 274.405Z" fill="#494E74"/>
<path d="M192.547 158.906L168.227 183.167L170.023 184.969L194.344 160.707L192.547 158.906Z" fill="#494E74"/>
<path d="M77.0938 274.326L71.2271 280.134L73.0168 281.942L78.8835 276.134L77.0938 274.326Z" fill="#494E74"/>
<path d="M193.171 156.563L168.843 180.891L170.642 182.69L194.97 158.362L193.171 156.563Z" fill="#494E74"/>
<path d="M75.3379 274.322L69.4712 280.13L71.2609 281.938L77.1276 276.13L75.3379 274.322Z" fill="#494E74"/>
<path d="M193.724 154.321L169.458 178.637L171.259 180.434L195.525 156.118L193.724 154.321Z" fill="#494E74"/>
<path d="M73.6172 274.316L67.7505 280.124L69.5402 281.931L75.4069 276.124L73.6172 274.316Z" fill="#494E74"/>
<path d="M194.343 151.958L170.077 176.274L171.878 178.071L196.144 153.755L194.343 151.958Z" fill="#494E74"/>
<path d="M71.8486 274.324L65.9819 280.132L67.7717 281.94L73.6383 276.132L71.8486 274.324Z" fill="#494E74"/>
<path d="M194.926 149.538L170.598 173.866L172.397 175.665L196.724 151.337L194.926 149.538Z" fill="#494E74"/>
<path d="M70.073 274.407L64.2725 280.208L66.0713 282.006L71.8718 276.206L70.073 274.407Z" fill="#494E74"/>
<path d="M195.535 147.186L171.214 171.448L173.011 173.249L197.332 148.987L195.535 147.186Z" fill="#494E74"/>
<path d="M68.356 274.331L62.4893 280.139L64.279 281.947L70.1457 276.139L68.356 274.331Z" fill="#494E74"/>
<path d="M196.152 144.822L171.824 169.149L173.623 170.948L197.951 146.62L196.152 144.822Z" fill="#494E74"/>
<path d="M66.6001 274.327L60.7334 280.135L62.5231 281.943L68.3899 276.135L66.6001 274.327Z" fill="#494E74"/>
<path d="M196.714 142.513L172.447 166.78L174.246 168.579L198.512 144.312L196.714 142.513Z" fill="#494E74"/>
<path d="M64.8132 274.406L59.0127 280.207L60.8116 282.005L66.6121 276.205L64.8132 274.406Z" fill="#494E74"/>
<path d="M197.341 140.218L173.075 164.534L174.876 166.331L199.142 142.015L197.341 140.218Z" fill="#494E74"/>
<path d="M63.1108 274.329L57.2441 280.136L59.0339 281.944L64.9005 276.137L63.1108 274.329Z" fill="#494E74"/>
<path d="M197.932 137.786L173.611 162.047L175.408 163.848L199.729 139.587L197.932 137.786Z" fill="#494E74"/>
<path d="M61.3369 274.325L55.4702 280.132L57.2599 281.94L63.1267 276.133L61.3369 274.325Z" fill="#494E74"/>
<path d="M198.551 135.415L174.223 159.743L176.022 161.542L200.35 137.214L198.551 135.415Z" fill="#494E74"/>
<path d="M59.5637 274.393L53.7632 280.194L55.562 281.993L61.3626 276.192L59.5637 274.393Z" fill="#494E74"/>
<path d="M199.145 133.084L174.824 157.345L176.621 159.146L200.942 134.885L199.145 133.084Z" fill="#494E74"/>
<path d="M57.8623 274.332L51.9956 280.14L53.7853 281.948L59.6521 276.14L57.8623 274.332Z" fill="#494E74"/>
<path d="M199.718 130.804L175.453 155.121L177.253 156.918L201.519 132.601L199.718 130.804Z" fill="#494E74"/>
<path d="M56.0756 274.322L50.209 280.13L51.9987 281.938L57.8654 276.13L56.0756 274.322Z" fill="#494E74"/>
<path d="M200.341 128.477L176.075 152.794L177.876 154.591L202.142 130.274L200.341 128.477Z" fill="#494E74"/>
<path d="M54.3045 274.41L48.5039 280.21L50.3028 282.009L56.1033 276.209L54.3045 274.41Z" fill="#494E74"/>
<path d="M200.931 126.037L176.61 150.298L178.407 152.099L202.728 127.838L200.931 126.037Z" fill="#494E74"/>
<path d="M52.5991 274.33L46.7324 280.137L48.5222 281.945L54.3888 276.138L52.5991 274.33Z" fill="#494E74"/>
<path d="M201.543 123.686L177.215 148.014L179.014 149.813L203.342 125.485L201.543 123.686Z" fill="#494E74"/>
<path d="M50.8267 274.325L44.96 280.133L46.7497 281.941L52.6164 276.133L50.8267 274.325Z" fill="#494E74"/>
<path d="M202.152 121.346L177.831 145.608L179.628 147.409L203.949 123.148L202.152 121.346Z" fill="#494E74"/>
<path d="M49.0427 274.409L43.2422 280.209L45.041 282.008L50.8416 276.208L49.0427 274.409Z" fill="#494E74"/>
<path d="M202.719 119.064L178.453 143.38L180.254 145.177L204.52 120.861L202.719 119.064Z" fill="#494E74"/>
<path d="M47.3379 274.327L41.4712 280.135L43.2609 281.943L49.1276 276.135L47.3379 274.327Z" fill="#494E74"/>
<path d="M203.308 116.66L179.041 140.927L180.84 142.726L205.107 118.459L203.308 116.66Z" fill="#494E74"/>
<path d="M45.5634 274.323L39.6968 280.131L41.4865 281.939L47.3532 276.131L45.5634 274.323Z" fill="#494E74"/>
<path d="M203.918 114.279L179.59 138.607L181.389 140.406L205.717 116.078L203.918 114.279Z" fill="#494E74"/>
<path d="M43.7952 274.396L37.9946 280.197L39.7935 281.996L45.5941 276.195L43.7952 274.396Z" fill="#494E74"/>
<path d="M204.532 111.922L180.211 136.183L182.008 137.984L206.328 113.723L204.532 111.922Z" fill="#494E74"/>
<path d="M42.0888 274.33L36.2222 280.138L38.0119 281.946L43.8786 276.138L42.0888 274.33Z" fill="#494E74"/>
<path d="M205.145 109.562L180.817 133.89L182.616 135.689L206.944 111.361L205.145 109.562Z" fill="#494E74"/>
<path d="M40.3023 274.338L34.4355 280.146L36.2253 281.953L42.092 276.146L40.3023 274.338Z" fill="#494E74"/>
<path d="M203.902 108.956L181.42 131.508L183.222 133.304L205.703 110.752L203.902 108.956Z" fill="#494E74"/>
<path d="M38.6011 274.332L32.7344 280.14L34.5241 281.948L40.3908 276.14L38.6011 274.332Z" fill="#494E74"/>
<path d="M202.487 108.574L182.009 129.116L183.811 130.912L204.289 110.37L202.487 108.574Z" fill="#494E74"/>
<path d="M36.8257 274.328L30.959 280.136L32.7487 281.944L38.6154 276.136L36.8257 274.328Z" fill="#494E74"/>
<path d="M201.107 108.338L182.592 126.853L184.391 128.652L202.906 110.137L201.107 108.338Z" fill="#494E74"/>
<path d="M35.0544 274.398L29.2539 280.198L31.0528 281.997L36.8533 276.197L35.0544 274.398Z" fill="#494E74"/>
<path d="M199.755 107.902L183.193 124.406L184.989 126.208L201.551 109.704L199.755 107.902Z" fill="#494E74"/>
<path d="M33.351 274.317L27.4844 280.125L29.2741 281.933L35.1408 276.125L33.351 274.317Z" fill="#494E74"/>
<path d="M198.363 107.605L183.812 122.155L185.611 123.954L200.162 109.404L198.363 107.605Z" fill="#494E74"/>
<path d="M31.5645 274.326L25.6978 280.133L27.4875 281.941L33.3542 276.134L31.5645 274.326Z" fill="#494E74"/>
<path d="M196.947 107.26L184.416 119.792L186.214 121.59L198.745 109.059L196.947 107.26Z" fill="#494E74"/>
<path d="M29.7932 274.397L23.9927 280.198L25.7915 281.997L31.592 276.196L29.7932 274.397Z" fill="#494E74"/>
<path d="M195.55 106.869L184.977 117.442L186.775 119.241L197.349 108.668L195.55 106.869Z" fill="#494E74"/>
<path d="M28.0879 274.333L22.2212 280.14L24.0109 281.948L29.8776 276.14L28.0879 274.333Z" fill="#494E74"/>
<path d="M194.151 106.525L185.597 115.079L187.396 116.878L195.95 108.324L194.151 106.525Z" fill="#494E74"/>
<path d="M26.3154 274.329L20.4487 280.136L22.2385 281.944L28.1051 276.137L26.3154 274.329Z" fill="#494E74"/>
<path d="M192.731 106.205L186.197 112.739L187.996 114.538L194.53 108.003L192.731 106.205Z" fill="#494E74"/>
<path d="M24.5339 274.414L18.7334 280.214L20.5323 282.013L26.3328 276.213L24.5339 274.414Z" fill="#494E74"/>
<path d="M191.389 105.846L186.8 110.435L188.599 112.233L193.188 107.644L191.389 105.846Z" fill="#494E74"/>
<path d="M22.8267 274.331L16.96 280.138L18.7497 281.946L24.6164 276.138L22.8267 274.331Z" fill="#494E74"/>
<path d="M190.004 105.472L187.434 108.042L189.233 109.84L191.803 107.271L190.004 105.472Z" fill="#494E74"/>
<path d="M21.0699 274.326L15.2031 280.134L16.9929 281.942L22.8596 276.134L21.0699 274.326Z" fill="#494E74"/>
<path d="M188.576 105.11L187.964 105.722L189.763 107.521L190.375 106.909L188.576 105.11Z" fill="#494E74"/>
<path d="M19.2722 274.413L13.4717 280.213L15.2705 282.012L21.071 276.212L19.2722 274.413Z" fill="#494E74"/>
<path d="M17.5777 274.316L11.7109 280.124L13.5007 281.931L19.3674 276.124L17.5777 274.316Z" fill="#494E74"/>
<path d="M15.8081 274.324L9.94141 280.132L11.7311 281.94L17.5979 276.132L15.8081 274.324Z" fill="#494E74"/>
<path d="M14.0246 274.4L8.22412 280.201L10.023 282L15.8235 276.199L14.0246 274.4Z" fill="#494E74"/>
<path d="M12.3321 274.331L6.46533 280.139L8.25506 281.947L14.1218 276.139L12.3321 274.331Z" fill="#494E74"/>
<path d="M10.5469 274.339L4.68018 280.146L6.46991 281.954L12.3366 276.147L10.5469 274.339Z" fill="#494E74"/>
<path d="M8.76437 274.399L2.96387 280.2L4.76273 281.999L10.5632 276.198L8.76437 274.399Z" fill="#494E74"/>
<path d="M7.07075 274.329L1.2041 280.136L2.99383 281.944L8.86048 276.137L7.07075 274.329Z" fill="#494E74"/>
<path d="M5.29837 274.325L-0.568359 280.132L1.22137 281.94L7.0881 276.133L5.29837 274.325Z" fill="#494E74"/>
<path d="M3.57661 274.318L-2.29004 280.126L-0.500308 281.934L5.36634 276.126L3.57661 274.318Z" fill="#494E74"/>
<path d="M1.80911 274.327L-4.05762 280.134L-2.26789 281.942L3.59884 276.135L1.80911 274.327Z" fill="#494E74"/>
<path d="M0.0226754 274.401L-5.77783 280.202L-3.97897 282.001L1.82153 276.2L0.0226754 274.401Z" fill="#494E74"/>
<path d="M-1.66697 274.333L-7.53369 280.141L-5.74396 281.949L0.122766 276.141L-1.66697 274.333Z" fill="#494E74"/>
<path d="M145.895 274.021H139.665V276.564H145.895V274.021Z" fill="#494E74"/>
<path d="M130.786 276.582V274.038C139.145 274.038 146.414 268.379 148.473 260.297L150.948 260.92C148.594 270.144 140.305 276.582 130.786 276.582Z" fill="#494E74"/>
<path d="M140.236 276.409L139.181 274.09C142.002 272.792 144.511 270.836 146.467 268.431L148.44 270.023C146.242 272.74 143.403 274.938 140.236 276.392V276.409Z" fill="#494E74"/>
<path d="M194.129 21.4873H-96.8418V24.0313H194.129V21.4873Z" fill="#494E74"/>
<path d="M210.257 21.4873H194.128V24.0313H210.257V21.4873Z" fill="#494E74"/>
<path d="M204.996 38.6207C203.819 32.1481 199.544 26.662 193.574 23.9103L194.629 21.5913C201.362 24.6718 206.173 30.8675 207.505 38.1534L204.996 38.6034V38.6207Z" fill="#494E74"/>
<path d="M209.066 22.4955L205.091 38.1455L207.557 38.7717L211.532 23.1218L209.066 22.4955Z" fill="#494E74"/>
<path d="M146.247 268.987L144.716 275.044L147.183 275.667L148.713 269.61L146.247 268.987Z" fill="#494E74"/>
<path d="M204.809 109.86L182.813 196.088L185.279 196.717L207.274 110.489L204.809 109.86Z" fill="#494E74"/>
<path d="M171.876 239.687L161.363 280.87L163.828 281.499L174.341 240.316L171.876 239.687Z" fill="#494E74"/>
<path d="M162.525 279.835H-65.623V282.379H162.525V279.835Z" fill="#494E74"/>
<path d="M218.408 67.0896L215.933 66.4492L228.238 18.234H-102.415V30.5906H-104.959V15.6899H231.509L218.408 67.0896Z" fill="#494E74"/>
<path d="M200.55 61.2632L199.92 63.728L216.906 68.0671L217.536 65.6023L200.55 61.2632Z" fill="#494E74"/>
<path d="M189.3 104.635L188.681 107.103L205.736 111.381L206.355 108.913L189.3 104.635Z" fill="#494E74"/>
<path d="M215.938 66.4833L215.205 69.3506L217.67 69.9802L218.402 67.1129L215.938 66.4833Z" fill="#494E74"/>
<path d="M214.533 71.591L213.312 76.3521L215.777 76.9839L216.997 72.2228L214.533 71.591Z" fill="#494E74"/>
<path d="M212.765 78.6799L211.544 83.4409L214.008 84.0727L215.229 79.3117L212.765 78.6799Z" fill="#494E74"/>
<path d="M210.912 85.7629L209.691 90.5239L212.155 91.1557L213.376 86.3947L210.912 85.7629Z" fill="#494E74"/>
<path d="M209.174 92.9562L208.013 97.6606L210.483 98.2705L211.644 93.5661L209.174 92.9562Z" fill="#494E74"/>
<path d="M207.426 100.045L206.204 104.752L208.666 105.392L209.889 100.685L207.426 100.045Z" fill="#494E74"/>
<path d="M205.554 107.135L204.882 109.946L207.356 110.537L208.028 107.726L205.554 107.135Z" fill="#494E74"/>
<path d="M225.364 134.566L201.447 128.509L202.07 126.034L223.513 131.469L242.636 56.4978L221.194 51.0117L221.817 48.5542L245.734 54.6633L225.364 134.566Z" fill="#494E74"/>
<path d="M223.946 132.178L201.95 126.623L202.573 124.148L222.112 129.098L240.248 57.9172L220.692 52.9158L221.333 50.4409L243.346 56.0828L223.946 132.178Z" fill="#494E74"/>
<path d="M222.544 129.859L202.365 124.719L202.988 122.262L220.71 126.761L237.86 59.3187L220.208 54.8018L220.848 52.3442L240.958 57.4842L222.544 129.859Z" fill="#494E74"/>
<path d="M205.04 38.0954L198.927 62.1123L201.392 62.7398L207.505 38.723L205.04 38.0954Z" fill="#494E74"/>
<path d="M187.795 105.621L165.862 191.793L168.328 192.421L190.261 106.249L187.795 105.621Z" fill="#494E74"/>
<path d="M154.747 235.177L148.334 260.171L150.798 260.803L157.211 235.809L154.747 235.177Z" fill="#494E74"/>
<path d="M156.287 234.894L155.91 236.37L172.896 240.709L173.273 239.233L156.287 234.894Z" fill="#494E74"/>
<path d="M167.351 191.445L166.974 192.92L183.959 197.26L184.336 195.784L167.351 191.445Z" fill="#494E74"/>
<path d="M174.45 243.06C174.45 243.06 174.329 243.06 174.26 243.043L172.374 242.558L172.754 241.087L173.914 241.381L185.578 195.624L184.419 195.329L184.799 193.858L186.686 194.343C187.101 194.447 187.344 194.862 187.24 195.277L175.194 242.524C175.143 242.714 175.021 242.887 174.848 242.991C174.727 243.06 174.589 243.095 174.468 243.095L174.45 243.06Z" fill="#494E74"/>
<path d="M183.356 196.265L172.296 239.72L173.772 240.096L184.832 196.641L183.356 196.265Z" fill="#494E74"/>
<path d="M181.426 195.738L170.368 239.248L171.844 239.623L182.902 196.113L181.426 195.738Z" fill="#494E74"/>
<path d="M213.614 70.8973C213.493 70.8973 213.354 70.8627 213.233 70.7934L203.888 65.5323C203.715 65.4285 203.576 65.2727 203.524 65.0651C203.473 64.8747 203.49 64.667 203.594 64.4767L204.078 63.6287C204.286 63.2652 204.753 63.1441 205.117 63.3344L214.462 68.5956C214.635 68.6994 214.774 68.8551 214.825 69.0628C214.877 69.2532 214.86 69.4609 214.756 69.6512L214.272 70.4993C214.133 70.7416 213.874 70.88 213.614 70.88V70.8973Z" fill="#494E74"/>
<path d="M202.919 72.0046C202.712 72.0046 202.521 71.9181 202.383 71.7796C202.244 71.6412 202.158 71.4335 202.158 71.2431V70.2567C202.158 69.8413 202.487 69.4952 202.919 69.4952L213.614 69.374C214.03 69.374 214.359 69.6855 214.393 70.0836L214.462 71.0701C214.462 71.2777 214.411 71.4854 214.255 71.6411C214.116 71.7969 213.909 71.8835 213.701 71.8835L202.937 72.0046H202.919Z" fill="#494E74"/>
<path d="M193.884 107.5C193.676 107.5 193.486 107.413 193.347 107.275C193.209 107.136 193.123 106.929 193.123 106.738V105.752C193.123 105.336 193.451 104.99 193.884 104.99L204.579 104.869C204.977 104.886 205.323 105.181 205.358 105.579L205.427 106.565C205.427 106.773 205.375 106.981 205.22 107.136C205.081 107.292 204.873 107.379 204.666 107.379L193.901 107.5H193.884Z" fill="#494E74"/>
<path d="M204.581 106.41C204.46 106.41 204.321 106.375 204.2 106.306L194.855 101.045C194.682 100.941 194.543 100.785 194.491 100.577C194.439 100.387 194.457 100.179 194.56 99.9889L195.045 99.1409C195.253 98.7775 195.72 98.6563 196.083 98.8467L205.429 104.108C205.602 104.212 205.74 104.367 205.792 104.575C205.844 104.765 205.827 104.973 205.723 105.163L205.238 106.011C205.1 106.254 204.84 106.392 204.581 106.392V106.41Z" fill="#494E74"/>
<path d="M201.259 62.7378L190.198 106.193L191.674 106.569L202.735 63.1135L201.259 62.7378Z" fill="#494E74"/>
<path d="M203.168 63.2148L192.107 106.67L193.583 107.046L204.644 63.5905L203.168 63.2148Z" fill="#494E74"/>
<path d="M199.377 62.1691L188.254 105.68L189.729 106.057L200.852 62.5463L199.377 62.1691Z" fill="#494E74"/>
<path d="M168.238 192.376L157.112 235.832L158.588 236.21L169.713 192.753L168.238 192.376Z" fill="#494E74"/>
<path d="M170.131 192.867L159.006 236.323L160.481 236.701L171.607 193.245L170.131 192.867Z" fill="#494E74"/>
<path d="M166.371 191.917L155.311 235.372L156.787 235.748L167.847 192.293L166.371 191.917Z" fill="#494E74"/>
<path d="M180.612 200.59C180.491 200.59 180.352 200.556 180.231 200.487L170.886 195.226C170.522 195.018 170.401 194.585 170.574 194.222L171.007 193.374C171.093 193.183 171.267 193.045 171.457 192.993C171.665 192.924 171.872 192.958 172.063 193.062L181.477 198.323C181.65 198.427 181.789 198.583 181.841 198.791C181.893 198.998 181.875 199.189 181.771 199.379L181.287 200.227C181.148 200.469 180.889 200.608 180.629 200.608L180.612 200.59Z" fill="#494E74"/>
<path d="M169.864 201.681C169.656 201.681 169.465 201.594 169.327 201.456C169.189 201.317 169.102 201.11 169.102 200.919V199.933C169.102 199.518 169.431 199.171 169.864 199.171L180.628 199.05C180.836 199.05 181.026 199.137 181.164 199.275C181.303 199.414 181.389 199.621 181.389 199.812V200.798C181.389 201.214 181.061 201.56 180.628 201.56L169.864 201.681Z" fill="#494E74"/>
<path d="M160.813 237.193C160.606 237.193 160.415 237.106 160.277 236.968C160.138 236.83 160.052 236.622 160.052 236.432V235.445C160.052 235.03 160.381 234.684 160.813 234.684L171.578 234.562C171.785 234.562 171.976 234.649 172.114 234.787C172.253 234.926 172.339 235.134 172.339 235.324V236.31C172.339 236.726 172.01 237.072 171.578 237.072L160.813 237.193Z" fill="#494E74"/>
<path d="M171.577 236.103C171.456 236.103 171.317 236.068 171.196 235.999L161.851 230.738C161.487 230.53 161.366 230.097 161.539 229.734L161.972 228.886C162.058 228.696 162.231 228.557 162.422 228.505C162.612 228.436 162.837 228.471 163.027 228.574L172.442 233.836C172.615 233.939 172.754 234.095 172.805 234.303C172.857 234.511 172.84 234.701 172.736 234.891L172.252 235.739C172.113 235.982 171.854 236.12 171.594 236.12L171.577 236.103Z" fill="#494E74"/>
<path d="M194.819 83.476L194.438 84.9507L198.225 85.928L198.606 84.4533L194.819 83.476Z" fill="#494E74"/>
<path d="M161.764 213.168L161.383 214.643L165.17 215.62L165.551 214.146L161.764 213.168Z" fill="#494E74"/>
<path d="M120.853 70.4125H-15.6248C-16.0401 70.4125 -16.3862 70.0663 -16.3862 69.651V26.7488C-16.3862 26.3334 -16.0401 25.9873 -15.6248 25.9873H120.853V27.5102H-14.8633V68.8895H120.853V70.4125Z" fill="#494E74"/>
<path d="M113.844 69.6512H112.321V35.281H-7.04052V69.6512H-8.56348V34.5022C-8.56348 34.0869 -8.21735 33.7407 -7.802 33.7407H113.082C113.498 33.7407 113.844 34.0869 113.844 34.5022V69.6512Z" fill="#494E74"/>
<path d="M121.615 26.749H120.092V69.6512H121.615V26.749Z" fill="#494E74"/>
<path d="M81.0661 235.67H-0.827148V237.193H81.0661V235.67Z" fill="#494E74"/>
<path d="M89.648 205.194H88.125V228.609H89.648V205.194Z" fill="#494E74"/>
<path d="M89.6494 205.176H88.1264C88.1264 201.3 84.9767 198.15 81.1001 198.15V196.627C85.8247 196.627 89.6494 200.469 89.6494 205.176Z" fill="#494E74"/>
<path d="M81.1001 237.141V235.618C84.9767 235.618 88.1264 232.468 88.1264 228.592H89.6494C89.6494 233.316 85.8074 237.141 81.1001 237.141Z" fill="#494E74"/>
<path d="M81.0661 196.679H-0.827148V198.202H81.0661V196.679Z" fill="#494E74"/>
<path d="M46.7643 202.477H34.1826V204H46.7643V202.477Z" fill="#494E74"/>
<path d="M48.824 195.087H47.3011C47.3011 191.349 44.2551 188.303 40.517 188.303C36.7788 188.303 33.7329 191.349 33.7329 195.087H32.21C32.21 190.501 35.9308 186.78 40.517 186.78C45.1031 186.78 48.824 190.501 48.824 195.087Z" fill="#494E74"/>
<path d="M49.136 195.087H47.6131C47.6131 191.176 44.4286 187.991 40.5174 187.991C36.6062 187.991 33.4219 191.176 33.4219 195.087H31.8989C31.8989 190.328 35.7582 186.468 40.5174 186.468C45.2766 186.468 49.136 190.328 49.136 195.087Z" fill="#494E74"/>
<path d="M50.659 195.087H49.136C49.136 190.328 45.2767 186.468 40.5174 186.468C35.7582 186.468 31.8989 190.328 31.8989 195.087H30.376C30.376 189.497 34.9275 184.945 40.5174 184.945C46.1074 184.945 50.659 189.497 50.659 195.087Z" fill="#494E74"/>
<path d="M49.0664 195.122H47.5435V199.829H49.0664V195.122Z" fill="#494E74"/>
<path d="M50.6587 195.122H49.1357V199.829H50.6587V195.122Z" fill="#494E74"/>
<path d="M48.7539 195.122H47.231V200.14H48.7539V195.122Z" fill="#494E74"/>
<path d="M46.7988 204.017V202.494C48.1141 202.494 49.1871 201.421 49.1871 200.105H50.7101C50.7101 202.269 48.9621 204.017 46.7988 204.017Z" fill="#494E74"/>
<path d="M49.8801 199.361H47.9937V200.884H49.8801V199.361Z" fill="#494E74"/>
<path d="M49.8969 199.05H48.3047V200.573H49.8969V199.05Z" fill="#494E74"/>
<path d="M33.4219 195.122H31.8989V199.829H33.4219V195.122Z" fill="#494E74"/>
<path d="M31.8296 195.122H30.3066V199.829H31.8296V195.122Z" fill="#494E74"/>
<path d="M33.7153 195.122H32.1924V200.14H33.7153V195.122Z" fill="#494E74"/>
<path d="M34.2179 204.017C32.0546 204.017 30.3066 202.269 30.3066 200.105H31.8296C31.8296 201.421 32.9026 202.494 34.2179 202.494V204.017Z" fill="#494E74"/>
<path d="M32.66 199.05H31.0679V200.573H32.66V199.05Z" fill="#494E74"/>
<path d="M32.9542 199.361H31.0679V200.884H32.9542V199.361Z" fill="#494E74"/>
<path d="M46.7643 229.803H34.1826V231.326H46.7643V229.803Z" fill="#494E74"/>
<path d="M40.517 246.971C35.9308 246.971 32.21 243.25 32.21 238.664H33.7329C33.7329 242.402 36.7788 245.448 40.517 245.448C44.2551 245.448 47.3011 242.402 47.3011 238.664H48.824C48.824 243.25 45.1031 246.971 40.517 246.971Z" fill="#494E74"/>
<path d="M40.5174 247.283C35.7582 247.283 31.8989 243.423 31.8989 238.664H33.4219C33.4219 242.575 36.6062 245.76 40.5174 245.76C44.4286 245.76 47.6131 242.575 47.6131 238.664H49.136C49.136 243.423 45.2766 247.283 40.5174 247.283Z" fill="#494E74"/>
<path d="M40.5174 248.806C34.9275 248.806 30.376 244.254 30.376 238.664H31.8989C31.8989 243.423 35.7582 247.283 40.5174 247.283C45.2767 247.283 49.136 243.423 49.136 238.664H50.659C50.659 244.254 46.1074 248.806 40.5174 248.806Z" fill="#494E74"/>
<path d="M49.0664 233.991H47.5435V238.698H49.0664V233.991Z" fill="#494E74"/>
<path d="M50.6587 233.991H49.1357V238.698H50.6587V233.991Z" fill="#494E74"/>
<path d="M48.7539 233.68H47.231V238.698H48.7539V233.68Z" fill="#494E74"/>
<path d="M50.7101 233.645H49.1871C49.1871 232.33 48.1141 231.257 46.7988 231.257V229.734C48.9621 229.734 50.7101 231.482 50.7101 233.645Z" fill="#494E74"/>
<path d="M49.8801 232.918H47.9937V234.441H49.8801V232.918Z" fill="#494E74"/>
<path d="M49.8969 233.23H48.3047V234.753H49.8969V233.23Z" fill="#494E74"/>
<path d="M33.4219 233.991H31.8989V238.698H33.4219V233.991Z" fill="#494E74"/>
<path d="M31.8296 233.991H30.3066V238.698H31.8296V233.991Z" fill="#494E74"/>
<path d="M33.7153 233.68H32.1924V238.698H33.7153V233.68Z" fill="#494E74"/>
<path d="M31.8296 233.645H30.3066C30.3066 231.482 32.0546 229.734 34.2179 229.734V231.257C32.9026 231.257 31.8296 232.33 31.8296 233.645Z" fill="#494E74"/>
<path d="M32.66 233.23H31.0679V234.753H32.66V233.23Z" fill="#494E74"/>
<path d="M32.9542 232.918H31.0679V234.441H32.9542V232.918Z" fill="#494E74"/>
<path d="M71.4086 202.477H58.8789V204H71.4086V202.477Z" fill="#494E74"/>
<path d="M73.4494 195.087H71.9265C71.9265 193.27 71.2169 191.574 69.9362 190.293C68.6555 189.012 66.9596 188.303 65.1424 188.303C61.4043 188.303 58.3583 191.349 58.3583 195.087H56.8354C56.8354 190.501 60.5563 186.78 65.1424 186.78C67.3576 186.78 69.4516 187.645 71.0265 189.22C72.6014 190.795 73.4668 192.872 73.4668 195.104L73.4494 195.087Z" fill="#494E74"/>
<path d="M73.7615 195.087H72.2385C72.2385 191.176 69.0542 187.991 65.143 187.991C61.2318 187.991 58.0474 191.176 58.0474 195.087H56.5244C56.5244 190.328 60.3838 186.468 65.143 186.468C69.9022 186.468 73.7615 190.328 73.7615 195.087Z" fill="#494E74"/>
<path d="M75.2854 195.087H73.7625C73.7625 190.328 69.9032 186.468 65.144 186.468C60.3848 186.468 56.5254 190.328 56.5254 195.087H55.0024C55.0024 189.497 59.5541 184.945 65.144 184.945C70.7339 184.945 75.2854 189.497 75.2854 195.087Z" fill="#494E74"/>
<path d="M73.7451 195.122H72.2222V199.829H73.7451V195.122Z" fill="#494E74"/>
<path d="M75.2847 195.122H73.7617V199.829H75.2847V195.122Z" fill="#494E74"/>
<path d="M73.3823 195.122H71.8594V200.14H73.3823V195.122Z" fill="#494E74"/>
<path d="M71.4424 204.017V202.494C72.7577 202.494 73.8307 201.421 73.8307 200.105H75.3536C75.3536 202.269 73.6057 204.017 71.4424 204.017Z" fill="#494E74"/>
<path d="M74.5055 199.361H72.6191V200.884H74.5055V199.361Z" fill="#494E74"/>
<path d="M74.5244 199.05H73.0015V200.573H74.5244V199.05Z" fill="#494E74"/>
<path d="M58.0474 195.122H56.5244V199.829H58.0474V195.122Z" fill="#494E74"/>
<path d="M56.5254 195.122H55.0024V199.829H56.5254V195.122Z" fill="#494E74"/>
<path d="M58.3583 195.122H56.8354V200.14H58.3583V195.122Z" fill="#494E74"/>
<path d="M58.9137 204.017C56.7504 204.017 55.0024 202.269 55.0024 200.105H56.5254C56.5254 201.421 57.5984 202.494 58.9137 202.494V204.017Z" fill="#494E74"/>
<path d="M57.2876 199.05H55.7646V200.573H57.2876V199.05Z" fill="#494E74"/>
<path d="M57.5991 199.361H55.7646V200.884H57.5991V199.361Z" fill="#494E74"/>
<path d="M71.4086 229.803H58.8789V231.326H71.4086V229.803Z" fill="#494E74"/>
<path d="M65.1424 246.971C60.5563 246.971 56.8354 243.25 56.8354 238.664H58.3583C58.3583 242.402 61.4043 245.448 65.1424 245.448C66.9596 245.448 68.6555 244.739 69.9362 243.458C71.2169 242.177 71.9265 240.481 71.9265 238.664H73.4494C73.4494 240.879 72.5841 242.973 71.0092 244.548C69.4343 246.123 67.3576 246.988 65.1251 246.988L65.1424 246.971Z" fill="#494E74"/>
<path d="M65.143 247.283C60.3838 247.283 56.5244 243.423 56.5244 238.664H58.0474C58.0474 242.575 61.2318 245.76 65.143 245.76C69.0542 245.76 72.2385 242.575 72.2385 238.664H73.7615C73.7615 243.423 69.9022 247.283 65.143 247.283Z" fill="#494E74"/>
<path d="M65.144 248.806C59.5541 248.806 55.0024 244.254 55.0024 238.664H56.5254C56.5254 243.423 60.3848 247.283 65.144 247.283C69.9032 247.283 73.7625 243.423 73.7625 238.664H75.2854C75.2854 244.254 70.7339 248.806 65.144 248.806Z" fill="#494E74"/>
<path d="M73.7451 233.991H72.2222V238.698H73.7451V233.991Z" fill="#494E74"/>
<path d="M75.2847 233.991H73.7617V238.698H75.2847V233.991Z" fill="#494E74"/>
<path d="M73.3823 233.68H71.8594V238.698H73.3823V233.68Z" fill="#494E74"/>
<path d="M75.3536 233.645H73.8307C73.8307 232.33 72.7577 231.257 71.4424 231.257V229.734C73.6057 229.734 75.3536 231.482 75.3536 233.645Z" fill="#494E74"/>
<path d="M74.5055 232.918H72.6191V234.441H74.5055V232.918Z" fill="#494E74"/>
<path d="M74.5244 233.23H73.0015V234.753H74.5244V233.23Z" fill="#494E74"/>
<path d="M58.0474 233.991H56.5244V238.698H58.0474V233.991Z" fill="#494E74"/>
<path d="M56.5254 233.991H55.0024V238.698H56.5254V233.991Z" fill="#494E74"/>
<path d="M58.3583 233.68H56.8354V238.698H58.3583V233.68Z" fill="#494E74"/>
<path d="M56.5254 233.645H55.0024C55.0024 231.482 56.7504 229.734 58.9137 229.734V231.257C57.5984 231.257 56.5254 232.33 56.5254 233.645Z" fill="#494E74"/>
<path d="M57.2876 233.23H55.7646V234.753H57.2876V233.23Z" fill="#494E74"/>
<path d="M57.5991 232.918H55.7646V234.441H57.5991V232.918Z" fill="#494E74"/>
<path d="M22.0864 202.477H9.55664V204H22.0864V202.477Z" fill="#494E74"/>
<path d="M24.196 195.087H22.6731C22.6731 191.349 19.6272 188.303 15.889 188.303C12.1509 188.303 9.10499 191.349 9.10499 195.087H7.58203C7.58203 190.501 11.3029 186.78 15.889 186.78C20.4752 186.78 24.196 190.501 24.196 195.087Z" fill="#494E74"/>
<path d="M24.491 195.087H22.968C22.968 191.176 19.7836 187.991 15.8724 187.991C11.9612 187.991 8.77687 191.176 8.77687 195.087H7.25391C7.25391 190.328 11.1132 186.468 15.8724 186.468C20.6316 186.468 24.491 190.328 24.491 195.087Z" fill="#494E74"/>
<path d="M26.0314 195.087H24.5085C24.5085 190.328 20.6492 186.468 15.89 186.468C11.1308 186.468 7.2715 190.328 7.2715 195.087H5.74854C5.74854 189.497 10.3001 184.945 15.89 184.945C21.4799 184.945 26.0314 189.497 26.0314 195.087Z" fill="#494E74"/>
<path d="M8.72511 195.122H7.20215V199.829H8.72511V195.122Z" fill="#494E74"/>
<path d="M7.20216 195.122H5.6792V199.829H7.20216V195.122Z" fill="#494E74"/>
<path d="M9.0879 195.122H7.56494V200.14H9.0879V195.122Z" fill="#494E74"/>
<path d="M9.59043 204.017C7.42715 204.017 5.6792 202.269 5.6792 200.105H7.20216C7.20216 201.421 8.27516 202.494 9.59043 202.494V204.017Z" fill="#494E74"/>
<path d="M8.32735 199.361H6.44092V200.884H8.32735V199.361Z" fill="#494E74"/>
<path d="M7.96388 199.05H6.44092V200.573H7.96388V199.05Z" fill="#494E74"/>
<path d="M24.439 195.122H22.916V199.829H24.439V195.122Z" fill="#494E74"/>
<path d="M25.9619 195.122H24.439V199.829H25.9619V195.122Z" fill="#494E74"/>
<path d="M24.1279 195.122H22.605V200.14H24.1279V195.122Z" fill="#494E74"/>
<path d="M22.1201 204.017V202.494C23.4354 202.494 24.5084 201.421 24.5084 200.105H26.0314C26.0314 202.269 24.2834 204.017 22.1201 204.017Z" fill="#494E74"/>
<path d="M25.2007 199.05H23.6777V200.573H25.2007V199.05Z" fill="#494E74"/>
<path d="M25.2007 199.361H23.3662V200.884H25.2007V199.361Z" fill="#494E74"/>
<path d="M22.0864 229.803H9.55664V231.326H22.0864V229.803Z" fill="#494E74"/>
<path d="M15.8719 246.971C11.2858 246.971 7.56494 243.25 7.56494 238.664H9.0879C9.0879 242.402 12.1338 245.448 15.8719 245.448C19.6101 245.448 22.6561 242.402 22.6561 238.664H24.1789C24.1789 243.25 20.4581 246.971 15.8719 246.971Z" fill="#494E74"/>
<path d="M15.8724 247.283C11.1132 247.283 7.25391 243.423 7.25391 238.664H8.77687C8.77687 242.575 11.9612 245.76 15.8724 245.76C19.7836 245.76 22.968 242.575 22.968 238.664H24.491C24.491 243.423 20.6316 247.283 15.8724 247.283Z" fill="#494E74"/>
<path d="M15.8734 248.806C10.2835 248.806 5.73193 244.254 5.73193 238.664H7.25489C7.25489 243.423 11.1142 247.283 15.8734 247.283C20.6326 247.283 24.492 243.423 24.492 238.664H26.0148C26.0148 244.254 21.4633 248.806 15.8734 248.806Z" fill="#494E74"/>
<path d="M8.72511 233.991H7.20215V238.698H8.72511V233.991Z" fill="#494E74"/>
<path d="M7.20216 233.991H5.6792V238.698H7.20216V233.991Z" fill="#494E74"/>
<path d="M9.0879 233.68H7.56494V238.698H9.0879V233.68Z" fill="#494E74"/>
<path d="M7.20216 233.645H5.6792C5.6792 231.482 7.42715 229.734 9.59043 229.734V231.257C8.27516 231.257 7.20216 232.33 7.20216 233.645Z" fill="#494E74"/>
<path d="M8.32735 232.918H6.44092V234.441H8.32735V232.918Z" fill="#494E74"/>
<path d="M7.96388 233.23H6.44092V234.753H7.96388V233.23Z" fill="#494E74"/>
<path d="M24.439 233.991H22.916V238.698H24.439V233.991Z" fill="#494E74"/>
<path d="M25.9619 233.991H24.439V238.698H25.9619V233.991Z" fill="#494E74"/>
<path d="M24.1279 233.68H22.605V238.698H24.1279V233.68Z" fill="#494E74"/>
<path d="M26.0314 233.645H24.5084C24.5084 232.33 23.4354 231.257 22.1201 231.257V229.734C24.2834 229.734 26.0314 231.482 26.0314 233.645Z" fill="#494E74"/>
<path d="M25.2007 233.23H23.6777V234.753H25.2007V233.23Z" fill="#494E74"/>
<path d="M25.2007 232.918H23.3662V234.441H25.2007V232.918Z" fill="#494E74"/>
<path d="M102.204 135.678L84.7183 140.931L85.1564 142.39L102.643 137.137L102.204 135.678Z" fill="#494E74"/>
<path d="M97.1779 161.893C92.1591 161.893 87.5037 158.623 85.998 153.586L87.469 153.154C89.0785 158.519 94.7551 161.565 100.103 159.938C105.468 158.328 108.514 152.652 106.887 147.304L108.358 146.872C110.209 153.033 106.714 159.557 100.535 161.409C99.4105 161.738 98.2855 161.911 97.1779 161.911V161.893Z" fill="#494E74"/>
<path d="M97.1775 162.396C91.951 162.396 87.1051 158.986 85.5303 153.742L87.0014 153.31C88.6974 158.917 94.6334 162.119 100.241 160.423C102.958 159.609 105.208 157.775 106.54 155.265C107.873 152.756 108.167 149.883 107.353 147.166L108.825 146.733C109.759 149.849 109.43 153.137 107.89 155.992C106.35 158.848 103.788 160.942 100.673 161.876C99.5137 162.223 98.337 162.396 97.1775 162.396Z" fill="#494E74"/>
<path d="M97.1428 164.662C94.7891 164.662 92.4701 164.074 90.3414 162.932C86.9494 161.115 84.4745 158.069 83.3496 154.382L84.8207 153.95C85.8072 157.255 88.0223 159.955 91.0682 161.599C94.0968 163.226 97.5927 163.589 100.881 162.586C104.186 161.599 106.886 159.384 108.53 156.338C110.157 153.309 110.52 149.814 109.517 146.525L110.988 146.093C112.095 149.779 111.697 153.69 109.88 157.082C108.063 160.474 105.017 162.949 101.331 164.074C99.9637 164.489 98.5446 164.697 97.1601 164.697L97.1428 164.662Z" fill="#494E74"/>
<path d="M106.79 140.208L105.333 140.648L107.288 147.126L108.746 146.686L106.79 140.208Z" fill="#494E74"/>
<path d="M108.927 139.576L107.472 140.025L109.487 146.557L110.942 146.108L108.927 139.576Z" fill="#494E74"/>
<path d="M106.256 139.903L104.796 140.338L106.874 147.304L108.334 146.868L106.256 139.903Z" fill="#494E74"/>
<path d="M107.388 139.534C107.094 138.565 106.454 137.769 105.554 137.284C104.654 136.799 103.633 136.695 102.664 136.99L102.231 135.519C103.598 135.103 105.035 135.259 106.281 135.934C107.527 136.609 108.444 137.734 108.859 139.084L107.388 139.516V139.534Z" fill="#494E74"/>
<path d="M107.851 138.661L105.288 139.454L105.738 140.909L108.301 140.116L107.851 138.661Z" fill="#494E74"/>
<path d="M108.004 139L105.857 139.674L106.314 141.127L108.46 140.453L108.004 139Z" fill="#494E74"/>
<path d="M84.9641 146.799L83.5088 147.248L85.5234 153.78L86.9787 153.331L84.9641 146.799Z" fill="#494E74"/>
<path d="M82.8395 147.407L81.3804 147.843L83.3341 154.376L84.7932 153.94L82.8395 147.407Z" fill="#494E74"/>
<path d="M85.2919 146.142L83.835 146.585L85.9768 153.622L87.4338 153.178L85.2919 146.142Z" fill="#494E74"/>
<path d="M81.2565 147.426C80.8411 146.058 80.9969 144.622 81.6718 143.376C82.3467 142.13 83.4717 141.213 84.8216 140.797L85.2542 142.268C84.2851 142.563 83.489 143.203 83.0044 144.103C82.5198 145.003 82.4159 146.024 82.7101 146.993L81.2391 147.426H81.2565Z" fill="#494E74"/>
<path d="M84.0597 146.182L81.9131 146.796L82.3316 148.26L84.4782 147.647L84.0597 146.182Z" fill="#494E74"/>
<path d="M84.3107 145.684L81.748 146.477L82.1981 147.931L84.7608 147.139L84.3107 145.684Z" fill="#494E74"/>
<path d="M134.784 112.141L119.873 122.528L120.743 123.777L135.654 113.391L134.784 112.141Z" fill="#494E74"/>
<path d="M134.524 139.344C133.831 139.344 133.122 139.274 132.412 139.153C129.349 138.599 126.684 136.886 124.901 134.325L126.165 133.459C127.705 135.692 130.024 137.18 132.689 137.665C135.354 138.149 138.054 137.561 140.269 136.021C142.502 134.48 143.99 132.161 144.475 129.496C144.959 126.831 144.371 124.131 142.831 121.916L144.094 121.051C147.763 126.347 146.448 133.632 141.152 137.301C139.179 138.669 136.877 139.378 134.524 139.378V139.344Z" fill="#494E74"/>
<path d="M134.524 139.845C133.797 139.845 133.071 139.776 132.326 139.655C129.125 139.084 126.356 137.284 124.504 134.619L125.767 133.754C127.394 136.09 129.817 137.648 132.603 138.167C135.39 138.669 138.228 138.063 140.564 136.436C142.9 134.809 144.458 132.386 144.977 129.6C145.479 126.797 144.873 123.976 143.247 121.639L144.51 120.774C146.362 123.439 147.054 126.675 146.483 129.877C145.912 133.079 144.112 135.848 141.447 137.699C139.387 139.119 136.999 139.863 134.542 139.863L134.524 139.845Z" fill="#494E74"/>
<path d="M134.542 142.095C133.676 142.095 132.811 142.026 131.946 141.853C128.155 141.161 124.85 139.049 122.669 135.882L123.933 135.017C125.888 137.855 128.848 139.741 132.24 140.365C135.632 140.97 139.058 140.243 141.879 138.27C144.718 136.315 146.604 133.355 147.227 129.963C147.833 126.571 147.106 123.145 145.133 120.324L146.396 119.458C148.594 122.626 149.425 126.45 148.733 130.24C148.04 134.03 145.929 137.336 142.762 139.516C140.322 141.212 137.484 142.095 134.576 142.095H134.542Z" fill="#494E74"/>
<path d="M140.59 115.162L139.338 116.029L143.191 121.592L144.443 120.725L140.59 115.162Z" fill="#494E74"/>
<path d="M142.442 113.975L141.191 114.845L145.105 120.471L146.355 119.601L142.442 113.975Z" fill="#494E74"/>
<path d="M139.917 115.014L138.666 115.882L142.82 121.868L144.071 121L139.917 115.014Z" fill="#494E74"/>
<path d="M140.979 114.388C140.408 113.557 139.543 113.003 138.539 112.813C137.535 112.64 136.531 112.848 135.701 113.436L134.835 112.173C135.995 111.359 137.414 111.065 138.816 111.307C140.218 111.567 141.429 112.346 142.243 113.505L140.979 114.371V114.388Z" fill="#494E74"/>
<path d="M141.137 113.276L138.872 114.868L139.747 116.114L142.013 114.522L141.137 113.276Z" fill="#494E74"/>
<path d="M141.355 113.643L139.527 114.984L140.427 116.212L142.256 114.872L141.355 113.643Z" fill="#494E74"/>
<path d="M121.906 128.117L120.654 128.984L124.506 134.548L125.759 133.681L121.906 128.117Z" fill="#494E74"/>
<path d="M120.013 129.548L118.763 130.418L122.676 136.044L123.926 135.175L120.013 129.548Z" fill="#494E74"/>
<path d="M122.026 127.511L120.769 128.371L124.862 134.357L126.119 133.497L122.026 127.511Z" fill="#494E74"/>
<path d="M118.533 129.911C117.719 128.752 117.425 127.333 117.667 125.931C117.927 124.529 118.706 123.318 119.865 122.504L120.73 123.768C119.9 124.339 119.346 125.204 119.156 126.208C118.965 127.212 119.19 128.215 119.761 129.046L118.498 129.911H118.533Z" fill="#494E74"/>
<path d="M120.843 128.103L118.952 129.384L119.807 130.645L121.698 129.363L120.843 128.103Z" fill="#494E74"/>
<path d="M120.952 127.242L118.687 128.833L119.562 130.08L121.828 128.488L120.952 127.242Z" fill="#494E74"/>
<path d="M172.304 172.468C172.304 172.468 172.183 172.468 172.114 172.451L160.813 169.578C160.623 169.526 160.45 169.405 160.346 169.232C160.242 169.059 160.207 168.851 160.259 168.66L171.803 123.318C171.906 122.903 172.322 122.66 172.737 122.764L184.038 125.637C184.228 125.689 184.401 125.81 184.505 125.983C184.609 126.156 184.644 126.364 184.592 126.554L173.049 171.897C172.962 172.243 172.651 172.468 172.304 172.468ZM161.938 168.28L171.768 170.772L182.948 126.9L173.118 124.408L161.938 168.28Z" fill="#494E74"/>
<path d="M41.1237 130.725C32.0899 130.725 24.752 123.37 24.752 114.353C24.752 105.337 32.1072 97.9814 41.1237 97.9814C50.1403 97.9814 57.4954 105.337 57.4954 114.353C57.4954 123.37 50.1403 130.725 41.1237 130.725ZM41.1237 99.5044C32.9379 99.5044 26.2749 106.167 26.2749 114.353C26.2749 122.539 32.9379 129.202 41.1237 129.202C49.3096 129.202 55.9725 122.539 55.9725 114.353C55.9725 106.167 49.3096 99.5044 41.1237 99.5044Z" fill="#494E74"/>
<path d="M66.4764 127.194C62.098 127.194 57.7368 125.775 54.0852 122.954L55.0197 121.743C61.4922 126.727 70.3531 126.969 77.0852 122.366C83.8173 117.745 86.7767 109.386 84.475 101.564C82.156 93.7412 75.1296 88.3416 66.9611 88.1339C58.7752 87.9263 51.5066 92.9624 48.7895 100.664L47.353 100.162C50.2778 91.8375 58.1867 86.4033 67.0129 86.6283C75.8391 86.8533 83.4539 92.6855 85.946 101.148C88.4554 109.611 85.2365 118.645 77.9678 123.646C74.4893 126.035 70.4915 127.212 66.4938 127.212L66.4764 127.194Z" fill="#494E74"/>
<path d="M143.489 115.669H141.966V43.1553H120.853V41.6323H142.728C143.143 41.6323 143.489 41.9785 143.489 42.3938V115.669Z" fill="#494E74"/>
<path d="M142.727 152.912H110.762V151.389H141.965V138.582H143.488V152.15C143.488 152.565 143.142 152.912 142.727 152.912Z" fill="#494E74"/>
<path d="M83.073 152.912H-38.0017C-38.4171 152.912 -38.7632 152.566 -38.7632 152.15V42.3938C-38.7632 41.9785 -38.4171 41.6323 -38.0017 41.6323H-15.6247V43.1553H-37.2229V151.389H83.0903V152.912H83.073Z" fill="#494E74"/>
<path d="M403.88 113.401H389.654C389.447 109.542 389.187 105.752 389.066 101.962C388.529 82.9594 388.374 63.9398 387.422 44.9549C386.418 24.9834 383.164 16.5726 363.349 15.1015C355.474 14.5131 347.548 14.3747 339.639 14.3574C288.586 14.2881 -785.528 14.3227 -836.582 14.3227H-848.956V346.396C-845.512 346.638 -842.743 347.019 -839.956 347.019C-792.485 347.053 304.888 347.157 352.342 346.984C381.33 346.88 387.543 335.51 388.114 306.505C388.426 291.137 388.166 275.751 388.166 259.726H403.049V451.704H388.218C388.218 438.603 388.218 425.797 388.218 412.99C388.218 409.408 388.218 405.808 388.045 402.225C386.903 375.816 382.749 365.311 356.392 364.948C305.702 364.238 -794.926 364.706 -845.616 364.723C-846.602 364.723 -847.589 365.277 -849.112 365.727V899.383H-760.192V913.868H-973.474V899.677H-923.875V14.5823H-973.803V0.581543H403.88V113.384V113.401Z" fill="#494E74"/>
</svg>
