<svg width="405" height="469" viewBox="0 0 405 469" fill="none" xmlns="http://www.w3.org/2000/svg">
<mask id="mask0_1_8864" style="mask-type:luminance" maskUnits="userSpaceOnUse" x="0" y="0" width="405" height="469">
<path d="M0 469L404.967 469L404.967 0L0 0L0 469Z" fill="white"/>
</mask>
<g mask="url(#mask0_1_8864)">
<path d="M212.504 76.9485L211.708 77.7439L213.507 79.5428L214.303 78.7474L212.504 76.9485Z" fill="#494E74"/>
<path d="M213.078 74.6684L210.331 77.4766L212.15 79.2556L214.897 76.4474L213.078 74.6684Z" fill="#494E74"/>
<path d="M213.686 72.2525L208.913 77.0251L210.712 78.824L215.485 74.0514L213.686 72.2525Z" fill="#494E74"/>
<path d="M214.275 69.9255L207.496 76.7051L209.295 78.504L216.074 71.7244L214.275 69.9255Z" fill="#494E74"/>
<path d="M214.894 67.5619L206.096 76.3606L207.895 78.1595L216.693 69.3608L214.894 67.5619Z" fill="#494E74"/>
<path d="M215.525 65.3122L204.712 76.0613L206.506 77.8655L217.319 67.1164L215.525 65.3122Z" fill="#494E74"/>
<path d="M216.058 62.8963L203.35 75.6665L205.153 77.461L217.861 64.6908L216.058 62.8963Z" fill="#494E74"/>
<path d="M216.676 60.5148L201.942 75.2485L203.741 77.0474L218.475 62.3136L216.676 60.5148Z" fill="#494E74"/>
<path d="M217.31 58.2392L200.559 75.043L202.361 76.839L219.112 60.0352L217.31 58.2392Z" fill="#494E74"/>
<path d="M217.873 55.8117L199.113 74.5715L200.912 76.3704L219.672 57.6106L217.873 55.8117Z" fill="#494E74"/>
<path d="M218.505 53.4358L197.725 74.2148L199.524 76.0137L220.303 55.2347L218.505 53.4358Z" fill="#494E74"/>
<path d="M219.036 51.0986L196.299 73.8357L198.097 75.6346L220.835 52.8975L219.036 51.0986Z" fill="#494E74"/>
<path d="M219.669 48.7829L195.403 73.0496L197.202 74.8485L221.468 50.5818L219.669 48.7829Z" fill="#494E74"/>
<path d="M220.262 46.4008L195.934 70.7288L197.733 72.5277L222.061 48.1997L220.262 46.4008Z" fill="#494E74"/>
<path d="M220.874 44.0444L196.554 68.3059L198.35 70.107L222.671 45.8455L220.874 44.0444Z" fill="#494E74"/>
<path d="M221.489 41.6843L197.161 66.0122L198.96 67.8111L223.288 43.4832L221.489 41.6843Z" fill="#494E74"/>
<path d="M222.039 39.3639L197.773 63.6306L199.572 65.4295L223.838 41.1628L222.039 39.3639Z" fill="#494E74"/>
<path d="M222.68 37.0625L198.414 61.3792L200.215 63.1762L224.481 38.8595L222.68 37.0625Z" fill="#494E74"/>
<path d="M223.254 34.6194L198.933 58.8809L200.73 60.682L225.051 36.4205L223.254 34.6194Z" fill="#494E74"/>
<path d="M223.875 32.2656L199.547 56.5935L201.346 58.3924L225.674 34.0645L223.875 32.2656Z" fill="#494E74"/>
<path d="M224.498 29.955L200.171 54.283L201.969 56.0819L226.297 31.7539L224.498 29.955Z" fill="#494E74"/>
<path d="M224.616 28.0742L200.778 51.9126L202.576 53.7115L226.415 29.8731L224.616 28.0742Z" fill="#494E74"/>
<path d="M222.899 28.0643L201.386 49.5776L203.185 51.3765L224.698 29.8632L222.899 28.0643Z" fill="#494E74"/>
<path d="M221.095 27.9518L201.901 47.0854L203.698 48.8872L222.891 29.7535L221.095 27.9518Z" fill="#494E74"/>
<path d="M219.356 28.0708L202.554 44.8728L204.353 46.6717L221.155 29.8697L219.356 28.0708Z" fill="#494E74"/>
<path d="M217.665 28.1396L203.18 42.5591L204.975 44.3621L219.46 29.9425L217.665 28.1396Z" fill="#494E74"/>
<path d="M215.879 28.0635L203.776 40.1663L205.575 41.9652L217.678 29.8624L215.879 28.0635Z" fill="#494E74"/>
<path d="M214.094 28.0728L204.377 37.7893L206.176 39.5882L215.893 29.8717L214.094 28.0728Z" fill="#494E74"/>
<path d="M212.405 28.0703L204.947 35.4685L206.739 37.2746L214.196 29.8763L212.405 28.0703Z" fill="#494E74"/>
<path d="M210.602 27.9883L204.735 33.7959L206.525 35.6039L212.392 29.7963L210.602 27.9883Z" fill="#494E74"/>
<path d="M208.9 27.9996L203.033 33.8071L204.823 35.6151L210.69 29.8075L208.9 27.9996Z" fill="#494E74"/>
<path d="M207.127 27.9953L201.261 33.803L203.05 35.611L208.917 29.8033L207.127 27.9953Z" fill="#494E74"/>
<path d="M205.35 28.0801L199.55 33.8806L201.349 35.6795L207.149 29.879L205.35 28.0801Z" fill="#494E74"/>
<path d="M203.639 27.9973L197.773 33.8049L199.562 35.6129L205.429 29.8053L203.639 27.9973Z" fill="#494E74"/>
<path d="M201.864 27.9932L195.997 33.8008L197.787 35.6088L203.654 29.8012L201.864 27.9932Z" fill="#494E74"/>
<path d="M200.104 28.0671L194.303 33.8677L196.102 35.6666L201.902 29.866L200.104 28.0671Z" fill="#494E74"/>
<path d="M198.388 28.0003L192.521 33.8079L194.311 35.6158L200.177 29.8083L198.388 28.0003Z" fill="#494E74"/>
<path d="M196.603 28.008L190.736 33.8157L192.526 35.6237L198.393 29.816L196.603 28.008Z" fill="#494E74"/>
<path d="M194.842 28.0664L189.042 33.8669L190.841 35.6658L196.641 29.8653L194.842 28.0664Z" fill="#494E74"/>
<path d="M193.127 27.9978L187.261 33.8054L189.05 35.6134L194.917 29.8058L193.127 27.9978Z" fill="#494E74"/>
<path d="M191.352 27.9937L185.485 33.8013L187.275 35.6092L193.142 29.8017L191.352 27.9937Z" fill="#494E74"/>
<path d="M189.583 28.0657L183.782 33.8662L185.581 35.6651L191.382 29.8646L189.583 28.0657Z" fill="#494E74"/>
<path d="M187.866 27.9956L181.999 33.8032L183.789 35.6112L189.656 29.8036L187.866 27.9956Z" fill="#494E74"/>
<path d="M186.108 27.9914L180.241 33.7991L182.031 35.6071L187.898 29.7994L186.108 27.9914Z" fill="#494E74"/>
<path d="M184.322 28.0825L178.521 33.8831L180.32 35.682L186.12 29.8814L184.322 28.0825Z" fill="#494E74"/>
<path d="M182.614 27.9985L176.748 33.8062L178.537 35.6141L184.404 29.8065L182.614 27.9985Z" fill="#494E74"/>
<path d="M180.847 28.0066L174.98 33.8142L176.77 35.6222L182.637 29.8146L180.847 28.0066Z" fill="#494E74"/>
<path d="M179.074 28.0696L173.273 33.8701L175.072 35.669L180.872 29.8685L179.074 28.0696Z" fill="#494E74"/>
<path d="M177.37 27.9963L171.504 33.804L173.293 35.6119L179.16 29.8043L177.37 27.9963Z" fill="#494E74"/>
<path d="M175.584 28.0042L169.718 33.8118L171.508 35.6197L177.374 29.8122L175.584 28.0042Z" fill="#494E74"/>
<path d="M173.878 27.9861L168.011 33.7937L169.801 35.6017L175.667 29.794L173.878 27.9861Z" fill="#494E74"/>
<path d="M172.109 27.994L166.242 33.8015L168.032 35.6095L173.899 29.8019L172.109 27.994Z" fill="#494E74"/>
<path d="M170.349 28.0711L164.549 33.8716L166.348 35.6705L172.148 29.87L170.349 28.0711Z" fill="#494E74"/>
<path d="M168.616 28.001L162.75 33.8086L164.539 35.6166L170.406 29.8089L168.616 28.001Z" fill="#494E74"/>
<path d="M166.847 28.009L160.98 33.8167L162.77 35.6246L168.637 29.817L166.847 28.009Z" fill="#494E74"/>
<path d="M165.088 28.0703L159.287 33.8708L161.086 35.6697L166.887 29.8692L165.088 28.0703Z" fill="#494E74"/>
<path d="M163.371 27.9988L157.505 33.8064L159.294 35.6144L165.161 29.8068L163.371 27.9988Z" fill="#494E74"/>
<path d="M161.597 27.9946L155.73 33.8022L157.52 35.6102L163.387 29.8026L161.597 27.9946Z" fill="#494E74"/>
<path d="M159.829 28.0696L154.028 33.8701L155.827 35.669L161.628 29.8685L159.829 28.0696Z" fill="#494E74"/>
<path d="M158.109 27.9966L152.242 33.8042L154.032 35.6122L159.899 29.8045L158.109 27.9966Z" fill="#494E74"/>
<path d="M156.336 27.9925L150.469 33.8L152.259 35.608L158.125 29.8005L156.336 27.9925Z" fill="#494E74"/>
<path d="M154.58 28.0739L148.779 33.8745L150.578 35.6734L156.379 29.8728L154.58 28.0739Z" fill="#494E74"/>
<path d="M152.859 27.9993L146.992 33.8069L148.782 35.6149L154.649 29.8073L152.859 27.9993Z" fill="#494E74"/>
<path d="M151.073 28.0075L145.207 33.8152L146.996 35.6232L152.863 29.8155L151.073 28.0075Z" fill="#494E74"/>
<path d="M149.32 28.0735L143.52 33.874L145.319 35.6729L151.119 29.8724L149.32 28.0735Z" fill="#494E74"/>
<path d="M147.598 27.9973L141.731 33.8049L143.521 35.6129L149.388 29.8053L147.598 27.9973Z" fill="#494E74"/>
<path d="M145.824 27.993L139.957 33.8005L141.747 35.6085L147.613 29.801L145.824 27.993Z" fill="#494E74"/>
<path d="M144.059 28.0728L138.259 33.8733L140.058 35.6722L145.858 29.8717L144.059 28.0728Z" fill="#494E74"/>
<path d="M142.336 27.9949L136.469 33.8025L138.259 35.6105L144.125 29.8028L142.336 27.9949Z" fill="#494E74"/>
<path d="M140.562 27.9907L134.696 33.7983L136.485 35.6063L142.352 29.7987L140.562 27.9907Z" fill="#494E74"/>
<path d="M138.86 28.0019L132.993 33.8096L134.783 35.6175L140.65 29.8099L138.86 28.0019Z" fill="#494E74"/>
<path d="M137.086 27.9978L131.219 33.8054L133.009 35.6134L138.876 29.8058L137.086 27.9978Z" fill="#494E74"/>
<path d="M135.318 28.0742L129.517 33.8748L131.316 35.6737L137.116 29.8731L135.318 28.0742Z" fill="#494E74"/>
<path d="M133.598 27.9998L127.731 33.8074L129.521 35.6154L135.388 29.8078L133.598 27.9998Z" fill="#494E74"/>
<path d="M131.825 27.9956L125.958 33.8032L127.748 35.6112L133.614 29.8036L131.825 27.9956Z" fill="#494E74"/>
<path d="M130.071 28.0613L124.27 33.8618L126.069 35.6607L131.87 29.8602L130.071 28.0613Z" fill="#494E74"/>
<path d="M128.348 28.0027L122.481 33.8103L124.271 35.6183L130.138 29.8106L128.348 28.0027Z" fill="#494E74"/>
<path d="M126.579 28.0106L120.712 33.8181L122.502 35.6261L128.368 29.8185L126.579 28.0106Z" fill="#494E74"/>
<path d="M124.809 28.0606L119.009 33.8611L120.808 35.66L126.608 29.8595L124.809 28.0606Z" fill="#494E74"/>
<path d="M123.087 28.0002L117.22 33.8079L119.01 35.6158L124.877 29.8082L123.087 28.0002Z" fill="#494E74"/>
<path d="M121.317 28.0083L115.451 33.8159L117.24 35.6239L123.107 29.8163L121.317 28.0083Z" fill="#494E74"/>
<path d="M119.55 28.0772L113.749 33.8777L115.548 35.6766L121.349 29.8761L119.55 28.0772Z" fill="#494E74"/>
<path d="M117.824 27.9981L111.958 33.8057L113.748 35.6136L119.614 29.8061L117.824 27.9981Z" fill="#494E74"/>
<path d="M116.069 27.9939L110.202 33.8015L111.992 35.6095L117.858 29.8019L116.069 27.9939Z" fill="#494E74"/>
<path d="M114.289 28.0767L108.488 33.8772L110.287 35.6761L116.088 29.8756L114.289 28.0767Z" fill="#494E74"/>
<path d="M112.58 28.0132L106.713 33.8208L108.503 35.6288L114.369 29.8211L112.58 28.0132Z" fill="#494E74"/>
<path d="M110.807 28.009L104.94 33.8167L106.73 35.6246L112.597 29.817L110.807 28.009Z" fill="#494E74"/>
<path d="M109.041 28.0638L103.24 33.8643L105.039 35.6632L110.84 29.8626L109.041 28.0638Z" fill="#494E74"/>
<path d="M107.331 27.9988L101.464 33.8064L103.254 35.6144L109.12 29.8068L107.331 27.9988Z" fill="#494E74"/>
<path d="M105.544 28.0068L99.6772 33.8145L101.467 35.6224L107.334 29.8148L105.544 28.0068Z" fill="#494E74"/>
<path d="M103.843 28.0007L97.976 33.8083L99.7658 35.6163L105.633 29.8087L103.843 28.0007Z" fill="#494E74"/>
<path d="M102.068 27.9966L96.2008 33.8042L97.9906 35.6122L103.857 29.8045L102.068 27.9966Z" fill="#494E74"/>
<path d="M100.3 28.0652L94.4996 33.8657L96.2985 35.6646L102.099 29.8641L100.3 28.0652Z" fill="#494E74"/>
<path d="M98.593 28.0034L92.7263 33.811L94.516 35.619L100.383 29.8114L98.593 28.0034Z" fill="#494E74"/>
<path d="M96.8062 28.0115L90.9395 33.8191L92.7292 35.6271L98.5959 29.8194L96.8062 28.0115Z" fill="#494E74"/>
<path d="M95.0388 28.0645L89.2383 33.865L91.0372 35.6639L96.8377 29.8634L95.0388 28.0645Z" fill="#494E74"/>
<path d="M93.3297 28.0012L87.463 33.8088L89.2528 35.6168L95.1195 29.8092L93.3297 28.0012Z" fill="#494E74"/>
<path d="M91.5574 27.9971L85.6907 33.8047L87.4804 35.6127L93.3472 29.805L91.5574 27.9971Z" fill="#494E74"/>
<path d="M89.7795 28.081L83.9789 33.8816L85.7778 35.6805L91.5784 29.8799L89.7795 28.081Z" fill="#494E74"/>
<path d="M88.0693 27.9991L82.2027 33.8066L83.9925 35.6146L89.8591 29.8071L88.0693 27.9991Z" fill="#494E74"/>
<path d="M86.2942 27.9949L80.4274 33.8025L82.2172 35.6105L88.0839 29.8028L86.2942 27.9949Z" fill="#494E74"/>
<path d="M84.5296 28.0681L78.7291 33.8687L80.528 35.6675L86.3285 29.867L84.5296 28.0681Z" fill="#494E74"/>
<path d="M82.8196 28.0019L76.9529 33.8096L78.7426 35.6175L84.6094 29.8099L82.8196 28.0019Z" fill="#494E74"/>
<path d="M81.0327 28.0098L75.1661 33.8174L76.9558 35.6254L82.8225 29.8178L81.0327 28.0098Z" fill="#494E74"/>
<path d="M79.2702 28.0674L73.4697 33.8679L75.2686 35.6668L81.0691 29.8663L79.2702 28.0674Z" fill="#494E74"/>
<path d="M77.5564 27.9995L71.6896 33.8071L73.4794 35.6151L79.3461 29.8075L77.5564 27.9995Z" fill="#494E74"/>
<path d="M75.8004 27.9953L69.9337 33.803L71.7234 35.611L77.5901 29.8033L75.8004 27.9953Z" fill="#494E74"/>
<path d="M74.0089 28.0669L68.2084 33.8674L70.0073 35.6663L75.8078 29.8658L74.0089 28.0669Z" fill="#494E74"/>
<path d="M72.296 27.9973L66.4293 33.8049L68.2191 35.6129L74.0858 29.8053L72.296 27.9973Z" fill="#494E74"/>
<path d="M70.5399 27.9932L64.6733 33.8008L66.463 35.6088L72.3297 29.8012L70.5399 27.9932Z" fill="#494E74"/>
<path d="M68.8195 28.0044L62.9529 33.812L64.7426 35.62L70.6093 29.8124L68.8195 28.0044Z" fill="#494E74"/>
<path d="M67.0463 28.0002L61.1796 33.8079L62.9693 35.6158L68.8361 29.8082L67.0463 28.0002Z" fill="#494E74"/>
<path d="M65.2846 28.0684L59.4841 33.8689L61.283 35.6678L67.0835 29.8673L65.2846 28.0684Z" fill="#494E74"/>
<path d="M63.5583 28.0022L57.6915 33.8098L59.4813 35.6178L65.348 29.8102L63.5583 28.0022Z" fill="#494E74"/>
<path d="M61.8022 27.9981L55.9355 33.8057L57.7253 35.6136L63.592 29.8061L61.8022 27.9981Z" fill="#494E74"/>
<path d="M60.0252 28.085L54.2247 33.8855L56.0236 35.6844L61.8241 29.8839L60.0252 28.085Z" fill="#494E74"/>
<path d="M58.3084 28.0049L52.4418 33.8125L54.2315 35.6205L60.0982 29.8129L58.3084 28.0049Z" fill="#494E74"/>
<path d="M56.539 28.0129L50.6723 33.8206L52.4621 35.6285L58.3288 29.8209L56.539 28.0129Z" fill="#494E74"/>
<path d="M54.7765 28.0721L48.976 33.8726L50.7748 35.6715L56.5754 29.8709L54.7765 28.0721Z" fill="#494E74"/>
<path d="M53.0626 28.0027L47.1959 33.8103L48.9856 35.6183L54.8524 29.8106L53.0626 28.0027Z" fill="#494E74"/>
<path d="M51.2777 28.0107L45.411 33.8184L47.2008 35.6263L53.0675 29.8187L51.2777 28.0107Z" fill="#494E74"/>
<path d="M49.5171 28.0713L43.7166 33.8718L45.5154 35.6707L51.316 29.8702L49.5171 28.0713Z" fill="#494E74"/>
<path d="M47.8013 28.0005L41.9346 33.8081L43.7243 35.6161L49.5911 29.8084L47.8013 28.0005Z" fill="#494E74"/>
<path d="M46.027 27.9963L40.1603 33.804L41.95 35.6119L47.8168 29.8043L46.027 27.9963Z" fill="#494E74"/>
<path d="M44.2558 28.0708L38.4552 33.8713L40.2541 35.6702L46.0547 29.8697L44.2558 28.0708Z" fill="#494E74"/>
<path d="M42.5399 28.0157L36.6732 33.8232L38.463 35.6312L44.3296 29.8237L42.5399 28.0157Z" fill="#494E74"/>
<path d="M40.7657 28.0115L34.8989 33.8191L36.6887 35.6271L42.5554 29.8194L40.7657 28.0115Z" fill="#494E74"/>
<path d="M39.0079 28.0752L33.2074 33.8757L35.0063 35.6746L40.8068 29.8741L39.0079 28.0752Z" fill="#494E74"/>
<path d="M37.2892 28.0012L31.4225 33.8088L33.2123 35.6168L39.079 29.8092L37.2892 28.0012Z" fill="#494E74"/>
<path d="M35.5043 28.0091L29.6376 33.8167L31.4274 35.6246L37.2941 29.8171L35.5043 28.0091Z" fill="#494E74"/>
<path d="M33.8012 28.0032L27.9345 33.8108L29.7243 35.6188L35.591 29.8111L33.8012 28.0032Z" fill="#494E74"/>
<path d="M32.0278 27.9988L26.1612 33.8064L27.951 35.6144L33.8176 29.8068L32.0278 27.9988Z" fill="#494E74"/>
<path d="M30.2663 28.0594L24.4658 33.8599L26.2647 35.6588L32.0652 29.8583L30.2663 28.0594Z" fill="#494E74"/>
<path d="M28.5515 28.0058L22.6848 33.8135L24.4745 35.6215L30.3412 29.8138L28.5515 28.0058Z" fill="#494E74"/>
<path d="M26.7666 28.0139L20.8998 33.8215L22.6896 35.6295L28.5563 29.8219L26.7666 28.0139Z" fill="#494E74"/>
<path d="M25.006 28.076L19.2054 33.8765L21.0043 35.6754L26.8048 29.8749L25.006 28.076Z" fill="#494E74"/>
<path d="M23.2901 28.0037L17.4235 33.8113L19.2132 35.6193L25.0799 29.8117L23.2901 28.0037Z" fill="#494E74"/>
<path d="M21.5158 27.9995L15.6491 33.8071L17.4389 35.6151L23.3056 29.8075L21.5158 27.9995Z" fill="#494E74"/>
<path d="M19.7466 28.0752L13.946 33.8757L15.7449 35.6746L21.5454 29.8741L19.7466 28.0752Z" fill="#494E74"/>
<path d="M18.0288 28.0014L12.1621 33.8091L13.9519 35.6171L19.8186 29.8094L18.0288 28.0014Z" fill="#494E74"/>
<path d="M16.2718 27.9974L10.4052 33.8049L12.1949 35.6129L18.0616 29.8053L16.2718 27.9974Z" fill="#494E74"/>
<path d="M14.4969 28.0622L8.69629 33.8628L10.4952 35.6617L16.2958 29.8611L14.4969 28.0622Z" fill="#494E74"/>
<path d="M12.778 28.0042L6.91138 33.8118L8.70115 35.6197L14.5678 29.8122L12.778 28.0042Z" fill="#494E74"/>
<path d="M11.0105 28.0124L5.1438 33.8201L6.93357 35.628L12.8003 29.8204L11.0105 28.0124Z" fill="#494E74"/>
<path d="M9.2374 28.0618L3.43689 33.8623L5.23579 35.6612L11.0363 29.8607L9.2374 28.0618Z" fill="#494E74"/>
<path d="M7.51681 28.0022L1.65009 33.8098L3.43985 35.6178L9.30658 29.8102L7.51681 28.0022Z" fill="#494E74"/>
<path d="M5.76069 27.9979L-0.105957 33.8054L1.68381 35.6134L7.55046 29.8058L5.76069 27.9979Z" fill="#494E74"/>
<path d="M3.97604 28.0782L-1.82446 33.8787L-0.0255661 35.6776L5.77494 29.8771L3.97604 28.0782Z" fill="#494E74"/>
<path d="M2.27279 27.9997L-3.59393 33.8074L-1.80416 35.6154L4.06256 29.8077L2.27279 27.9997Z" fill="#494E74"/>
<path d="M0.4985 27.9956L-5.36823 33.8032L-3.57846 35.6112L2.28827 29.8036L0.4985 27.9956Z" fill="#494E74"/>
<path d="M-1.22098 28.0068L-7.08771 33.8145L-5.29794 35.6224L0.568787 29.8148L-1.22098 28.0068Z" fill="#494E74"/>
<path d="M126.751 286.021H-69.623V288.565H126.751V286.021Z" fill="#494E74"/>
<path d="M136.027 283.65H-69.623V286.194H136.027V283.65Z" fill="#494E74"/>
<path d="M158.004 290.871L156.541 292.272L158.301 294.109L159.763 292.708L158.004 290.871Z" fill="#494E74"/>
<path d="M158.61 288.416L154.816 292.209L156.615 294.008L160.409 290.215L158.61 288.416Z" fill="#494E74"/>
<path d="M159.213 285.954L153.04 292.067L154.83 293.874L161.003 287.761L159.213 285.954Z" fill="#494E74"/>
<path d="M159.834 283.754L151.275 292.253L153.068 294.058L161.627 285.559L159.834 283.754Z" fill="#494E74"/>
<path d="M160.386 281.376L149.568 292.194L151.367 293.993L162.185 283.175L160.386 281.376Z" fill="#494E74"/>
<path d="M160.999 278.987L147.795 292.191L149.594 293.99L162.798 280.786L160.999 278.987Z" fill="#494E74"/>
<path d="M161.583 276.599L146.002 292.126L147.798 293.928L163.379 278.401L161.583 276.599Z" fill="#494E74"/>
<path d="M162.222 274.305L144.319 292.208L146.117 294.007L164.021 276.104L162.222 274.305Z" fill="#494E74"/>
<path d="M162.816 271.847L142.519 292.08L144.315 293.882L164.612 273.649L162.816 271.847Z" fill="#494E74"/>
<path d="M163.369 269.626L140.763 292.176L142.56 293.977L165.165 271.427L163.369 269.626Z" fill="#494E74"/>
<path d="M163.987 267.27L139.048 292.21L140.847 294.009L165.786 269.069L163.987 267.27Z" fill="#494E74"/>
<path d="M164.581 264.856L137.263 292.117L139.06 293.918L166.378 266.657L164.581 264.856Z" fill="#494E74"/>
<path d="M165.22 262.484L135.513 292.129L137.31 293.93L167.017 264.285L165.22 262.484Z" fill="#494E74"/>
<path d="M165.763 260.232L141.496 284.499L143.295 286.297L167.562 262.031L165.763 260.232Z" fill="#494E74"/>
<path d="M139.658 286.331L133.791 292.139L135.581 293.947L141.447 288.139L139.658 286.331Z" fill="#494E74"/>
<path d="M166.386 257.947L142.12 282.264L143.921 284.061L168.187 259.744L166.386 257.947Z" fill="#494E74"/>
<path d="M137.884 286.31L132.017 292.117L133.807 293.925L139.673 288.118L137.884 286.31Z" fill="#494E74"/>
<path d="M166.973 255.54L137.824 284.689L139.623 286.488L168.772 257.338L166.973 255.54Z" fill="#494E74"/>
<path d="M136.106 286.413L130.305 292.213L132.104 294.012L137.904 288.212L136.106 286.413Z" fill="#494E74"/>
<path d="M167.6 253.159L128.551 292.209L130.35 294.008L169.399 254.958L167.6 253.159Z" fill="#494E74"/>
<path d="M168.036 251.017L143.219 275.835L145.018 277.634L169.835 252.816L168.036 251.017Z" fill="#494E74"/>
<path d="M134.779 284.207L126.776 292.21L128.575 294.009L136.578 286.006L134.779 284.207Z" fill="#494E74"/>
<path d="M166.614 250.647L144.427 272.833L146.226 274.632L168.413 252.446L166.614 250.647Z" fill="#494E74"/>
<path d="M131.778 285.501L125.059 292.22L126.858 294.019L133.576 287.3L131.778 285.501Z" fill="#494E74"/>
<path d="M165.2 250.215L145.089 270.389L146.891 272.185L167.002 252.011L165.2 250.215Z" fill="#494E74"/>
<path d="M129.464 286.043L123.296 292.211L125.095 294.01L131.263 287.842L129.464 286.043Z" fill="#494E74"/>
<path d="M163.811 249.928L145.663 268.076L147.462 269.875L165.61 251.727L163.811 249.928Z" fill="#494E74"/>
<path d="M127.419 286.266L121.491 292.135L123.281 293.943L129.209 288.074L127.419 286.266Z" fill="#494E74"/>
<path d="M162.397 249.621L146.268 265.75L148.067 267.548L164.196 251.419L162.397 249.621Z" fill="#494E74"/>
<path d="M125.596 286.399L119.796 292.2L121.595 293.999L127.395 288.198L125.596 286.399Z" fill="#494E74"/>
<path d="M161.051 249.326L146.872 263.441L148.667 265.244L162.845 251.129L161.051 249.326Z" fill="#494E74"/>
<path d="M123.884 286.33L118.018 292.137L119.807 293.945L125.674 288.138L123.884 286.33Z" fill="#494E74"/>
<path d="M159.638 248.875L147.475 261.039L149.273 262.838L161.437 250.674L159.638 248.875Z" fill="#494E74"/>
<path d="M122.115 286.337L116.248 292.145L118.038 293.953L123.905 288.145L122.115 286.337Z" fill="#494E74"/>
<path d="M158.234 248.501L148.089 258.646L149.888 260.445L160.033 250.3L158.234 248.501Z" fill="#494E74"/>
<path d="M120.337 286.399L114.536 292.199L116.335 293.998L122.136 288.198L120.337 286.399Z" fill="#494E74"/>
<path d="M156.826 248.139L148.639 256.326L150.438 258.125L158.625 249.938L156.826 248.139Z" fill="#494E74"/>
<path d="M118.64 286.327L112.774 292.135L114.563 293.943L120.43 288.135L118.64 286.327Z" fill="#494E74"/>
<path d="M155.414 247.849L149.246 254.017L151.045 255.815L157.212 249.648L155.414 247.849Z" fill="#494E74"/>
<path d="M116.866 286.323L110.999 292.131L112.789 293.939L118.656 288.131L116.866 286.323Z" fill="#494E74"/>
<path d="M154.022 247.463L149.861 251.623L151.66 253.422L155.82 249.261L154.022 247.463Z" fill="#494E74"/>
<path d="M115.076 286.415L109.275 292.216L111.074 294.015L116.875 288.214L115.076 286.415Z" fill="#494E74"/>
<path d="M152.678 247.086L150.476 249.289L152.275 251.088L154.477 248.885L152.678 247.086Z" fill="#494E74"/>
<path d="M113.378 286.325L107.511 292.133L109.301 293.941L115.168 288.133L113.378 286.325Z" fill="#494E74"/>
<path d="M151.273 246.743L151.09 246.926L152.887 248.726L153.071 248.543L151.273 246.743Z" fill="#494E74"/>
<path d="M111.605 286.321L105.738 292.128L107.528 293.936L113.395 288.129L111.605 286.321Z" fill="#494E74"/>
<path d="M109.829 286.402L104.028 292.203L105.827 294.002L111.628 288.201L109.829 286.402Z" fill="#494E74"/>
<path d="M108.128 286.328L102.262 292.135L104.051 293.943L109.918 288.136L108.128 286.328Z" fill="#494E74"/>
<path d="M106.342 286.336L100.475 292.144L102.265 293.951L108.131 288.144L106.342 286.336Z" fill="#494E74"/>
<path d="M104.64 286.33L98.7737 292.137L100.563 293.945L106.43 288.138L104.64 286.33Z" fill="#494E74"/>
<path d="M102.867 286.326L97.0004 292.133L98.7901 293.941L104.657 288.134L102.867 286.326Z" fill="#494E74"/>
<path d="M101.087 286.404L95.2867 292.204L97.0855 294.003L102.886 288.203L101.087 286.404Z" fill="#494E74"/>
<path d="M179.589 206.209L178.365 207.433L180.164 209.232L181.388 208.008L179.589 206.209Z" fill="#494E74"/>
<path d="M99.3907 286.315L93.5239 292.123L95.3137 293.931L101.18 288.123L99.3907 286.315Z" fill="#494E74"/>
<path d="M180.18 203.82L176.998 207.002L178.797 208.801L181.978 205.619L180.18 203.82Z" fill="#494E74"/>
<path d="M97.6038 286.323L91.7371 292.131L93.5269 293.939L99.3935 288.131L97.6038 286.323Z" fill="#494E74"/>
<path d="M180.742 201.512L175.603 206.652L177.401 208.451L182.541 203.311L180.742 201.512Z" fill="#494E74"/>
<path d="M95.826 286.403L90.0254 292.204L91.8242 294.003L97.6248 288.202L95.826 286.403Z" fill="#494E74"/>
<path d="M181.349 199.119L174.203 206.266L176.002 208.065L183.148 200.918L181.349 199.119Z" fill="#494E74"/>
<path d="M94.1293 286.331L88.2626 292.138L90.0524 293.946L95.919 288.139L94.1293 286.331Z" fill="#494E74"/>
<path d="M181.938 196.809L172.773 205.975L174.572 207.774L183.737 198.608L181.938 196.809Z" fill="#494E74"/>
<path d="M92.3551 286.326L86.4883 292.134L88.2781 293.942L94.1448 288.134L92.3551 286.326Z" fill="#494E74"/>
<path d="M182.57 194.416L171.385 205.601L173.184 207.4L184.369 196.215L182.57 194.416Z" fill="#494E74"/>
<path d="M90.5838 286.403L84.7833 292.203L86.5822 294.002L92.3827 288.201L90.5838 286.403Z" fill="#494E74"/>
<path d="M183.161 191.993L169.964 205.13L171.759 206.933L184.956 193.796L183.161 191.993Z" fill="#494E74"/>
<path d="M88.8671 286.328L83.0004 292.136L84.7901 293.944L90.6568 288.136L88.8671 286.328Z" fill="#494E74"/>
<path d="M183.729 189.688L168.635 204.845L170.438 206.64L185.532 191.483L183.729 189.688Z" fill="#494E74"/>
<path d="M87.0936 286.324L81.227 292.132L83.0167 293.94L88.8834 288.132L87.0936 286.324Z" fill="#494E74"/>
<path d="M184.339 187.398L167.231 204.506L169.03 206.305L186.138 189.197L184.339 187.398Z" fill="#494E74"/>
<path d="M85.3225 286.402L79.522 292.202L81.3208 294.001L87.1213 288.201L85.3225 286.402Z" fill="#494E74"/>
<path d="M184.927 184.93L165.793 204.123L167.595 205.919L186.728 186.726L184.927 184.93Z" fill="#494E74"/>
<path d="M83.6173 286.314L77.7505 292.121L79.5403 293.929L85.407 288.122L83.6173 286.314Z" fill="#494E74"/>
<path d="M185.548 182.683L164.402 203.83L166.201 205.628L187.347 184.482L185.548 182.683Z" fill="#494E74"/>
<path d="M81.8478 286.322L75.9811 292.129L77.7708 293.937L83.6375 288.13L81.8478 286.322Z" fill="#494E74"/>
<path d="M186.163 180.34L163.006 203.44L164.803 205.242L187.96 182.141L186.163 180.34Z" fill="#494E74"/>
<path d="M80.0746 286.406L74.2741 292.207L76.073 294.006L81.8735 288.205L80.0746 286.406Z" fill="#494E74"/>
<path d="M186.743 178.061L162.477 202.378L164.278 204.175L188.544 179.858L186.743 178.061Z" fill="#494E74"/>
<path d="M78.354 286.329L72.4873 292.136L74.277 293.944L80.1438 288.137L78.354 286.329Z" fill="#494E74"/>
<path d="M187.322 175.649L163.055 199.916L164.854 201.715L189.121 177.448L187.322 175.649Z" fill="#494E74"/>
<path d="M76.5865 286.337L70.7198 292.145L72.5095 293.952L78.3762 288.145L76.5865 286.337Z" fill="#494E74"/>
<path d="M187.932 173.268L163.604 197.595L165.403 199.394L189.731 175.066L187.932 173.268Z" fill="#494E74"/>
<path d="M74.8133 286.406L69.0128 292.206L70.8117 294.005L76.6122 288.204L74.8133 286.406Z" fill="#494E74"/>
<path d="M188.547 170.906L164.227 195.167L166.023 196.969L190.344 172.707L188.547 170.906Z" fill="#494E74"/>
<path d="M73.0937 286.327L67.227 292.134L69.0167 293.942L74.8834 288.135L73.0937 286.327Z" fill="#494E74"/>
<path d="M189.171 168.563L164.843 192.891L166.642 194.69L190.97 170.362L189.171 168.563Z" fill="#494E74"/>
<path d="M71.3377 286.322L65.4709 292.13L67.2607 293.938L73.1274 288.13L71.3377 286.322Z" fill="#494E74"/>
<path d="M189.724 166.321L165.458 190.638L167.259 192.435L191.525 168.118L189.724 166.321Z" fill="#494E74"/>
<path d="M69.6173 286.316L63.7505 292.124L65.5403 293.932L71.407 288.124L69.6173 286.316Z" fill="#494E74"/>
<path d="M190.343 163.958L166.077 188.274L167.878 190.071L192.143 165.755L190.343 163.958Z" fill="#494E74"/>
<path d="M67.8486 286.324L61.982 292.132L63.7717 293.94L69.6384 288.132L67.8486 286.324Z" fill="#494E74"/>
<path d="M190.925 161.538L166.597 185.866L168.396 187.665L192.724 163.337L190.925 161.538Z" fill="#494E74"/>
<path d="M66.0727 286.407L60.2722 292.208L62.071 294.006L67.8715 288.206L66.0727 286.407Z" fill="#494E74"/>
<path d="M191.535 159.187L167.214 183.448L169.011 185.249L193.332 160.988L191.535 159.187Z" fill="#494E74"/>
<path d="M64.3559 286.331L58.4892 292.139L60.2789 293.947L66.1457 288.139L64.3559 286.331Z" fill="#494E74"/>
<path d="M192.152 156.822L167.824 181.15L169.623 182.949L193.951 158.621L192.152 156.822Z" fill="#494E74"/>
<path d="M62.5999 286.327L56.7332 292.135L58.5229 293.943L64.3897 288.135L62.5999 286.327Z" fill="#494E74"/>
<path d="M192.713 154.513L168.447 178.78L170.246 180.579L194.512 156.312L192.713 154.513Z" fill="#494E74"/>
<path d="M60.8133 286.407L55.0128 292.207L56.8117 294.006L62.6122 288.205L60.8133 286.407Z" fill="#494E74"/>
<path d="M193.341 152.218L169.075 176.534L170.876 178.331L195.142 154.015L193.341 152.218Z" fill="#494E74"/>
<path d="M59.1109 286.329L53.2443 292.137L55.034 293.945L60.9006 288.137L59.1109 286.329Z" fill="#494E74"/>
<path d="M193.932 149.786L169.611 174.048L171.408 175.849L195.728 151.587L193.932 149.786Z" fill="#494E74"/>
<path d="M57.3367 286.325L51.47 292.133L53.2597 293.941L59.1264 288.133L57.3367 286.325Z" fill="#494E74"/>
<path d="M194.551 147.415L170.223 171.743L172.022 173.542L196.35 149.214L194.551 147.415Z" fill="#494E74"/>
<path d="M55.5635 286.393L49.763 292.194L51.5619 293.993L57.3624 288.192L55.5635 286.393Z" fill="#494E74"/>
<path d="M195.145 145.084L170.824 169.345L172.621 171.146L196.942 146.885L195.145 145.084Z" fill="#494E74"/>
<path d="M53.8622 286.332L47.9955 292.14L49.7852 293.948L55.6519 288.14L53.8622 286.332Z" fill="#494E74"/>
<path d="M195.718 142.804L171.453 167.121L173.253 168.918L197.519 144.601L195.718 142.804Z" fill="#494E74"/>
<path d="M52.0753 286.323L46.2086 292.13L47.9983 293.938L53.865 288.131L52.0753 286.323Z" fill="#494E74"/>
<path d="M196.341 140.478L172.075 164.794L173.876 166.591L198.142 142.275L196.341 140.478Z" fill="#494E74"/>
<path d="M50.3042 286.41L44.5036 292.211L46.3025 294.01L52.103 288.209L50.3042 286.41Z" fill="#494E74"/>
<path d="M196.931 138.037L172.61 162.299L174.407 164.1L198.728 139.838L196.931 138.037Z" fill="#494E74"/>
<path d="M48.5989 286.33L42.7322 292.137L44.522 293.945L50.3886 288.138L48.5989 286.33Z" fill="#494E74"/>
<path d="M197.543 135.686L173.215 160.014L175.014 161.813L199.342 137.485L197.543 135.686Z" fill="#494E74"/>
<path d="M46.8266 286.326L40.9598 292.133L42.7496 293.941L48.6163 288.134L46.8266 286.326Z" fill="#494E74"/>
<path d="M198.152 133.347L173.831 157.608L175.628 159.409L199.949 135.148L198.152 133.347Z" fill="#494E74"/>
<path d="M45.0428 286.409L39.2423 292.21L41.0412 294.009L46.8417 288.208L45.0428 286.409Z" fill="#494E74"/>
<path d="M198.718 131.064L174.453 155.381L176.254 157.178L200.519 132.861L198.718 131.064Z" fill="#494E74"/>
<path d="M43.3376 286.327L37.4709 292.135L39.2606 293.943L45.1273 288.135L43.3376 286.327Z" fill="#494E74"/>
<path d="M199.307 128.661L175.041 152.928L176.84 154.727L201.106 130.46L199.307 128.661Z" fill="#494E74"/>
<path d="M41.5632 286.323L35.6966 292.131L37.4863 293.939L43.353 288.131L41.5632 286.323Z" fill="#494E74"/>
<path d="M199.918 126.279L175.59 150.607L177.389 152.406L201.717 128.078L199.918 126.279Z" fill="#494E74"/>
<path d="M39.795 286.396L33.9944 292.197L35.7933 293.996L41.5939 288.195L39.795 286.396Z" fill="#494E74"/>
<path d="M200.532 123.922L176.211 148.184L178.007 149.985L202.328 125.723L200.532 123.922Z" fill="#494E74"/>
<path d="M38.0888 286.33L32.2221 292.138L34.0118 293.946L39.8785 288.138L38.0888 286.33Z" fill="#494E74"/>
<path d="M201.145 121.563L176.817 145.89L178.616 147.689L202.944 123.361L201.145 121.563Z" fill="#494E74"/>
<path d="M36.302 286.338L30.4353 292.146L32.225 293.954L38.0918 288.146L36.302 286.338Z" fill="#494E74"/>
<path d="M199.902 120.957L177.42 143.509L179.222 145.305L201.703 122.753L199.902 120.957Z" fill="#494E74"/>
<path d="M34.6009 286.332L28.7341 292.14L30.5239 293.948L36.3906 288.14L34.6009 286.332Z" fill="#494E74"/>
<path d="M198.487 120.574L178.009 141.116L179.811 142.912L200.288 122.37L198.487 120.574Z" fill="#494E74"/>
<path d="M32.8256 286.328L26.9589 292.136L28.7486 293.944L34.6153 288.136L32.8256 286.328Z" fill="#494E74"/>
<path d="M197.107 120.338L178.592 138.854L180.391 140.652L198.906 122.137L197.107 120.338Z" fill="#494E74"/>
<path d="M31.0544 286.398L25.2538 292.198L27.0527 293.997L32.8532 288.197L31.0544 286.398Z" fill="#494E74"/>
<path d="M195.755 119.903L179.193 136.406L180.989 138.209L197.551 121.705L195.755 119.903Z" fill="#494E74"/>
<path d="M29.351 286.318L23.4843 292.125L25.274 293.933L31.1407 288.126L29.351 286.318Z" fill="#494E74"/>
<path d="M194.363 119.605L179.812 134.156L181.611 135.954L196.161 121.404L194.363 119.605Z" fill="#494E74"/>
<path d="M27.5642 286.326L21.6975 292.133L23.4872 293.941L29.354 288.134L27.5642 286.326Z" fill="#494E74"/>
<path d="M192.947 119.261L180.416 131.792L182.214 133.591L194.745 121.06L192.947 119.261Z" fill="#494E74"/>
<path d="M25.793 286.397L19.9925 292.198L21.7914 293.997L27.5919 288.196L25.793 286.397Z" fill="#494E74"/>
<path d="M191.549 118.869L180.976 129.442L182.775 131.241L193.348 120.668L191.549 118.869Z" fill="#494E74"/>
<path d="M24.0878 286.333L18.2211 292.14L20.0108 293.948L25.8775 288.141L24.0878 286.333Z" fill="#494E74"/>
<path d="M190.151 118.525L181.597 127.079L183.396 128.878L191.95 120.324L190.151 118.525Z" fill="#494E74"/>
<path d="M22.3154 286.329L16.4487 292.136L18.2385 293.944L24.1051 288.137L22.3154 286.329Z" fill="#494E74"/>
<path d="M188.731 118.205L182.197 124.74L183.995 126.538L190.53 120.004L188.731 118.205Z" fill="#494E74"/>
<path d="M20.5336 286.414L14.7331 292.214L16.532 294.013L22.3325 288.213L20.5336 286.414Z" fill="#494E74"/>
<path d="M187.389 117.846L182.8 122.435L184.599 124.234L189.188 119.645L187.389 117.846Z" fill="#494E74"/>
<path d="M18.8265 286.331L12.9598 292.138L14.7495 293.946L20.6162 288.138L18.8265 286.331Z" fill="#494E74"/>
<path d="M186.004 117.472L183.434 120.042L185.233 121.84L187.803 119.271L186.004 117.472Z" fill="#494E74"/>
<path d="M17.0695 286.326L11.2028 292.134L12.9926 293.942L18.8593 288.134L17.0695 286.326Z" fill="#494E74"/>
<path d="M184.576 117.11L183.964 117.722L185.763 119.521L186.375 118.909L184.576 117.11Z" fill="#494E74"/>
<path d="M15.2723 286.413L9.4718 292.214L11.2707 294.013L17.0712 288.212L15.2723 286.413Z" fill="#494E74"/>
<path d="M13.5777 286.316L7.711 292.124L9.50073 293.932L15.3675 288.124L13.5777 286.316Z" fill="#494E74"/>
<path d="M11.8082 286.324L5.94147 292.132L7.7312 293.94L13.5979 288.132L11.8082 286.324Z" fill="#494E74"/>
<path d="M10.0244 286.4L4.22394 292.201L6.0228 294L11.8233 288.199L10.0244 286.4Z" fill="#494E74"/>
<path d="M8.33175 286.331L2.46503 292.139L4.25476 293.947L10.1215 288.139L8.33175 286.331Z" fill="#494E74"/>
<path d="M6.5469 286.339L0.680176 292.147L2.46991 293.955L8.33663 288.147L6.5469 286.339Z" fill="#494E74"/>
<path d="M4.76413 286.4L-1.03638 292.2L0.762482 293.999L6.56299 288.199L4.76413 286.4Z" fill="#494E74"/>
<path d="M3.07039 286.329L-2.79626 292.136L-1.00653 293.944L4.86012 288.137L3.07039 286.329Z" fill="#494E74"/>
<path d="M1.29806 286.325L-4.56866 292.132L-2.77893 293.94L3.08779 288.133L1.29806 286.325Z" fill="#494E74"/>
<path d="M-0.423388 286.319L-6.29004 292.126L-4.50031 293.934L1.36634 288.127L-0.423388 286.319Z" fill="#494E74"/>
<path d="M141.895 286.021H135.664V288.565H141.895V286.021Z" fill="#494E74"/>
<path d="M126.786 288.582V286.038C135.145 286.038 142.414 280.379 144.473 272.297L146.948 272.92C144.594 282.144 136.305 288.582 126.786 288.582Z" fill="#494E74"/>
<path d="M136.236 288.409L135.181 286.09C138.001 284.792 140.511 282.836 142.467 280.431L144.439 282.023C142.242 284.74 139.403 286.938 136.236 288.392V288.409Z" fill="#494E74"/>
<path d="M190.129 33.4875H-100.842V36.0316H190.129V33.4875Z" fill="#494E74"/>
<path d="M206.257 33.4875H190.128V36.0316H206.257V33.4875Z" fill="#494E74"/>
<path d="M200.996 50.6207C199.819 44.1481 195.544 38.662 189.574 35.9103L190.629 33.5913C197.362 36.6718 202.173 42.8675 203.505 50.1534L200.996 50.6034V50.6207Z" fill="#494E74"/>
<path d="M205.066 34.4955L201.091 50.1455L203.557 50.7717L207.532 35.1218L205.066 34.4955Z" fill="#494E74"/>
<path d="M142.247 280.987L140.716 287.044L143.183 287.667L144.713 281.61L142.247 280.987Z" fill="#494E74"/>
<path d="M200.809 121.86L178.813 208.088L181.279 208.717L203.274 122.489L200.809 121.86Z" fill="#494E74"/>
<path d="M167.876 251.687L157.363 292.87L159.828 293.5L170.341 252.316L167.876 251.687Z" fill="#494E74"/>
<path d="M158.525 291.836H-69.623V294.38H158.525V291.836Z" fill="#494E74"/>
<path d="M214.408 79.0896L211.933 78.4492L224.238 30.234H-106.416V42.5906H-108.96V27.6899H227.509L214.408 79.0896Z" fill="#494E74"/>
<path d="M196.55 73.2635L195.92 75.7283L212.906 80.0674L213.536 77.6025L196.55 73.2635Z" fill="#494E74"/>
<path d="M185.3 116.635L184.681 119.103L201.736 123.381L202.355 120.913L185.3 116.635Z" fill="#494E74"/>
<path d="M211.937 78.4835L211.205 81.3508L213.67 81.9805L214.402 79.1132L211.937 78.4835Z" fill="#494E74"/>
<path d="M210.533 83.591L209.312 88.3521L211.777 88.9839L212.997 84.2228L210.533 83.591Z" fill="#494E74"/>
<path d="M208.764 90.6804L207.544 95.4414L210.008 96.0732L211.229 91.3122L208.764 90.6804Z" fill="#494E74"/>
<path d="M206.911 97.7629L205.691 102.524L208.155 103.156L209.376 98.3947L206.911 97.7629Z" fill="#494E74"/>
<path d="M205.174 104.956L204.013 109.661L206.482 110.27L207.644 105.566L205.174 104.956Z" fill="#494E74"/>
<path d="M203.426 112.045L202.204 116.752L204.666 117.392L205.889 112.685L203.426 112.045Z" fill="#494E74"/>
<path d="M201.553 119.135L200.882 121.946L203.356 122.537L204.028 119.726L201.553 119.135Z" fill="#494E74"/>
<path d="M221.365 146.567L197.447 140.51L198.07 138.035L219.513 143.469L238.636 68.4983L217.194 63.0122L217.817 60.5547L241.734 66.6638L221.365 146.567Z" fill="#494E74"/>
<path d="M219.946 144.178L197.95 138.623L198.573 136.148L218.112 141.098L236.248 69.9172L216.692 64.9158L217.333 62.4409L239.346 68.0828L219.946 144.178Z" fill="#494E74"/>
<path d="M218.545 141.86L198.365 136.72L198.988 134.262L216.71 138.762L233.861 71.3192L216.208 66.8022L216.848 64.3447L236.958 69.4847L218.545 141.86Z" fill="#494E74"/>
<path d="M201.039 50.0954L194.927 74.1123L197.392 74.7398L203.505 50.723L201.039 50.0954Z" fill="#494E74"/>
<path d="M183.795 117.622L161.862 203.794L164.328 204.421L186.261 118.249L183.795 117.622Z" fill="#494E74"/>
<path d="M150.747 247.177L144.334 272.171L146.798 272.803L153.211 247.809L150.747 247.177Z" fill="#494E74"/>
<path d="M152.287 246.894L151.91 248.369L168.896 252.708L169.273 251.233L152.287 246.894Z" fill="#494E74"/>
<path d="M163.351 203.445L162.974 204.92L179.96 209.26L180.337 207.784L163.351 203.445Z" fill="#494E74"/>
<path d="M170.451 255.06C170.451 255.06 170.329 255.06 170.26 255.042L168.374 254.558L168.755 253.087L169.914 253.381L181.578 207.623L180.419 207.329L180.8 205.858L182.686 206.342C183.101 206.446 183.344 206.862 183.24 207.277L171.195 254.523C171.143 254.714 171.022 254.887 170.849 254.99C170.727 255.06 170.589 255.094 170.468 255.094L170.451 255.06Z" fill="#494E74"/>
<path d="M179.356 208.265L168.296 251.72L169.772 252.095L180.832 208.64L179.356 208.265Z" fill="#494E74"/>
<path d="M177.426 207.738L166.368 251.247L167.844 251.622L178.902 208.113L177.426 207.738Z" fill="#494E74"/>
<path d="M209.614 82.8968C209.493 82.8968 209.355 82.8622 209.233 82.793L199.888 77.5318C199.715 77.428 199.576 77.2723 199.524 77.0646C199.473 76.8742 199.49 76.6665 199.594 76.4762L200.078 75.6282C200.286 75.2648 200.753 75.1436 201.117 75.334L210.462 80.5951C210.635 80.6989 210.774 80.8547 210.826 81.0623C210.877 81.2527 210.86 81.4604 210.756 81.6507L210.272 82.4988C210.133 82.7411 209.874 82.8795 209.614 82.8795V82.8968Z" fill="#494E74"/>
<path d="M198.919 84.0044C198.712 84.0044 198.521 83.9178 198.383 83.7794C198.244 83.6409 198.158 83.4333 198.158 83.2429V82.2564C198.158 81.8411 198.487 81.4949 198.919 81.4949L209.615 81.3738C210.03 81.3738 210.359 81.6853 210.393 82.0833L210.463 83.0698C210.463 83.2775 210.411 83.4851 210.255 83.6409C210.116 83.7967 209.909 83.8832 209.701 83.8832L198.937 84.0044H198.919Z" fill="#494E74"/>
<path d="M189.884 119.5C189.676 119.5 189.486 119.413 189.348 119.275C189.209 119.136 189.123 118.929 189.123 118.738V117.752C189.123 117.336 189.451 116.99 189.884 116.99L200.579 116.869C200.977 116.886 201.323 117.181 201.358 117.579L201.427 118.565C201.427 118.773 201.375 118.981 201.22 119.136C201.081 119.292 200.874 119.379 200.666 119.379L189.901 119.5H189.884Z" fill="#494E74"/>
<path d="M200.581 118.409C200.46 118.409 200.321 118.375 200.2 118.305L190.855 113.044C190.682 112.941 190.543 112.785 190.491 112.577C190.439 112.387 190.457 112.179 190.561 111.989L191.045 111.141C191.253 110.777 191.72 110.656 192.083 110.846L201.429 116.108C201.602 116.211 201.74 116.367 201.792 116.575C201.844 116.765 201.827 116.973 201.723 117.163L201.239 118.011C201.1 118.254 200.84 118.392 200.581 118.392V118.409Z" fill="#494E74"/>
<path d="M197.259 74.7376L186.199 118.193L187.674 118.568L198.735 75.1133L197.259 74.7376Z" fill="#494E74"/>
<path d="M199.168 75.2143L188.107 118.669L189.583 119.045L200.644 75.59L199.168 75.2143Z" fill="#494E74"/>
<path d="M195.377 74.1687L184.254 117.679L185.729 118.056L196.852 74.5458L195.377 74.1687Z" fill="#494E74"/>
<path d="M164.238 204.375L153.112 247.832L154.588 248.21L165.713 204.753L164.238 204.375Z" fill="#494E74"/>
<path d="M166.131 204.867L155.006 248.323L156.481 248.701L167.607 205.244L166.131 204.867Z" fill="#494E74"/>
<path d="M162.371 203.916L151.311 247.372L152.787 247.747L163.847 204.292L162.371 203.916Z" fill="#494E74"/>
<path d="M176.612 212.59C176.491 212.59 176.352 212.555 176.231 212.486L166.886 207.225C166.522 207.017 166.401 206.585 166.574 206.221L167.007 205.373C167.093 205.183 167.267 205.044 167.457 204.993C167.665 204.923 167.872 204.958 168.063 205.062L177.477 210.323C177.65 210.427 177.789 210.582 177.841 210.79C177.893 210.998 177.875 211.188 177.771 211.379L177.287 212.227C177.148 212.469 176.889 212.607 176.629 212.607L176.612 212.59Z" fill="#494E74"/>
<path d="M165.864 213.68C165.656 213.68 165.466 213.594 165.327 213.455C165.189 213.317 165.102 213.109 165.102 212.919V211.932C165.102 211.517 165.431 211.171 165.864 211.171L176.628 211.05C176.836 211.05 177.026 211.136 177.165 211.275C177.303 211.413 177.39 211.621 177.39 211.811V212.798C177.39 213.213 177.061 213.559 176.628 213.559L165.864 213.68Z" fill="#494E74"/>
<path d="M156.813 249.193C156.606 249.193 156.415 249.106 156.277 248.968C156.138 248.829 156.052 248.622 156.052 248.431V247.445C156.052 247.03 156.381 246.683 156.813 246.683L167.578 246.562C167.786 246.562 167.976 246.649 168.114 246.787C168.253 246.926 168.339 247.133 168.339 247.324V248.31C168.339 248.726 168.011 249.072 167.578 249.072L156.813 249.193Z" fill="#494E74"/>
<path d="M167.577 248.102C167.456 248.102 167.317 248.068 167.196 247.999L157.851 242.738C157.487 242.53 157.366 242.097 157.539 241.734L157.972 240.886C158.058 240.695 158.231 240.557 158.422 240.505C158.612 240.436 158.837 240.47 159.027 240.574L168.442 245.835C168.615 245.939 168.754 246.095 168.805 246.303C168.857 246.51 168.84 246.701 168.736 246.891L168.252 247.739C168.113 247.981 167.854 248.12 167.594 248.12L167.577 248.102Z" fill="#494E74"/>
<path d="M190.819 95.4758L190.438 96.9504L194.225 97.9277L194.606 96.4531L190.819 95.4758Z" fill="#494E74"/>
<path d="M157.764 225.168L157.383 226.643L161.171 227.62L161.551 226.146L157.764 225.168Z" fill="#494E74"/>
<path d="M116.853 82.4122H-19.6246C-20.04 82.4122 -20.3861 82.0661 -20.3861 81.6507V38.7485C-20.3861 38.3332 -20.04 37.9871 -19.6246 37.9871H116.853V39.51H-18.8631V80.8893H116.853V82.4122Z" fill="#494E74"/>
<path d="M109.844 81.6508H108.321V47.2805H-11.0405V81.6508H-12.5634V46.5017C-12.5634 46.0864 -12.2173 45.7402 -11.8019 45.7402H109.082C109.498 45.7402 109.844 46.0864 109.844 46.5017V81.6508Z" fill="#494E74"/>
<path d="M117.615 38.7485H116.092V81.6507H117.615V38.7485Z" fill="#494E74"/>
<path d="M77.066 247.67H-4.82727V249.193H77.066V247.67Z" fill="#494E74"/>
<path d="M85.6483 217.194H84.1253V240.609H85.6483V217.194Z" fill="#494E74"/>
<path d="M85.6496 217.176H84.1266C84.1266 213.3 80.9769 210.15 77.1003 210.15V208.627C81.8249 208.627 85.6496 212.469 85.6496 217.176Z" fill="#494E74"/>
<path d="M77.1003 249.141V247.618C80.9769 247.618 84.1266 244.468 84.1266 240.592H85.6496C85.6496 245.316 81.8076 249.141 77.1003 249.141Z" fill="#494E74"/>
<path d="M77.066 208.679H-4.82727V210.202H77.066V208.679Z" fill="#494E74"/>
<path d="M42.7641 214.476H30.1824V215.999H42.7641V214.476Z" fill="#494E74"/>
<path d="M44.824 207.087H43.301C43.301 203.348 40.255 200.303 36.5169 200.303C32.7787 200.303 29.7329 203.348 29.7329 207.087H28.2099C28.2099 202.5 31.9307 198.78 36.5169 198.78C41.1031 198.78 44.824 202.5 44.824 207.087Z" fill="#494E74"/>
<path d="M45.1362 207.087H43.6132C43.6132 203.175 40.4288 199.991 36.5176 199.991C32.6064 199.991 29.4221 203.175 29.4221 207.087H27.8991C27.8991 202.327 31.7584 198.468 36.5176 198.468C41.2768 198.468 45.1362 202.327 45.1362 207.087Z" fill="#494E74"/>
<path d="M46.6589 207.087H45.136C45.136 202.327 41.2766 198.468 36.5174 198.468C31.7581 198.468 27.8989 202.327 27.8989 207.087H26.3759C26.3759 201.497 30.9274 196.945 36.5174 196.945C42.1073 196.945 46.6589 201.497 46.6589 207.087Z" fill="#494E74"/>
<path d="M45.0665 207.121H43.5435V211.829H45.0665V207.121Z" fill="#494E74"/>
<path d="M46.6589 207.121H45.136V211.829H46.6589V207.121Z" fill="#494E74"/>
<path d="M44.7538 207.121H43.2308V212.14H44.7538V207.121Z" fill="#494E74"/>
<path d="M42.7988 216.017V214.494C44.114 214.494 45.187 213.421 45.187 212.105H46.71C46.71 214.269 44.9621 216.017 42.7988 216.017Z" fill="#494E74"/>
<path d="M45.8803 211.361H43.9938V212.884H45.8803V211.361Z" fill="#494E74"/>
<path d="M45.8969 211.05H44.3046V212.573H45.8969V211.05Z" fill="#494E74"/>
<path d="M29.4221 207.121H27.8991V211.829H29.4221V207.121Z" fill="#494E74"/>
<path d="M27.8296 207.121H26.3066V211.829H27.8296V207.121Z" fill="#494E74"/>
<path d="M29.7155 207.121H28.1926V212.14H29.7155V207.121Z" fill="#494E74"/>
<path d="M30.2179 216.017C28.0546 216.017 26.3066 214.269 26.3066 212.105H27.8296C27.8296 213.421 28.9026 214.494 30.2179 214.494V216.017Z" fill="#494E74"/>
<path d="M28.6599 211.05H27.0677V212.573H28.6599V211.05Z" fill="#494E74"/>
<path d="M28.9541 211.361H27.0677V212.884H28.9541V211.361Z" fill="#494E74"/>
<path d="M42.7641 241.803H30.1824V243.326H42.7641V241.803Z" fill="#494E74"/>
<path d="M36.5169 258.971C31.9307 258.971 28.2099 255.25 28.2099 250.664H29.7329C29.7329 254.402 32.7787 257.448 36.5169 257.448C40.255 257.448 43.301 254.402 43.301 250.664H44.824C44.824 255.25 41.1031 258.971 36.5169 258.971Z" fill="#494E74"/>
<path d="M36.5176 259.282C31.7584 259.282 27.8991 255.423 27.8991 250.664H29.4221C29.4221 254.575 32.6064 257.759 36.5176 257.759C40.4288 257.759 43.6132 254.575 43.6132 250.664H45.1362C45.1362 255.423 41.2768 259.282 36.5176 259.282Z" fill="#494E74"/>
<path d="M36.5174 260.805C30.9274 260.805 26.3759 256.254 26.3759 250.664H27.8989C27.8989 255.423 31.7581 259.282 36.5174 259.282C41.2766 259.282 45.136 255.423 45.136 250.664H46.6589C46.6589 256.254 42.1073 260.805 36.5174 260.805Z" fill="#494E74"/>
<path d="M45.0665 245.991H43.5435V250.698H45.0665V245.991Z" fill="#494E74"/>
<path d="M46.6589 245.991H45.136V250.698H46.6589V245.991Z" fill="#494E74"/>
<path d="M44.7538 245.68H43.2308V250.698H44.7538V245.68Z" fill="#494E74"/>
<path d="M46.71 245.645H45.187C45.187 244.33 44.114 243.257 42.7988 243.257V241.734C44.9621 241.734 46.71 243.482 46.71 245.645Z" fill="#494E74"/>
<path d="M45.8803 244.918H43.9938V246.441H45.8803V244.918Z" fill="#494E74"/>
<path d="M45.8969 245.23H44.3046V246.753H45.8969V245.23Z" fill="#494E74"/>
<path d="M29.4221 245.991H27.8991V250.698H29.4221V245.991Z" fill="#494E74"/>
<path d="M27.8296 245.991H26.3066V250.698H27.8296V245.991Z" fill="#494E74"/>
<path d="M29.7155 245.68H28.1926V250.698H29.7155V245.68Z" fill="#494E74"/>
<path d="M27.8296 245.645H26.3066C26.3066 243.482 28.0546 241.734 30.2179 241.734V243.257C28.9026 243.257 27.8296 244.33 27.8296 245.645Z" fill="#494E74"/>
<path d="M28.6599 245.23H27.0677V246.753H28.6599V245.23Z" fill="#494E74"/>
<path d="M28.9541 244.918H27.0677V246.441H28.9541V244.918Z" fill="#494E74"/>
<path d="M67.4089 214.476H54.8792V215.999H67.4089V214.476Z" fill="#494E74"/>
<path d="M69.4495 207.087H67.9265C67.9265 205.269 67.2169 203.573 65.9363 202.293C64.6556 201.012 62.9597 200.303 61.1425 200.303C57.4043 200.303 54.3584 203.348 54.3584 207.087H52.8355C52.8355 202.5 56.5563 198.78 61.1425 198.78C63.3577 198.78 65.4517 199.645 67.0266 201.22C68.6014 202.795 69.4668 204.871 69.4668 207.104L69.4495 207.087Z" fill="#494E74"/>
<path d="M69.7618 207.087H68.2388C68.2388 203.175 65.0545 199.991 61.1433 199.991C57.2321 199.991 54.0477 203.175 54.0477 207.087H52.5247C52.5247 202.327 56.3841 198.468 61.1433 198.468C65.9025 198.468 69.7618 202.327 69.7618 207.087Z" fill="#494E74"/>
<path d="M71.2855 207.087H69.7626C69.7626 202.327 65.9033 198.468 61.1441 198.468C56.3848 198.468 52.5255 202.327 52.5255 207.087H51.0025C51.0025 201.497 55.5541 196.945 61.1441 196.945C66.734 196.945 71.2855 201.497 71.2855 207.087Z" fill="#494E74"/>
<path d="M69.745 207.121H68.222V211.829H69.745V207.121Z" fill="#494E74"/>
<path d="M71.2846 207.121H69.7616V211.829H71.2846V207.121Z" fill="#494E74"/>
<path d="M69.3823 207.121H67.8593V212.14H69.3823V207.121Z" fill="#494E74"/>
<path d="M67.4427 216.017V214.494C68.758 214.494 69.831 213.421 69.831 212.105H71.3539C71.3539 214.269 69.606 216.017 67.4427 216.017Z" fill="#494E74"/>
<path d="M70.5058 211.361H68.6194V212.884H70.5058V211.361Z" fill="#494E74"/>
<path d="M70.5244 211.05H69.0015V212.573H70.5244V211.05Z" fill="#494E74"/>
<path d="M54.0477 207.121H52.5247V211.829H54.0477V207.121Z" fill="#494E74"/>
<path d="M52.5255 207.121H51.0025V211.829H52.5255V207.121Z" fill="#494E74"/>
<path d="M54.3584 207.121H52.8355V212.14H54.3584V207.121Z" fill="#494E74"/>
<path d="M54.9137 216.017C52.7505 216.017 51.0025 214.269 51.0025 212.105H52.5255C52.5255 213.421 53.5985 214.494 54.9137 214.494V216.017Z" fill="#494E74"/>
<path d="M53.2875 211.05H51.7646V212.573H53.2875V211.05Z" fill="#494E74"/>
<path d="M53.599 211.361H51.7646V212.884H53.599V211.361Z" fill="#494E74"/>
<path d="M67.4089 241.803H54.8792V243.326H67.4089V241.803Z" fill="#494E74"/>
<path d="M61.1425 258.971C56.5563 258.971 52.8355 255.25 52.8355 250.664H54.3584C54.3584 254.402 57.4043 257.448 61.1425 257.448C62.9597 257.448 64.6556 256.738 65.9363 255.458C67.2169 254.177 67.9265 252.481 67.9265 250.664H69.4495C69.4495 252.879 68.5841 254.973 67.0092 256.548C65.4344 258.123 63.3577 258.988 61.1252 258.988L61.1425 258.971Z" fill="#494E74"/>
<path d="M61.1433 259.282C56.3841 259.282 52.5247 255.423 52.5247 250.664H54.0477C54.0477 254.575 57.2321 257.759 61.1433 257.759C65.0545 257.759 68.2388 254.575 68.2388 250.664H69.7618C69.7618 255.423 65.9025 259.282 61.1433 259.282Z" fill="#494E74"/>
<path d="M61.1441 260.805C55.5541 260.805 51.0025 256.254 51.0025 250.664H52.5255C52.5255 255.423 56.3848 259.282 61.1441 259.282C65.9033 259.282 69.7626 255.423 69.7626 250.664H71.2855C71.2855 256.254 66.734 260.805 61.1441 260.805Z" fill="#494E74"/>
<path d="M69.745 245.991H68.222V250.698H69.745V245.991Z" fill="#494E74"/>
<path d="M71.2846 245.991H69.7616V250.698H71.2846V245.991Z" fill="#494E74"/>
<path d="M69.3823 245.68H67.8593V250.698H69.3823V245.68Z" fill="#494E74"/>
<path d="M71.3539 245.645H69.831C69.831 244.33 68.758 243.257 67.4427 243.257V241.734C69.606 241.734 71.3539 243.482 71.3539 245.645Z" fill="#494E74"/>
<path d="M70.5058 244.918H68.6194V246.441H70.5058V244.918Z" fill="#494E74"/>
<path d="M70.5244 245.23H69.0015V246.753H70.5244V245.23Z" fill="#494E74"/>
<path d="M54.0477 245.991H52.5247V250.698H54.0477V245.991Z" fill="#494E74"/>
<path d="M52.5255 245.991H51.0025V250.698H52.5255V245.991Z" fill="#494E74"/>
<path d="M54.3584 245.68H52.8355V250.698H54.3584V245.68Z" fill="#494E74"/>
<path d="M52.5255 245.645H51.0025C51.0025 243.482 52.7505 241.734 54.9137 241.734V243.257C53.5985 243.257 52.5255 244.33 52.5255 245.645Z" fill="#494E74"/>
<path d="M53.2875 245.23H51.7646V246.753H53.2875V245.23Z" fill="#494E74"/>
<path d="M53.599 244.918H51.7646V246.441H53.599V244.918Z" fill="#494E74"/>
<path d="M18.0865 214.476H5.55676V215.999H18.0865V214.476Z" fill="#494E74"/>
<path d="M20.1963 207.087H18.6734C18.6734 203.348 15.6275 200.303 11.8893 200.303C8.15117 200.303 5.1053 203.348 5.1053 207.087H3.58234C3.58234 202.5 7.30316 198.78 11.8893 198.78C16.4755 198.78 20.1963 202.5 20.1963 207.087Z" fill="#494E74"/>
<path d="M20.4913 207.087H18.9683C18.9683 203.175 15.7839 199.991 11.8727 199.991C7.96148 199.991 4.77717 203.175 4.77717 207.087H3.25421C3.25421 202.327 7.11348 198.468 11.8727 198.468C16.6319 198.468 20.4913 202.327 20.4913 207.087Z" fill="#494E74"/>
<path d="M22.0313 207.087H20.5084C20.5084 202.327 16.6491 198.468 11.8899 198.468C7.13064 198.468 3.27137 202.327 3.27137 207.087H1.74841C1.74841 201.497 6.29994 196.945 11.8899 196.945C17.4798 196.945 22.0313 201.497 22.0313 207.087Z" fill="#494E74"/>
<path d="M4.72523 207.121H3.20227V211.829H4.72523V207.121Z" fill="#494E74"/>
<path d="M3.2021 207.121H1.67914V211.829H3.2021V207.121Z" fill="#494E74"/>
<path d="M5.08796 207.121H3.565V212.14H5.08796V207.121Z" fill="#494E74"/>
<path d="M5.59037 216.017C3.42709 216.017 1.67914 214.269 1.67914 212.105H3.2021C3.2021 213.421 4.2751 214.494 5.59037 214.494V216.017Z" fill="#494E74"/>
<path d="M4.32759 211.361H2.44116V212.884H4.32759V211.361Z" fill="#494E74"/>
<path d="M3.96412 211.05H2.44116V212.573H3.96412V211.05Z" fill="#494E74"/>
<path d="M20.439 207.121H18.916V211.829H20.439V207.121Z" fill="#494E74"/>
<path d="M21.9621 207.121H20.4391V211.829H21.9621V207.121Z" fill="#494E74"/>
<path d="M20.1282 207.121H18.6052V212.14H20.1282V207.121Z" fill="#494E74"/>
<path d="M18.1202 216.017V214.494C19.4355 214.494 20.5085 213.421 20.5085 212.105H22.0315C22.0315 214.269 20.2835 216.017 18.1202 216.017Z" fill="#494E74"/>
<path d="M21.201 211.05H19.678V212.573H21.201V211.05Z" fill="#494E74"/>
<path d="M21.2007 211.361H19.3663V212.884H21.2007V211.361Z" fill="#494E74"/>
<path d="M18.0865 241.803H5.55676V243.326H18.0865V241.803Z" fill="#494E74"/>
<path d="M11.872 258.971C7.28583 258.971 3.565 255.25 3.565 250.664H5.08796C5.08796 254.402 8.13384 257.448 11.872 257.448C15.6101 257.448 18.6561 254.402 18.6561 250.664H20.179C20.179 255.25 16.4582 258.971 11.872 258.971Z" fill="#494E74"/>
<path d="M11.8727 259.282C7.11348 259.282 3.25421 255.423 3.25421 250.664H4.77717C4.77717 254.575 7.96148 257.759 11.8727 257.759C15.7839 257.759 18.9683 254.575 18.9683 250.664H20.4913C20.4913 255.423 16.6319 259.282 11.8727 259.282Z" fill="#494E74"/>
<path d="M11.8735 260.805C6.28358 260.805 1.73206 256.254 1.73206 250.664H3.25502C3.25502 255.423 7.11428 259.282 11.8735 259.282C16.6327 259.282 20.4921 255.423 20.4921 250.664H22.015C22.015 256.254 17.4634 260.805 11.8735 260.805Z" fill="#494E74"/>
<path d="M4.72523 245.991H3.20227V250.698H4.72523V245.991Z" fill="#494E74"/>
<path d="M3.2021 245.991H1.67914V250.698H3.2021V245.991Z" fill="#494E74"/>
<path d="M5.08796 245.68H3.565V250.698H5.08796V245.68Z" fill="#494E74"/>
<path d="M3.2021 245.645H1.67914C1.67914 243.482 3.42709 241.734 5.59037 241.734V243.257C4.2751 243.257 3.2021 244.33 3.2021 245.645Z" fill="#494E74"/>
<path d="M4.32759 244.918H2.44116V246.441H4.32759V244.918Z" fill="#494E74"/>
<path d="M3.96412 245.23H2.44116V246.753H3.96412V245.23Z" fill="#494E74"/>
<path d="M20.439 245.991H18.916V250.698H20.439V245.991Z" fill="#494E74"/>
<path d="M21.9621 245.991H20.4391V250.698H21.9621V245.991Z" fill="#494E74"/>
<path d="M20.1282 245.68H18.6052V250.698H20.1282V245.68Z" fill="#494E74"/>
<path d="M22.0315 245.645H20.5085C20.5085 244.33 19.4355 243.257 18.1202 243.257V241.734C20.2835 241.734 22.0315 243.482 22.0315 245.645Z" fill="#494E74"/>
<path d="M21.201 245.23H19.678V246.753H21.201V245.23Z" fill="#494E74"/>
<path d="M21.2007 244.918H19.3663V246.441H21.2007V244.918Z" fill="#494E74"/>
<path d="M98.2044 147.678L80.7182 152.931L81.1563 154.39L98.6425 149.137L98.2044 147.678Z" fill="#494E74"/>
<path d="M93.1778 173.893C88.159 173.893 83.5036 170.622 81.9979 165.586L83.4689 165.154C85.0784 170.518 90.7549 173.564 96.1026 171.938C101.468 170.328 104.513 164.652 102.887 159.304L104.358 158.871C106.209 165.032 102.714 171.557 96.5352 173.409C95.4103 173.737 94.2854 173.91 93.1778 173.91V173.893Z" fill="#494E74"/>
<path d="M93.1775 174.395C87.951 174.395 83.1051 170.986 81.5303 165.742L83.0014 165.309C84.6974 170.917 90.6334 174.118 96.2406 172.422C98.9577 171.609 101.208 169.774 102.54 167.265C103.873 164.755 104.167 161.883 103.353 159.166L104.825 158.733C105.759 161.848 105.43 165.136 103.89 167.992C102.35 170.847 99.7884 172.941 96.6733 173.876C95.5137 174.222 94.337 174.395 93.1775 174.395Z" fill="#494E74"/>
<path d="M93.1431 176.662C90.7894 176.662 88.4704 176.074 86.3417 174.931C82.9497 173.114 80.4748 170.068 79.3499 166.382L80.821 165.95C81.8075 169.255 84.0226 171.955 87.0686 173.599C90.0971 175.226 93.593 175.589 96.8812 174.585C100.187 173.599 102.887 171.384 104.531 168.338C106.157 165.309 106.521 161.813 105.517 158.525L106.988 158.093C108.096 161.779 107.698 165.69 105.88 169.082C104.063 172.474 101.017 174.949 97.3312 176.074C95.964 176.489 94.5449 176.697 93.1604 176.697L93.1431 176.662Z" fill="#494E74"/>
<path d="M102.79 152.207L101.332 152.647L103.288 159.125L104.746 158.685L102.79 152.207Z" fill="#494E74"/>
<path d="M104.928 151.576L103.472 152.024L105.487 158.557L106.942 158.108L104.928 151.576Z" fill="#494E74"/>
<path d="M102.256 151.903L100.796 152.338L102.874 159.303L104.334 158.868L102.256 151.903Z" fill="#494E74"/>
<path d="M103.388 151.533C103.094 150.564 102.454 149.768 101.554 149.284C100.654 148.799 99.633 148.695 98.6639 148.989L98.2312 147.518C99.5984 147.103 101.035 147.259 102.281 147.934C103.527 148.609 104.444 149.734 104.86 151.083L103.388 151.516V151.533Z" fill="#494E74"/>
<path d="M103.851 150.661L101.288 151.453L101.738 152.908L104.301 152.116L103.851 150.661Z" fill="#494E74"/>
<path d="M104.004 151L101.858 151.674L102.314 153.127L104.46 152.453L104.004 151Z" fill="#494E74"/>
<path d="M80.964 158.798L79.5087 159.247L81.5233 165.78L82.9786 165.331L80.964 158.798Z" fill="#494E74"/>
<path d="M78.8394 159.407L77.3803 159.843L79.334 166.376L80.7931 165.939L78.8394 159.407Z" fill="#494E74"/>
<path d="M81.2919 158.142L79.8349 158.585L81.9767 165.622L83.4337 165.178L81.2919 158.142Z" fill="#494E74"/>
<path d="M77.2563 159.425C76.8409 158.058 76.9967 156.622 77.6716 155.375C78.3466 154.129 79.4715 153.212 80.8214 152.797L81.254 154.268C80.2849 154.562 79.4888 155.202 79.0042 156.102C78.5197 157.002 78.4157 158.023 78.7099 158.992L77.239 159.425H77.2563Z" fill="#494E74"/>
<path d="M80.06 158.182L77.9134 158.796L78.3319 160.26L80.4785 159.647L80.06 158.182Z" fill="#494E74"/>
<path d="M80.3105 157.684L77.7479 158.476L78.198 159.931L80.7606 159.138L80.3105 157.684Z" fill="#494E74"/>
<path d="M130.784 124.141L115.873 134.527L116.744 135.777L131.654 125.391L130.784 124.141Z" fill="#494E74"/>
<path d="M130.524 151.343C129.832 151.343 129.122 151.274 128.413 151.153C125.349 150.599 122.684 148.886 120.902 146.324L122.165 145.459C123.705 147.692 126.024 149.18 128.689 149.665C131.355 150.149 134.054 149.561 136.27 148.02C138.502 146.48 139.99 144.161 140.475 141.496C140.96 138.831 140.371 136.131 138.831 133.916L140.094 133.051C143.763 138.346 142.448 145.632 137.152 149.301C135.179 150.668 132.878 151.378 130.524 151.378V151.343Z" fill="#494E74"/>
<path d="M130.525 151.845C129.798 151.845 129.071 151.776 128.327 151.655C125.125 151.083 122.356 149.284 120.504 146.618L121.768 145.753C123.394 148.089 125.817 149.647 128.604 150.166C131.39 150.668 134.228 150.062 136.564 148.436C138.901 146.809 140.458 144.386 140.978 141.6C141.479 138.796 140.874 135.975 139.247 133.639L140.51 132.773C142.362 135.439 143.054 138.675 142.483 141.877C141.912 145.078 140.112 147.847 137.447 149.699C135.388 151.118 132.999 151.862 130.542 151.862L130.525 151.845Z" fill="#494E74"/>
<path d="M130.541 154.095C129.676 154.095 128.811 154.026 127.945 153.853C124.155 153.16 120.85 151.049 118.669 147.882L119.933 147.017C121.888 149.855 124.848 151.741 128.24 152.364C131.632 152.97 135.058 152.243 137.879 150.27C140.717 148.315 142.604 145.355 143.227 141.963C143.833 138.571 143.106 135.144 141.133 132.324L142.396 131.458C144.594 134.625 145.425 138.45 144.733 142.24C144.04 146.03 141.929 149.336 138.762 151.516C136.322 153.212 133.483 154.095 130.576 154.095H130.541Z" fill="#494E74"/>
<path d="M136.591 127.162L135.339 128.029L139.191 133.592L140.443 132.725L136.591 127.162Z" fill="#494E74"/>
<path d="M138.442 125.975L137.192 126.844L141.105 132.471L142.355 131.601L138.442 125.975Z" fill="#494E74"/>
<path d="M135.917 127.014L134.666 127.882L138.82 133.868L140.071 132.999L135.917 127.014Z" fill="#494E74"/>
<path d="M136.979 126.387C136.408 125.557 135.543 125.003 134.539 124.813C133.535 124.639 132.531 124.847 131.701 125.436L130.835 124.172C131.995 123.359 133.414 123.065 134.816 123.307C136.218 123.566 137.429 124.345 138.243 125.505L136.979 126.37V126.387Z" fill="#494E74"/>
<path d="M137.137 125.275L134.872 126.868L135.748 128.114L138.013 126.521L137.137 125.275Z" fill="#494E74"/>
<path d="M137.355 125.643L135.527 126.983L136.428 128.212L138.256 126.871L137.355 125.643Z" fill="#494E74"/>
<path d="M117.907 140.117L116.654 140.984L120.507 146.547L121.759 145.68L117.907 140.117Z" fill="#494E74"/>
<path d="M116.013 141.548L114.763 142.418L118.676 148.044L119.926 147.175L116.013 141.548Z" fill="#494E74"/>
<path d="M118.026 139.511L116.769 140.37L120.862 146.356L122.119 145.497L118.026 139.511Z" fill="#494E74"/>
<path d="M114.533 141.911C113.719 140.752 113.425 139.333 113.667 137.931C113.927 136.529 114.706 135.318 115.865 134.504L116.731 135.768C115.9 136.339 115.346 137.204 115.156 138.208C114.965 139.211 115.19 140.215 115.761 141.046L114.498 141.911H114.533Z" fill="#494E74"/>
<path d="M116.843 140.103L114.952 141.384L115.807 142.645L117.698 141.363L116.843 140.103Z" fill="#494E74"/>
<path d="M116.952 139.242L114.687 140.833L115.562 142.08L117.828 140.488L116.952 139.242Z" fill="#494E74"/>
<path d="M168.305 184.467C168.305 184.467 168.184 184.467 168.114 184.45L156.813 181.577C156.623 181.525 156.45 181.404 156.346 181.231C156.242 181.058 156.208 180.85 156.259 180.66L167.803 135.318C167.907 134.902 168.322 134.66 168.737 134.764L180.038 137.637C180.229 137.688 180.402 137.81 180.506 137.983C180.609 138.156 180.644 138.363 180.592 138.554L169.049 183.896C168.962 184.242 168.651 184.467 168.305 184.467ZM157.938 180.279L167.768 182.771L178.948 138.9L169.118 136.408L157.938 180.279Z" fill="#494E74"/>
<path d="M37.1237 142.725C28.0898 142.725 20.7519 135.37 20.7519 126.353C20.7519 117.336 28.1071 109.981 37.1237 109.981C46.1402 109.981 53.4953 117.336 53.4953 126.353C53.4953 135.37 46.1402 142.725 37.1237 142.725ZM37.1237 111.504C28.9378 111.504 22.2749 118.167 22.2749 126.353C22.2749 134.539 28.9378 141.202 37.1237 141.202C45.3095 141.202 51.9725 134.539 51.9725 126.353C51.9725 118.167 45.3095 111.504 37.1237 111.504Z" fill="#494E74"/>
<path d="M62.4764 139.194C58.098 139.194 53.7368 137.775 50.0852 134.954L51.0197 133.743C57.4922 138.727 66.3531 138.969 73.0852 134.366C79.8173 129.745 82.7767 121.386 80.475 113.564C78.156 105.741 71.1296 100.342 62.9611 100.134C54.7752 99.9263 47.5066 104.962 44.7895 112.664L43.353 112.162C46.2778 103.838 54.1867 98.4033 63.0129 98.6283C71.8391 98.8533 79.4539 104.686 81.946 113.148C84.4554 121.611 81.2365 130.645 73.9678 135.646C70.4893 138.035 66.4915 139.212 62.4938 139.212L62.4764 139.194Z" fill="#494E74"/>
<path d="M139.489 127.668H137.966V55.1548H116.853V53.6318H138.728C139.143 53.6318 139.489 53.978 139.489 54.3933V127.668Z" fill="#494E74"/>
<path d="M138.727 164.911H106.762V163.388H137.965V150.582H139.488V164.15C139.488 164.565 139.142 164.911 138.727 164.911Z" fill="#494E74"/>
<path d="M79.0731 164.911H-42.0016C-42.4169 164.911 -42.7631 164.565 -42.7631 164.15V54.3933C-42.7631 53.978 -42.4169 53.6318 -42.0016 53.6318H-19.6246V55.1548H-41.2228V163.388H79.0905V164.911H79.0731Z" fill="#494E74"/>
<path d="M399.88 125.401H385.654C385.447 121.542 385.187 117.752 385.066 113.962C384.529 94.9594 384.374 75.9398 383.422 56.9549C382.418 36.9834 379.164 28.5726 359.349 27.1015C351.474 26.5131 343.548 26.3747 335.639 26.3574C284.586 26.2881 -789.528 26.3227 -840.582 26.3227H-852.956V358.396C-849.512 358.638 -846.743 359.019 -843.957 359.019C-796.486 359.053 300.888 359.157 348.342 358.984C377.33 358.88 383.543 347.51 384.114 318.505C384.425 303.137 384.166 287.751 384.166 271.726H399.049V463.704H384.218C384.218 450.603 384.218 437.797 384.218 424.99C384.218 421.408 384.218 417.808 384.045 414.225C382.902 387.816 378.749 377.311 352.391 376.948C301.701 376.238 -798.926 376.706 -849.616 376.723C-850.602 376.723 -851.589 377.277 -853.112 377.727V911.383H-764.192V925.868H-977.475V911.677H-927.875V26.5823H-977.803V12.5815H399.88V125.384V125.401Z" fill="#494E74"/>
</g>
</svg>
