<svg xmlns="http://www.w3.org/2000/svg" width="712" height="852" viewBox="0 0 712 852" fill="none">
<path d="M696.246 696.938C696.063 697.722 695.947 699.655 695.864 702.456C695.448 699.672 694.849 696.855 694 694.038C692.304 688.47 690.074 684.386 687.013 681.152C681.99 675.868 675.801 673.951 668.598 675.418C665.354 676.084 662.676 677.835 660.43 680.785L649.434 675.001L650.083 667.133L650.815 667.066C651.613 666.999 652.362 666.933 653.094 666.866C654.408 666.749 655.739 666.616 657.07 666.499C660.147 666.216 663.324 665.933 666.452 665.566C670.644 665.082 675.102 665.066 680.093 665.516C684.003 665.866 687.978 666.333 691.838 666.783C693.701 666.999 695.548 667.216 697.411 667.433C697.627 667.449 697.827 667.433 698.076 667.383C698.209 667.366 698.392 667.333 698.608 667.299C698.808 667.266 698.991 667.133 699.058 666.933C699.124 666.733 699.091 666.516 698.941 666.366C698.741 666.149 698.559 665.949 698.392 665.766C698.06 665.399 697.777 665.066 697.461 664.766C694.25 661.782 690.557 659.081 685.816 656.231C684.502 655.431 683.137 654.68 681.807 653.93C681.324 653.664 680.842 653.397 680.376 653.13C672.208 648.529 663.674 648.646 654.99 653.464C654.075 653.964 653.243 654.38 652.312 654.33C653.426 650.913 661.029 636.077 663.557 632.443L665.87 633.076C666.685 633.293 667.517 633.543 668.332 633.777C670.145 634.31 672.008 634.86 673.905 635.194C678.895 636.077 683.021 634.36 685.816 630.226C687.629 627.542 689.326 624.492 690.856 621.158C694.782 612.573 697.56 603.454 699.856 595.586C699.939 595.303 699.973 595.036 700.006 594.719C700.006 594.586 700.039 594.436 700.056 594.269C700.072 594.103 700.039 593.953 699.923 593.836C699.823 593.719 699.673 593.653 699.507 593.653C699.307 593.653 699.091 593.653 698.908 593.653C698.475 593.636 698.043 593.619 697.61 593.686C684.984 595.753 673.672 600.22 664.023 607.005C659.282 610.322 654.94 614.79 650.731 620.658C649.9 621.824 649.168 623.241 648.585 624.875C647.571 627.676 648.269 629.542 650.898 631.126C653.443 632.643 656.221 632.793 658.833 632.71C659.199 632.71 659.582 632.71 659.948 632.71L650.049 648.913L645.574 640.695C647.687 636.977 647.754 632.726 645.824 627.692C644.127 623.291 641.149 619.424 636.99 616.207C628.54 609.672 619.34 606.655 609.642 607.255C603.67 607.622 597.814 609.505 592.241 612.873C591.991 613.023 591.725 613.223 591.426 613.49C591.259 613.64 591.21 613.806 591.16 613.973C591.143 614.04 591.11 614.106 591.076 614.206C591.027 614.34 591.027 614.506 591.076 614.64C591.143 614.773 591.243 614.89 591.376 614.94L591.958 615.173C592.374 615.34 592.807 615.507 593.222 615.657C599.195 617.84 603.886 619.974 607.978 622.424C611.056 624.258 613.701 626.509 616.046 629.292C618.375 632.06 620.771 634.51 623.166 636.577C627.408 640.244 632.549 642.428 638.471 643.062C639.453 643.162 640.417 643.095 641.449 643.012C641.815 642.978 642.181 642.962 642.547 642.928C644.26 645.962 645.924 649.313 646.589 653.314C646.34 653.264 646.107 653.23 645.907 653.164C645.541 653.047 645.192 652.913 644.809 652.78C644.377 652.613 643.911 652.447 643.462 652.313C639.702 651.23 636.408 649.78 633.381 647.913C628.922 645.162 623.948 643.328 618.625 642.461C614.632 641.811 611.039 641.928 607.645 642.828C602.389 644.229 598.163 647.479 595.102 652.497C594.354 653.73 593.622 654.13 592.241 654.097C591.076 654.064 589.945 654.247 588.814 654.43C588.348 654.497 587.882 654.58 587.433 654.63C587.151 654.664 586.868 654.697 586.585 654.747H586.502C586.435 654.447 586.369 654.13 586.302 653.797C586.086 652.763 585.886 651.78 585.587 650.813C582.16 639.761 574.973 632.893 564.227 630.376C561.998 629.859 559.685 629.776 557.722 629.776C517.847 629.743 477.323 629.759 438.08 629.759H412.012C412.145 629.426 412.311 629.092 412.494 628.776C412.993 627.859 413.542 626.825 413.143 625.458C413.076 625.242 412.893 625.092 412.661 625.075L411.38 624.975L415.938 616.807C416.038 616.623 416.038 616.407 415.921 616.24C414.74 614.423 413.309 613.79 411.097 614.156C403.112 615.49 394.977 616.757 387.108 617.974H387.009C383.798 618.49 380.571 618.99 377.36 619.491C374.931 619.874 372.519 620.257 370.09 620.641L369.907 620.674C365.632 621.358 361.207 622.058 356.848 622.725C355.8 622.891 355.118 623.375 354.619 624.292C354.087 625.275 353.521 626.275 352.972 627.242C352.623 627.859 352.274 628.476 351.924 629.109C351.642 629.626 351.392 629.776 351.009 629.776C349.096 629.743 347.167 629.743 345.287 629.726C344.222 629.726 343.157 629.726 342.159 629.726V629.592C342.193 629.259 342.209 628.892 342.259 628.576C342.509 627.209 342.741 625.825 342.991 624.458L343.058 624.042C343.74 620.124 344.438 616.09 345.253 612.123C346.385 606.638 345.653 601.371 343.058 596.036C341.128 592.102 338.633 588.735 335.638 586.018C334.707 585.168 333.625 584.518 332.561 583.867C332.195 583.651 331.829 583.417 331.463 583.184L331.363 583.117C330.864 582.801 330.814 582.717 330.847 582.517L332.81 574.416C333.309 574.382 333.808 574.349 334.307 574.282C340.113 573.482 344.538 569.465 346.152 563.514C347.05 560.196 347.25 556.646 346.784 552.345C346.601 550.645 346.252 548.944 345.869 547.227C344.289 539.943 338.649 535.142 330.797 534.375C328.285 534.125 325.773 534.492 323.344 535.442C323.261 535.475 314.877 538.259 312.864 546.661V546.727L312.415 551.228H312.265C311.783 551.228 311.334 551.228 310.884 551.228C308.938 551.328 307.957 552.278 307.807 554.245C307.607 556.846 308.605 558.413 311.068 559.33C311.683 559.563 312.299 559.746 312.914 559.913C313.114 559.963 313.297 560.03 313.496 560.08C313.047 564.581 312.398 569.315 310.119 573.482C309.554 574.516 308.888 575.516 308.223 576.516C307.873 577.049 307.524 577.566 307.175 578.116C306.809 578.7 306.343 578.933 305.478 578.933C305.012 578.933 304.546 578.933 304.064 578.933C302.084 578.933 300.055 578.933 298.075 579.267C292.053 580.267 287.495 583.751 284.9 589.318C278.861 602.254 273.687 615.79 269.495 629.559C269.079 630.943 268.447 631.659 267.083 632.31C258.682 636.327 253.309 643.145 251.096 652.613C250.963 653.164 250.864 653.714 250.73 654.364L250.647 654.78C243.145 653.13 236.291 654.197 230.252 657.981C224.064 661.848 220.021 667.599 218.275 675.068H218.225C217.925 675.068 217.642 675.068 217.41 675.001C214.881 674.401 212.136 674.117 208.526 674.117C203.469 674.117 198.412 674.117 193.355 674.117H187.931C181.41 674.117 175.97 676.284 171.745 680.552C170.697 681.602 169.832 682.702 169.033 683.819V16.7966H251.895V0.276855H0V17.1966H80.3662V833.797H0.133084V851.017H712V696.938H696.246ZM697.81 596.103C697.76 596.336 697.693 596.553 697.627 596.786L697.194 598.253C696.695 599.904 696.196 601.604 695.647 603.288C693.468 610.056 691.039 617.207 687.579 623.908C686.431 626.142 685.167 628.159 683.836 629.876C681.69 632.643 678.613 633.943 674.903 633.593C672.008 633.327 669.214 632.36 666.519 631.426C665.836 631.193 665.138 630.943 664.456 630.726C665.82 625.809 671.243 618.057 678.729 610.356C685.965 602.904 693.202 597.52 697.81 596.103ZM659.515 630.793C658.234 630.843 656.903 630.909 655.639 630.743C654.341 630.576 652.927 630.109 651.53 629.376C649.916 628.526 649.5 627.459 650.116 625.708C650.648 624.158 651.314 622.841 652.079 621.758C656.437 615.673 660.979 611.089 665.953 607.738C673.738 602.487 682.655 598.687 692.453 596.436C692.936 596.32 693.418 596.22 693.901 596.136C693.152 596.636 692.37 597.12 691.622 597.603C689.742 598.787 687.795 600.02 685.999 601.404C676.317 608.789 668.598 618.19 663.058 629.326C662.559 630.343 662.01 630.726 661.045 630.743C660.53 630.743 660.014 630.776 659.498 630.793H659.515ZM665.97 678.285C671.692 675.618 677.448 676.184 682.971 679.968C686.265 682.219 688.76 685.553 690.823 690.47C693.202 696.155 694.466 702.456 694.932 710.891C694.799 710.724 694.682 710.557 694.549 710.391C693.917 709.607 693.302 708.79 692.703 708.007C691.322 706.207 689.891 704.34 688.328 702.623C681.507 695.171 673.14 688.787 662.742 683.102C662.376 682.902 662.01 682.686 661.628 682.452L661.545 682.402C662.692 680.502 664.156 679.152 665.986 678.301L665.97 678.285ZM658.75 683.652C659.698 683.652 660.53 683.869 661.395 684.336C668.581 688.203 675.152 692.721 680.908 697.788C686.115 702.372 690.158 706.89 693.252 711.624C693.335 711.758 693.418 711.891 693.501 712.024C693.451 712.008 693.402 711.974 693.352 711.958C692.503 711.558 691.655 711.157 690.79 710.757C689.076 709.941 687.296 709.09 685.5 708.324C677.032 704.69 669.896 702.606 663.058 701.772L660.979 701.522C658.267 701.206 655.456 700.872 652.728 700.422C650.615 700.072 648.552 699.539 646.639 698.839C644.926 698.222 643.844 697.022 643.495 695.338C647.072 693.338 646.939 689.937 646.456 686.853C646.689 686.72 646.939 686.586 647.188 686.436C647.953 686.003 648.735 685.553 649.55 685.219C652.079 684.186 654.99 683.686 658.683 683.652H658.75ZM641.698 683.202C642.33 683.819 642.979 684.453 643.528 685.153C644.659 686.586 645.142 688.32 644.976 690.27C644.859 691.571 644.377 692.587 643.561 693.238C642.813 693.838 641.798 694.088 640.65 693.938C639.469 693.788 638.188 693.371 636.841 692.721C635.41 692.037 633.88 691.354 632.15 691.204C629.471 690.97 626.743 690.77 624.081 690.57L621.187 690.354C620.721 690.32 620.255 690.287 619.673 690.254H619.373V689.07C619.373 687.587 619.373 686.17 619.373 684.753C619.373 684.503 619.407 684.253 619.457 683.919V683.886C619.656 683.836 619.823 683.786 619.989 683.752C625.512 682.719 631.451 682.119 638.122 681.919H638.371C639.769 681.919 640.8 682.302 641.715 683.202H641.698ZM640.9 679.835L643.495 679.102C643.495 679.218 643.495 679.352 643.495 679.468C643.495 680.385 643.478 681.252 643.262 682.169C642.979 681.919 642.68 681.702 642.397 681.502C641.732 681.019 641.133 680.602 640.9 679.835ZM646.523 703.856C646.373 703.756 646.223 703.656 646.057 703.556C645.89 703.456 645.691 703.439 645.508 703.523C645.325 703.606 645.208 703.773 645.192 703.973L644.776 708.524L642.846 708.69L643.661 699.072L645.208 700.189C645.208 700.189 645.208 700.255 645.208 700.289C645.208 700.472 645.225 700.639 645.208 700.756C644.809 702.306 645.608 703.206 646.506 703.873L646.523 703.856ZM646.323 699.889C646.323 699.889 646.356 699.889 646.373 699.905C646.373 699.905 646.34 699.922 646.323 699.939C646.323 699.922 646.323 699.905 646.323 699.872V699.889ZM646.256 704.99H646.223C646.223 704.99 646.223 704.99 646.24 704.99H646.256ZM643.096 697.505C643.096 697.505 643.096 697.438 643.096 697.405C643.096 697.388 643.096 697.355 643.096 697.338C643.129 697.388 643.162 697.438 643.179 697.488C643.146 697.488 643.112 697.488 643.079 697.488L643.096 697.505ZM619.889 718.576C624.081 717.592 628.124 717.009 631.95 716.859L635.809 720.909C635.161 720.859 634.512 720.826 633.863 720.776C631.7 720.626 629.471 720.476 627.292 720.209C625.262 719.959 623.233 719.559 621.253 719.159L619.939 718.892C619.939 718.892 619.789 718.809 619.69 718.726C619.773 718.642 619.856 718.576 619.889 718.559V718.576ZM619.44 716.675V713.825C624.214 712.591 628.939 712.141 633.364 711.874L631.484 714.942L619.44 716.675ZM625.578 710.891L624.497 711.024C623.2 711.191 621.952 711.407 620.621 711.641C620.239 711.708 619.856 711.774 619.473 711.841V692.121C623.932 692.071 627.608 692.287 631.035 692.804L631.251 692.837C632.482 693.021 633.747 693.204 634.761 693.721C636.824 694.788 639.087 695.771 641.765 695.838C641.782 695.938 641.815 696.038 641.831 696.138C641.931 696.571 642.014 696.972 641.998 697.322C641.732 701.322 641.399 705.206 641.016 708.857C638.471 709.574 636.076 709.974 633.497 710.091C630.852 710.207 628.174 710.557 625.595 710.874L625.578 710.891ZM636.342 680.235C633.88 680.368 631.551 680.485 629.188 680.719C626.776 680.952 624.364 681.285 622.035 681.619C621.187 681.735 620.355 681.852 619.507 681.969L618.708 673.901C622.634 672.65 626.444 672.3 630.053 672.834C634.229 673.451 636.974 675.318 638.471 678.568C638.671 678.985 638.804 679.468 638.937 679.985C638.937 680.018 638.953 680.068 638.97 680.102C638.088 680.152 637.223 680.202 636.342 680.252V680.235ZM619.373 726.694V726.544C619.373 725.127 619.357 723.693 619.357 722.276V720.643C625.529 722.043 631.767 722.46 637.623 722.76C638.072 722.776 638.621 722.976 639.253 723.31C640.001 723.726 640.75 724.177 641.499 724.627C642.214 725.06 643.046 725.56 643.844 725.994C650.632 729.728 657.718 732.495 663.74 734.728C664.489 735.012 665.221 735.312 666.019 735.662C666.252 735.762 666.485 735.862 666.718 735.962L666.685 736.329C666.635 736.829 666.585 737.246 666.519 737.662C665.803 741.596 665.088 745.514 664.373 749.448L664.023 751.398C663.042 756.766 662.06 762.15 661.079 767.518C660.58 770.302 660.546 770.335 657.835 771.069C657.668 771.119 657.502 771.152 657.336 771.169L657.136 771.202C649.816 772.735 641.931 773.002 632.998 772.052C631.168 771.852 629.305 771.452 627.508 771.052C627.009 770.952 626.527 770.835 626.028 770.735C624.763 770.468 624.115 769.752 623.882 768.318C622.983 762.9 621.952 757.216 620.638 750.398C619.64 745.23 619.224 740.913 619.357 736.829C619.457 733.462 619.44 730.028 619.407 726.694H619.373ZM663.424 732.761C660.247 731.545 656.055 729.894 651.896 728.061C647.837 726.26 642.58 723.743 637.939 720.242C636.541 719.192 635.36 718.075 634.412 716.959C633.713 716.125 633.43 715.358 633.547 714.691C633.663 713.991 634.229 713.341 635.21 712.774C636.125 712.224 637.223 711.774 638.454 711.408C642.147 710.324 645.99 710.207 649.999 710.157C651.23 710.157 652.328 710.507 653.559 711.308C660.596 715.825 666.452 720.793 671.459 726.494C675.884 731.511 679.128 736.546 681.374 741.88C681.441 742.047 681.507 742.213 681.574 742.38C675.818 737.862 669.18 734.979 663.408 732.761H663.424ZM649.633 708.257H646.706L646.805 706.14L649.633 708.257ZM647.122 701.006C650.449 702.022 653.909 702.439 657.286 702.856C658.716 703.039 660.18 703.206 661.644 703.439C659.033 704.073 656.404 705.19 653.676 706.84L652.079 705.673C650.615 704.606 649.201 703.573 647.787 702.523C646.972 701.922 646.872 701.856 647.122 701.006ZM653.609 709.224C655.888 707.223 659.698 705.64 662.227 705.223C668.099 704.273 672.541 705.74 676.001 709.757C677.698 711.724 679.078 714.175 680.193 717.242C682.871 724.527 683.919 732.461 683.42 741.496C677.648 728.911 668.132 718.626 653.609 709.224ZM648.602 683.536L648.951 679.718C650.698 680.352 652.412 681.102 654.391 682.119L648.602 683.536ZM658.151 681.635C658.301 681.719 658.45 681.802 658.6 681.902C658.118 681.885 657.685 681.735 657.236 681.519C655.273 680.569 653.144 679.585 650.748 678.485C650.216 678.235 649.667 678.051 649.084 677.835C648.818 677.735 648.536 677.635 648.253 677.518C648.203 677.501 648.103 677.485 648.053 677.485C647.97 677.485 647.87 677.501 647.787 677.551C647.654 677.618 647.537 677.751 647.504 677.918C647.454 678.118 647.421 678.285 647.371 678.435C647.288 678.752 647.205 679.052 647.171 679.368L647.072 680.219C646.955 681.269 646.822 682.352 646.805 683.436C646.805 684.436 646.473 684.953 645.707 685.236C645.075 684.569 644.876 683.836 645.025 682.852C645.208 681.719 645.258 680.569 645.308 679.335C645.341 678.802 645.358 678.235 645.391 677.651C645.391 677.485 645.341 677.318 645.208 677.201C645.109 677.118 644.976 677.068 644.842 677.068C644.809 677.068 644.776 677.068 644.743 677.068L644.044 677.201C643.595 677.285 643.212 677.351 642.813 677.451C642.197 677.601 641.582 677.768 640.983 677.918L640.484 678.051C640.367 678.085 640.284 678.085 640.234 678.085C640.201 678.085 640.185 678.085 640.185 678.085C640.185 678.085 640.135 678.035 640.101 677.835L645.142 676.051C645.342 675.984 645.475 675.801 645.508 675.601L646.589 667.066L648.203 667.149L648.07 668.95V669.066C647.92 670.817 647.787 672.517 647.654 674.201C647.504 675.968 647.604 676.184 649.084 676.935L649.151 676.968C652.362 678.602 655.473 680.235 658.101 681.619L658.151 681.635ZM678.047 653.914C682.988 656.347 687.679 659.248 692.004 662.515C692.553 662.932 693.102 663.365 693.634 663.799C692.42 663.349 691.206 662.882 690.025 662.432L689.808 662.349C686.431 661.065 682.938 659.731 679.411 658.598C670.877 655.864 664.007 654.614 657.419 654.614C657.136 654.614 656.837 654.614 656.554 654.614C664.04 650.68 671.093 650.446 678.064 653.897L678.047 653.914ZM655.506 656.481C655.506 656.481 655.622 656.481 655.672 656.481C658.933 656.547 662.127 656.664 665.288 657.114C675.236 658.564 684.568 661.965 691.738 664.882C690.49 664.766 689.243 664.632 687.995 664.516L687.529 664.466C684.685 664.182 681.757 663.882 678.862 663.615C677.348 663.482 675.801 663.415 674.138 663.415C669.713 663.415 665.304 663.899 661.045 664.349C659.548 664.516 657.984 664.682 656.454 664.832L655.839 664.899C652.179 665.249 648.386 665.616 644.693 665.049C643.395 664.849 642.364 664.566 641.532 664.166C641.216 664.016 640.833 663.765 640.767 663.365C640.717 663.065 640.867 662.699 641.216 662.349C642.114 661.432 642.996 660.782 643.828 660.398C646.523 659.165 649.201 658.064 651.746 657.164C653.027 656.714 654.325 656.464 655.489 656.464L655.506 656.481ZM638.97 641.245C633.813 640.761 629.039 638.861 624.78 635.61C622.218 633.66 619.839 631.243 617.294 627.992C615.248 625.392 612.669 623.141 609.442 621.141C605.084 618.44 600.559 616.49 596.616 614.923C596.649 614.923 596.699 614.923 596.733 614.923C603.753 615.34 610.307 616.69 616.246 618.974C625.262 622.441 632.283 626.992 637.722 632.893C640.035 635.41 641.648 637.844 642.796 640.528C641.648 641.145 640.451 641.361 638.953 641.228L638.97 641.245ZM643.977 638.878C641.732 634.41 638.438 630.509 633.946 626.975C623.865 619.074 612.137 614.506 599.095 613.406C597.997 613.306 596.882 613.24 595.768 613.156C600.226 610.606 605.067 609.189 610.141 608.939C619.324 608.489 627.708 611.289 635.859 617.524C638.92 619.857 641.432 622.858 643.345 626.425C644.909 629.342 645.558 632.526 645.292 635.894C645.192 637.077 644.992 638.311 644.194 639.244C644.127 639.128 644.061 639.011 643.994 638.861L643.977 638.878ZM642.563 653.814C644.244 654.397 645.974 654.997 647.804 655.297C647.97 655.331 648.153 655.281 648.269 655.164C648.402 655.047 648.452 654.88 648.452 654.714C648.436 654.43 648.419 654.18 648.419 653.93C648.402 653.397 648.386 652.93 648.253 652.447L648.153 652.097C647.72 650.513 647.288 648.863 646.672 647.296C646.173 646.029 645.541 644.779 644.942 643.595C644.726 643.162 644.493 642.712 644.277 642.278C644.277 642.278 644.277 642.245 644.244 642.228C644.427 642.528 644.626 642.828 644.809 643.128C645.541 644.279 646.29 645.445 646.905 646.679C647.504 647.862 648.02 649.129 648.552 650.463C648.802 651.08 649.051 651.73 649.334 652.397C649.417 652.597 649.6 652.73 649.833 652.73C650.049 652.73 650.249 652.613 650.349 652.43C652.145 648.963 654.108 645.329 656.371 641.745L649.683 655.047C649.55 655.314 649.65 655.647 649.916 655.781L650.049 655.847L647.903 656.597C647.637 656.464 647.404 656.347 647.171 656.231C646.622 655.947 646.14 655.697 645.641 655.514C643.778 654.83 641.865 654.164 640.035 653.514L639.952 653.48C638.82 653.08 637.673 652.68 636.541 652.263C638.604 652.43 640.534 653.113 642.563 653.814ZM641.848 655.964C643.013 656.397 644.177 656.831 645.358 657.264C645.441 657.298 645.541 657.364 645.658 657.448C645.125 657.681 644.676 657.898 644.244 658.181C643.944 658.381 643.645 658.564 643.262 658.798C642.131 659.498 640.966 660.231 639.968 661.165C639.236 661.848 638.904 662.649 638.987 663.465C639.086 664.332 639.669 665.132 640.634 665.699C641.249 666.066 641.931 666.266 642.647 666.466C643.229 666.633 643.811 666.749 644.427 666.866L644.809 666.949L643.894 674.634L639.27 676.168C636.092 672.767 633.863 671.517 630.203 671C629.072 670.85 627.941 670.767 626.826 670.767C625.396 670.767 623.948 670.9 622.534 671.15C621.42 671.35 620.322 671.583 619.174 671.834C618.808 671.917 618.425 672 618.043 672.067C615.78 665.582 611.671 660.665 605.499 657.064C612.087 654.53 618.608 652.28 625.595 651.78C627.392 651.647 629.272 651.563 630.835 652.063C634.545 653.23 638.255 654.614 641.831 655.947L641.848 655.964ZM619.008 650.946C614.499 651.98 609.791 653.464 604.618 655.497C604.518 655.531 604.418 655.581 604.285 655.631C603.936 655.781 603.453 655.981 603.22 655.914C602.172 655.664 601.158 655.297 600.043 654.897C599.893 654.847 599.744 654.797 599.594 654.747C606.764 647.346 620.887 645.329 631.052 650.063C626.992 649.73 622.933 650.03 619.008 650.93V650.946ZM596.117 653.997C600.309 646.862 606.597 643.428 614.849 643.795C619.074 643.978 623.316 645.012 627.724 646.946C622.983 645.562 618.958 645.179 615.115 645.779C609.093 646.696 603.403 649.313 598.196 653.564C597.381 654.23 596.766 654.397 596.05 654.114C596.067 654.08 596.084 654.03 596.1 653.997H596.117ZM598.446 656.331C609.875 659.031 617.577 668.733 617.594 680.485C617.627 704.49 617.627 728.894 617.61 752.482V775.886C617.61 776.269 617.577 776.653 617.544 777.086V777.186H612.503V730.111C612.503 725.86 612.503 721.609 612.503 717.359C612.503 707.44 612.503 697.188 612.486 687.02C612.453 677.985 606.315 670.217 597.564 668.133C588.847 666.049 579.864 670.183 575.705 678.168C574.225 681.019 573.509 684.169 573.509 687.837C573.543 700.706 573.526 713.808 573.509 726.46V736.279C573.509 736.745 573.476 737.212 573.459 737.696V737.879L568.402 737.496V725.01C568.402 710.541 568.402 696.055 568.402 681.585C568.402 680.318 568.469 678.968 568.619 677.601C569.317 670.7 573.027 664.399 578.766 660.298C584.522 656.197 591.675 654.747 598.413 656.347L598.446 656.331ZM610.74 749.381V749.765C610.74 758.483 610.74 767.184 610.74 775.903C610.74 776.303 610.706 776.703 610.69 777.12V777.17C607.03 777.503 586.269 777.453 582.908 777.103L580.214 752.015H580.313C580.679 751.948 580.945 751.915 581.228 751.848L582.509 751.598C584.339 751.248 586.219 750.881 588.065 750.498C589.38 750.231 590.012 749.365 589.962 747.931C589.929 746.864 589.929 745.764 589.945 744.714C589.945 744.013 589.945 743.297 589.945 742.597C589.929 740.946 589.529 740.396 588.016 739.946C586.751 739.563 585.52 739.279 584.356 739.113C582.143 738.796 579.964 738.529 577.668 738.229C576.903 738.129 576.121 738.029 575.339 737.929V737.746C575.306 737.346 575.273 737.012 575.273 736.662V730.894C575.273 716.609 575.273 701.822 575.289 687.286C575.289 685.903 575.439 684.536 575.705 683.202C577.535 674.201 586.801 667.95 595.934 669.533C604.568 671.034 610.806 678.568 610.79 687.453C610.74 708.09 610.74 729.061 610.756 749.348L610.74 749.381ZM584.206 788.388L584.256 788.755C584.572 788.722 584.822 788.705 585.071 788.705H592.258C597.614 788.705 603.154 788.705 608.61 788.688C609.359 788.688 609.875 788.905 610.49 789.472C613.002 791.822 615.581 794.189 618.076 796.473L632.116 809.392C639.852 816.51 647.587 823.628 655.323 830.746C655.273 830.746 655.24 830.746 655.19 830.763C653.094 831.046 650.981 831.363 648.868 831.646L641.549 824.912C630.869 815.093 619.823 804.925 608.993 794.923C608.045 794.056 607.096 793.673 605.849 793.673C600.858 793.706 595.784 793.706 591.309 793.706H584.722L584.173 788.755H584.256L584.223 788.388H584.206ZM169.067 715.792C172.011 728.161 174.756 739.479 177.401 750.098C178.349 753.915 178.466 757.516 177.734 761.417C175.621 772.735 173.592 784.254 171.629 795.44C170.78 800.291 169.915 805.125 169.067 809.976V715.792ZM187.416 746.364C187.649 746.431 187.931 746.631 187.981 746.747C188.281 747.464 188.53 748.231 188.796 749.064L188.93 749.465L183.39 750.065L182.209 745.13L183.107 745.33L183.19 744.964V745.33C184.721 745.68 186.052 745.997 187.399 746.347L187.416 746.364ZM201.822 749.998C202.438 749.931 203.07 749.965 203.635 750.098L205.133 750.431C207.279 750.898 209.491 751.382 211.637 751.982C216.91 753.499 220.47 756.883 222.217 762.067C222.417 762.667 222.55 763.317 222.716 764.067C222.75 764.201 222.766 764.334 222.799 764.467C222.483 764.401 222.25 764.334 222.034 764.267L221.868 764.217C216.129 762.484 210.406 760.767 204.667 759.016C197.48 756.833 190.277 754.649 183.09 752.448C182.974 752.415 182.858 752.382 182.741 752.365C182.425 752.282 182.225 752.232 182.076 752.098C182.292 752.032 182.492 751.965 182.691 751.948C190.061 751.182 196.149 750.565 201.839 750.015L201.822 749.998ZM192.373 747.448L192.872 747.581C194.136 747.931 195.451 748.281 196.732 748.664L192.905 749.031L192.356 747.448H192.373ZM183.19 754.332C190.976 756.699 198.761 759.05 206.547 761.417L209.325 762.267C213.533 763.55 217.892 764.867 222.167 766.184C222.733 766.351 223.049 766.601 223.082 766.668C223.282 767.234 223.365 767.868 223.448 768.618C223.448 768.701 223.465 768.785 223.481 768.885L223.332 768.851C222.816 768.718 222.4 768.601 222.001 768.485L184.072 756.949C181.776 756.249 181.71 756.232 181.909 753.999L182.026 754.032C182.408 754.132 182.808 754.232 183.19 754.349V754.332ZM224.313 773.736L224.396 774.286C224.563 775.319 224.729 776.286 224.546 777.286H219.689V769.652L219.772 769.668C220.238 769.768 220.637 769.868 221.036 769.985C222.899 770.541 223.986 771.791 224.297 773.736H224.313ZM184.405 758.916L217.676 769.018C217.792 770.435 217.776 771.852 217.759 773.219C217.742 774.969 217.709 776.786 217.959 778.62C217.992 778.903 218.225 779.103 218.507 779.103H225.162L226.443 786.838C224.962 787.171 224.746 787.321 223.265 788.705L217.792 793.723C203.469 806.892 189.146 820.044 174.823 833.213C173.608 833.097 172.361 832.947 171.063 832.813C173.941 815.343 183.057 764.684 184.405 758.933V758.916ZM187.366 833.497C193.637 827.346 223.016 800.457 227.94 796.373C229.088 802.374 233.596 828.796 233.979 833.497C215.264 833.497 199.327 833.497 187.366 833.497ZM226.809 794.74C225.311 796.04 223.831 797.407 222.417 798.724L221.086 799.94C209.441 810.642 197.796 821.328 186.151 832.03C185.669 832.463 185.203 832.913 184.704 833.397L184.621 833.48C182.841 833.48 181.127 833.48 179.564 833.48C178.782 833.48 178 833.447 177.218 833.397C190.643 821.061 204.051 808.742 217.476 796.406C218.408 795.556 219.339 794.69 220.271 793.839C221.918 792.339 223.565 790.822 225.195 789.322C225.877 788.688 226.276 788.555 226.775 788.772C226.842 789.122 226.892 789.455 226.958 789.822C227.125 790.822 227.308 791.856 227.524 792.856C227.69 793.623 227.507 794.123 226.825 794.723L226.809 794.74ZM218.042 746.381H217.892C217.892 746.381 217.842 746.381 217.825 746.381H217.676V746.414C217.526 746.447 217.459 746.414 217.459 746.414C217.343 746.364 217.26 746.064 217.177 745.797L217.11 745.597C215.23 740.146 213.35 734.712 211.454 729.261C205.931 713.275 200.408 697.288 194.885 681.285C194.752 680.902 194.636 680.485 194.519 680.068H198.811L198.894 680.252C199.027 680.602 199.16 680.935 199.277 681.269L200.325 684.286C205.931 700.506 211.72 717.275 217.393 733.762C217.626 734.428 217.742 735.179 217.759 735.929C217.792 738.763 217.792 741.596 217.759 744.364V745.314C217.759 745.647 217.726 745.981 217.692 746.314L218.058 746.347L218.042 746.381ZM228.389 747.181L233.679 746.631C241.099 745.864 248.784 745.064 256.337 744.297C256.969 744.23 257.651 744.364 258.316 744.514C258.832 744.63 259.364 744.814 259.913 744.997C260.179 745.097 260.462 745.18 260.728 745.264L288.476 753.865L292.12 754.999C293.9 755.549 295.746 756.116 297.543 756.683C297.626 756.716 297.709 756.733 297.826 756.766C298.175 756.866 298.375 756.916 298.474 757.066C298.192 757.149 297.942 757.216 297.676 757.249C289.724 758.333 281.789 759.416 273.837 760.483C270.194 760.967 266.534 761.467 262.891 761.95L245.723 764.251C240.599 764.934 235.476 765.634 230.352 766.318C230.019 766.368 229.637 766.351 229.204 766.334C229.121 766.334 229.038 766.334 228.955 766.334C228.223 758.216 224.613 752.282 217.975 748.248C221.452 747.881 224.912 747.514 228.389 747.164V747.181ZM218.69 747.081C218.69 747.081 218.69 747.047 218.707 747.031C218.707 747.031 218.707 747.047 218.707 747.064C218.707 747.064 218.707 747.064 218.707 747.081C218.707 747.081 218.69 747.081 218.674 747.081H218.69ZM219.622 740.179C220.238 741.946 220.82 743.647 221.402 745.347C221.485 745.564 221.535 745.814 221.602 746.081L219.722 746.314C219.489 744.68 219.472 742.063 219.622 740.163V740.179ZM226.493 745.614V735.745C227.69 738.746 229.271 743.58 229.57 745.314L226.493 745.614ZM233.646 744.597L232.598 741.58C230.635 735.912 228.605 730.044 226.642 724.277C226.476 723.776 226.393 723.176 226.376 722.476C226.359 718.576 226.359 714.608 226.376 710.741L238.004 744.414L233.762 744.847C233.712 744.73 233.662 744.664 233.646 744.58V744.597ZM241.647 743.313L239.335 736.595C235.16 724.527 230.868 712.091 226.659 699.839C226.493 699.339 226.393 698.739 226.393 698.038C226.359 694.504 226.376 691.02 226.393 687.186C226.393 686.903 226.393 686.62 226.426 686.336L246.206 743.58L241.93 743.997L241.88 743.88C241.797 743.663 241.731 743.497 241.681 743.313H241.647ZM250.165 743.197C248.135 738.229 234.927 699.755 231.966 690.22C234.328 693.004 236.124 696.205 237.455 699.972C240.566 708.807 243.677 717.625 246.804 726.444L252.161 741.613C252.294 741.963 252.394 742.33 252.527 742.797L252.56 742.897L250.182 743.197H250.165ZM256.869 737.479C256.586 736.662 256.287 735.845 256.004 735.029C255.937 734.828 255.887 734.612 255.821 734.362L261.71 735.745V743.747L261.544 743.697C260.945 743.513 260.379 743.33 259.797 743.213C259.032 743.047 258.632 742.647 258.35 741.813C257.884 740.346 257.368 738.896 256.869 737.496V737.479ZM263.723 744.38V736.195L268.614 737.329V745.881L263.723 744.38ZM296.262 749.865C291.487 749.865 286.713 749.865 281.939 749.865C281.606 749.865 281.273 749.865 281.007 749.781C277.064 748.548 273.837 747.531 270.876 746.581C270.826 746.564 270.743 746.514 270.676 746.447C270.693 746.447 270.71 746.447 270.726 746.447C279.693 746.447 286.996 746.447 293.667 746.447C294.166 746.447 294.299 746.514 294.316 746.531C295.264 747.481 295.979 748.564 296.495 749.848C296.412 749.848 296.328 749.865 296.262 749.865ZM297.227 751.582L298.009 755.049L286.813 751.582H297.227ZM270.543 744.614V737.829C270.826 737.862 271.059 737.896 271.292 737.946C274.952 738.796 278.628 739.663 282.288 740.513L286.297 741.446C288.543 741.98 290.606 742.997 292.419 744.514C292.452 744.547 292.486 744.564 292.519 744.597H270.543V744.614ZM298.641 759.183V761.133C295.846 761.65 280.741 763.784 264.022 766.034C245.557 768.518 232.348 770.168 229.67 770.302L229.354 768.335C236.607 767.201 292.486 759.566 298.641 759.183ZM254.124 794.523C254.041 794.589 253.974 794.69 253.941 794.823C253.875 795.09 253.808 795.373 253.725 795.64C253.575 796.223 253.409 796.84 253.292 797.457C252.194 802.941 251.113 808.425 250.015 813.91L247.919 824.462C247.836 824.878 247.753 825.295 247.636 825.695C247.32 826.629 246.439 827.195 245.573 827.012C244.659 826.812 244.043 825.962 244.159 825.028C244.309 823.895 244.542 822.745 244.775 821.628C244.858 821.278 244.925 820.911 244.991 820.561L247.237 809.376C248.102 805.058 248.967 800.724 249.832 796.406C249.882 796.123 249.899 795.84 249.915 795.573C249.915 795.473 249.915 795.373 249.932 795.29C249.949 795.073 249.849 794.89 249.666 794.773C249.915 794.773 250.148 794.589 250.198 794.323L251.363 788.622C251.413 788.355 251.263 788.105 251.03 788.005C251.279 787.988 251.479 787.805 251.529 787.572L253.292 778.803C253.326 778.637 253.292 778.47 253.176 778.353C253.326 778.287 253.442 778.136 253.475 777.97L255.339 768.635C255.355 768.535 255.339 768.435 255.305 768.335C256.736 768.151 258.117 767.968 259.398 767.785C259.215 768.051 259.082 768.385 258.998 768.785C258.616 770.868 258.2 772.902 257.767 775.036C257.601 775.853 257.435 776.686 257.252 777.52C257.202 777.786 257.335 778.036 257.584 778.136C257.601 778.136 257.634 778.136 257.651 778.153C257.618 778.153 257.568 778.153 257.551 778.153C257.318 778.186 257.118 778.353 257.069 778.587L255.388 787.055C255.339 787.338 255.488 787.605 255.754 787.688H255.688C255.422 787.688 255.205 787.872 255.139 788.138L253.974 794.039C253.941 794.206 253.974 794.373 254.091 794.506L254.124 794.523ZM260.113 768.968C260.229 768.335 260.429 768.151 261.028 768.151H261.76V777.32C261.494 777.32 261.227 777.353 260.961 777.37C260.096 777.42 259.264 777.47 258.466 777.253C258.599 776.586 258.732 775.903 258.882 775.253C259.331 773.102 259.747 771.069 260.113 768.968ZM256.17 788.822H304.413L305.295 793.623H255.222L256.17 788.822ZM256.619 786.705L258.1 779.237C262.974 778.937 298.424 779.037 302.6 779.353L303.981 786.771C298.641 787.105 261.743 787.038 256.603 786.705H256.619ZM262.775 767.318C262.775 767.318 262.791 767.318 262.808 767.318V767.351C262.808 767.351 262.808 767.334 262.791 767.318H262.775ZM263.839 767.801L268.614 767.184V777.336C267.166 777.42 265.619 777.42 263.773 777.336C263.457 775.169 263.49 769.602 263.823 767.785L263.839 767.801ZM270.527 777.12V766.901L299.389 763C300.121 765.484 301.835 774.869 302.001 777.27C297.676 777.586 274.187 777.47 270.527 777.12ZM236.441 771.469C242.18 770.685 248.119 769.868 254.124 769.151L252.51 777.286H230.818L230.003 772.335C232.149 772.052 234.295 771.752 236.424 771.469H236.441ZM252.095 779.237L250.547 786.888H232.431L231.15 779.237H252.095ZM250.182 788.938L249.217 793.639H233.529C233.463 793.223 233.38 792.806 233.296 792.406C233.064 791.172 232.831 790.005 232.781 788.805C236.191 788.522 247.403 788.605 250.182 788.938ZM248.817 795.673C248.817 795.84 248.784 796.006 248.767 796.173C247.952 800.241 247.137 804.308 246.322 808.375L243.927 820.328C243.86 820.678 243.777 821.044 243.71 821.411C243.477 822.545 243.228 823.712 243.078 824.878C242.895 826.395 243.86 827.762 245.357 828.096C246.771 828.396 248.219 827.512 248.701 826.045C248.851 825.595 248.934 825.128 249.034 824.678L250.864 815.443C252.045 809.526 253.209 803.591 254.407 797.673C254.523 797.073 254.69 796.456 254.823 795.923L254.923 795.506H305.711L312.931 833.497C286.397 833.497 261.61 833.497 240.117 833.497C238.171 821.878 235.941 808.509 233.862 795.59C236.956 795.323 246.405 795.39 248.834 795.673H248.817ZM270.427 680.268C270.377 675.034 268.93 670.2 266.118 665.899C263.69 662.198 260.579 659.315 256.852 657.314C256.021 656.864 255.738 656.397 255.738 655.514C255.738 654.814 255.671 654.13 255.605 653.48C255.555 652.997 255.505 652.497 255.488 652.013C255.405 649.646 256.287 647.879 258.15 646.746C260.046 645.595 262.026 644.495 263.956 643.445L264.671 643.062C265.137 642.812 265.636 642.595 266.235 642.362C266.285 642.345 266.318 642.328 266.368 642.312C266.368 642.378 266.351 642.445 266.335 642.495C265.619 646.379 265.486 650.513 265.935 655.114C266.967 665.799 270.277 676.501 275.767 686.903C278.429 691.937 281.739 695.755 285.898 698.555H270.444V697.038C270.444 695.355 270.444 693.671 270.444 691.987C270.444 688.17 270.444 684.203 270.427 680.285V680.268ZM267.25 640.928C267.25 640.928 267.283 640.895 267.299 640.878C267.299 640.895 267.299 640.928 267.299 640.945C267.299 640.945 267.266 640.945 267.25 640.928ZM269.512 668.35C269.545 668.35 269.579 668.333 269.612 668.333C269.579 668.383 269.562 668.433 269.545 668.483C269.545 668.45 269.529 668.4 269.512 668.366V668.35ZM279.127 680.102C279.294 680.235 279.51 680.252 279.71 680.168C279.809 680.118 279.909 680.085 279.992 680.052C280.192 679.968 280.425 679.868 280.525 679.585C280.741 678.952 280.924 678.368 281.074 677.801C282.288 673.367 283.868 668.2 286.447 663.482C286.78 662.882 287.096 662.282 287.428 661.682L287.478 661.582C288.61 659.515 289.757 657.364 291.005 655.331C292.452 652.98 293.933 650.546 295.746 648.463C298.624 645.145 302.317 643.828 306.426 644.662C308.007 644.979 310.069 645.462 311.866 646.346C316.99 648.879 321.265 651.08 325.457 653.564C339.248 661.715 352.407 670.9 365.15 679.785C365.216 679.835 365.299 679.918 365.366 680.018L361.39 695.255C361.157 695.205 361.007 695.188 360.841 695.138C358.745 694.471 356.632 693.788 354.536 693.121L353.921 692.921C347.998 691.021 341.86 689.07 335.854 687.086C328.801 684.753 322.546 681.352 317.256 676.968C314.095 674.351 310.835 671.734 307.674 669.216L307.408 669C306.343 668.15 305.295 667.299 304.23 666.449C304.014 666.283 303.764 666.166 303.548 666.066C303.465 666.033 303.382 665.999 303.315 665.949C303.066 665.816 302.766 665.899 302.617 666.116L302.367 666.466C302.201 666.699 302.251 667.033 302.467 667.216L310.302 673.551C308.14 673.201 306.11 672.4 304.13 671.617C303.465 671.35 302.8 671.083 302.118 670.833C302.068 670.833 301.968 670.8 301.918 670.8C301.735 670.8 301.569 670.883 301.469 671.033C301.319 671.233 301.336 671.5 301.469 671.7C301.868 672.2 302.367 672.584 303.049 672.917C306.293 674.501 309.421 675.501 312.615 676.001C314.727 676.334 315.725 677.601 315.526 679.702L315.493 680.085C315.31 682.052 315.11 684.086 314.644 685.986C313.53 690.62 311.45 694.138 308.306 696.738C302.617 701.422 294.565 701.806 287.811 697.722C284.118 695.488 281.007 692.304 278.562 688.27C275.351 682.969 272.789 677.051 270.76 670.2C270.505 669.355 270.71 668.672 271.375 668.15C273.621 666.366 276.299 665.532 279.743 665.532C280.059 665.532 280.375 665.532 280.708 665.549C281.406 665.582 282.105 665.666 282.87 665.766C283.02 665.782 283.153 665.799 283.303 665.816C281.34 670.717 279.843 674.951 278.928 679.535C278.894 679.735 278.961 679.952 279.127 680.085V680.102ZM284.384 664.916C284.384 664.916 284.451 664.916 284.484 664.916C284.484 664.916 284.484 664.949 284.467 664.966C284.451 664.949 284.417 664.932 284.401 664.916H284.384ZM340.462 640.678C340.363 640.645 340.246 640.595 340.146 640.561C339.198 640.194 338.283 639.844 337.318 639.678C335.455 639.361 333.975 639.678 332.81 640.628C332.627 640.778 332.561 641.028 332.644 641.245C332.727 641.461 332.927 641.611 333.159 641.611C333.825 641.611 334.457 641.545 335.106 641.478C335.439 641.445 335.755 641.411 336.087 641.378C337.751 641.245 338.999 641.628 339.897 642.545C340.729 643.378 341.045 644.495 341.394 645.712C341.51 646.112 341.627 646.529 341.777 646.946C341.777 646.979 341.743 647.012 341.71 647.079C341.161 648.079 340.596 649.063 340.013 650.063L339.664 650.663L339.331 650.58C338.965 650.48 338.633 650.396 338.316 650.313C337.684 650.146 337.135 649.98 336.653 649.846C333.359 648.896 333.226 648.913 329.666 650.746L328.585 651.297C328.418 651.38 328.269 651.48 328.119 651.563C327.803 651.747 327.503 651.93 327.137 652.013C327.154 651.93 327.187 651.83 327.204 651.747C327.354 651.096 327.503 650.496 327.703 649.93C328.635 647.446 329.583 644.945 330.531 642.461C330.897 641.495 331.263 640.528 331.646 639.544C331.745 639.611 331.862 639.644 331.978 639.628C332.577 639.611 333.126 639.378 333.609 639.194C335.272 638.511 337.019 638.494 338.782 639.111C339.631 639.411 340.18 639.928 340.479 640.678H340.462ZM341.727 641.228C341.727 641.228 341.743 641.228 341.76 641.228C341.76 641.228 341.76 641.228 341.743 641.245V641.211L341.727 641.228ZM338.816 652.213L335.688 657.714L328.568 653.263L329.317 652.897C330.614 652.247 331.845 651.63 333.06 651.08C333.342 650.946 333.792 650.913 334.124 650.996C335.339 651.28 336.57 651.613 337.884 651.98L338.816 652.23V652.213ZM354.303 670.883C354.303 670.883 354.453 670.883 354.536 670.9C354.536 670.917 354.519 670.95 354.503 670.967C354.503 670.967 354.503 671 354.503 671.017C354.436 670.967 354.37 670.933 354.303 670.883ZM396.324 651.38L396.79 650.563C397.056 650.096 397.356 649.58 397.705 649.38C398.537 648.913 399.435 648.513 400.384 648.096C400.633 647.996 400.883 647.879 401.132 647.763C401.165 647.812 401.182 647.879 401.215 647.946C401.415 648.346 401.615 648.746 401.764 649.113C402.646 651.48 402.862 653.997 402.43 656.814C401.864 660.498 399.951 663.649 396.607 666.499C393.596 669.05 389.936 671.234 385.428 673.151C382.933 674.217 380.371 675.234 377.859 676.234C375.38 677.218 372.802 678.251 370.307 679.318C368.976 679.885 367.994 679.768 366.796 678.885C364.567 677.268 362.272 675.651 360.042 674.084C358.944 673.317 357.83 672.534 356.732 671.767C356.582 671.667 356.449 671.55 356.283 671.417C356.599 671.35 356.865 671.284 357.148 671.25L360.941 670.65C369.109 669.366 377.543 668.033 385.961 666.749C387.291 666.549 388.173 665.899 388.855 664.666C391.301 660.231 393.862 655.747 396.324 651.397V651.38ZM396.158 649.296C396.158 649.296 396.258 649.246 396.324 649.229C396.291 649.279 396.258 649.329 396.225 649.363C396.225 649.363 396.208 649.329 396.191 649.313C396.191 649.313 396.175 649.313 396.158 649.296ZM407.919 634.56C408.086 634.443 408.369 634.393 408.768 634.31C408.784 634.31 408.818 634.31 408.834 634.31C408.352 636.66 407.47 638.177 406.023 639.161C404.592 640.128 402.995 640.928 401.448 641.695C400.949 641.945 400.45 642.195 399.951 642.445C399.252 642.812 398.853 642.762 398.537 642.495C398.67 642.261 398.787 642.045 398.92 641.895C401.249 639.411 404.11 637.077 407.919 634.577V634.56ZM402.03 636.911C402.03 636.911 402.197 636.927 402.263 636.927C402.446 636.927 402.629 636.911 402.796 636.877C402.629 637.011 402.463 637.127 402.313 637.261C402.297 637.194 402.263 637.144 402.213 637.094C402.164 637.027 402.08 636.977 402.03 636.911ZM408.236 633.277C408.335 633.177 408.452 633.076 408.552 632.96C408.552 633.043 408.602 633.11 408.635 633.177C408.602 633.177 408.568 633.177 408.535 633.193C408.419 633.21 408.319 633.243 408.219 633.26L408.236 633.277ZM407.537 639.594C407.437 639.594 407.337 639.594 407.237 639.594C407.304 639.544 407.37 639.494 407.437 639.444C407.454 639.494 407.487 639.561 407.537 639.594ZM399.202 643.778C399.202 643.778 399.086 643.878 399.019 643.928C399.003 643.878 398.97 643.828 398.92 643.778C399.003 643.778 399.103 643.778 399.186 643.778H399.202ZM401.881 643.395C402.862 642.928 403.827 642.395 404.775 641.878C405.208 641.628 405.657 641.395 406.106 641.145C406.206 641.095 406.306 641.028 406.406 640.961C406.589 640.845 406.772 640.745 406.905 640.728C407.021 640.711 407.154 640.695 407.254 640.695C407.42 640.695 407.52 640.711 407.57 640.728C407.703 640.945 407.736 641.311 407.687 641.428C407.437 641.961 407.054 642.445 406.639 642.728C404.01 644.545 401.099 645.862 398.005 647.262C397.672 647.412 397.339 647.562 397.007 647.713C398.52 645.829 399.901 644.328 401.864 643.412L401.881 643.395ZM412.544 701.389C410.814 701.156 408.918 701.172 407.088 701.422C403.594 701.906 400.067 702.589 396.774 703.256C392.482 704.123 389.055 703.689 385.977 701.906C384.713 701.172 383.282 700.722 381.868 700.272C381.336 700.105 380.77 699.922 380.238 699.739C379.805 699.589 379.356 699.455 378.791 699.289C382.118 696.672 383.898 693.438 384.214 689.42C384.68 689.42 385.145 689.453 385.595 689.47C386.975 689.52 388.29 689.587 389.587 689.353C392.465 688.853 395.36 688.253 398.171 687.67C400.018 687.286 401.931 686.886 403.81 686.52C409.067 685.503 414.723 684.603 420.463 684.836C423.623 684.969 425.936 685.419 427.965 686.336C429.396 686.986 430.727 687.837 431.791 688.803C433.089 689.97 433.289 691.787 432.324 693.304C431.608 694.421 430.777 695.371 429.912 696.021C424.039 700.489 418.516 702.206 412.577 701.406L412.544 701.389ZM427.799 699.355C427.433 699.355 427.067 699.405 426.734 699.455C426.984 699.305 427.25 699.155 427.499 698.989C427.533 699.155 427.649 699.289 427.799 699.355ZM373.334 698.539C373.6 698.505 373.85 698.455 374.099 698.355C374.099 698.372 374.099 698.388 374.099 698.405C374.099 698.572 374.183 698.739 374.332 698.839C374.648 699.072 374.965 699.239 375.264 699.355C374.615 699.355 373.983 699.355 373.334 699.355C373.334 699.322 373.351 699.305 373.367 699.272L373.417 698.839C373.417 698.739 373.417 698.639 373.351 698.539H373.334ZM371.504 697.122C369.608 696.355 367.695 695.738 365.649 695.088C364.933 694.854 364.218 694.621 363.486 694.388L366.93 681.035L367.179 681.185C367.661 681.469 368.077 681.702 368.493 681.935L370.473 683.002C372.952 684.336 375.497 685.719 378.075 687.053C378.841 687.453 379.168 688.048 379.057 688.837C378.691 691.304 377.51 693.621 375.33 696.121C374.133 697.505 373.085 697.772 371.521 697.155L371.504 697.122ZM327.453 686.236C326.372 686.703 325.241 687.17 324.193 687.786C321.631 689.27 319.069 690.887 316.574 692.587C314.711 693.854 313.679 695.805 312.864 697.738C311.916 697.805 311.034 697.738 310.136 697.505C314.661 693.071 316.907 687.503 317.356 679.568L327.969 686.036C327.803 686.103 327.62 686.186 327.453 686.253V686.236ZM330.115 687.103C330.298 687.02 330.581 687.003 330.764 687.07C333.226 687.97 334.806 689.17 335.954 691.054C333.043 691.271 330.232 690.92 327.52 690.587H327.503C326.206 690.42 324.892 690.27 323.544 690.17C325.69 689.153 327.903 688.103 330.115 687.103ZM316.79 694.688C318.553 692.904 320.966 691.937 323.594 691.937C324.076 691.937 324.559 691.971 325.058 692.037C328.651 692.521 331.646 692.771 334.44 692.821C336.536 692.854 338.849 692.654 341.477 692.154C343.69 691.754 345.736 691.971 347.799 692.821C348.048 692.921 348.298 693.004 348.564 693.071C348.664 693.104 348.78 693.138 348.897 693.171C352.989 694.521 356.2 697.338 358.429 701.522C360.026 704.523 359.643 706.873 357.148 709.424C354.32 712.308 350.693 713.741 346.102 713.841C345.703 713.808 345.303 713.758 344.904 713.725C344.056 713.641 343.174 713.575 342.326 713.441C338.316 712.808 334.673 711.041 331.147 709.324C328.435 708.007 325.624 707.107 322.812 706.657C321.581 706.457 320.333 706.29 319.069 706.123C318.504 706.04 317.921 705.973 317.356 705.89C315.26 705.607 314.578 704.923 314.278 702.856C313.829 699.739 314.761 696.755 316.823 694.671L316.79 694.688ZM336.969 689.32C338.433 689.67 339.714 690.104 340.612 690.554L337.984 690.854L336.969 689.32ZM358.595 699.672C358.595 699.672 358.745 699.705 358.811 699.722C358.811 699.739 358.778 699.755 358.762 699.772C358.745 699.805 358.728 699.839 358.728 699.889C358.678 699.822 358.645 699.739 358.595 699.672ZM359.061 698.639C358.911 698.639 358.712 698.555 358.645 698.489C357.713 697.488 356.765 696.455 355.8 695.388L361.889 697.205C362.122 697.272 362.355 697.188 362.505 696.988L363.12 696.105L370.739 698.655H370.323C366.63 698.655 362.821 698.655 359.078 698.655L359.061 698.639ZM380.903 688.287L382.384 688.853C382.384 692.404 380.92 695.338 377.876 697.822C377.094 698.455 376.462 698.739 375.563 698.305C378.674 695.405 380.421 692.121 380.903 688.287ZM370.523 681.069L382.301 676.501C382.9 680.619 383.232 683.986 383.365 687.286C378.541 685.619 374.299 683.236 370.523 681.069ZM288.726 699.455C288.493 699.422 288.244 699.405 288.011 699.389C288.044 699.355 288.061 699.305 288.077 699.272C288.077 699.222 288.094 699.172 288.11 699.122C288.31 699.239 288.526 699.355 288.743 699.455H288.726ZM270.543 700.522H270.776C271.225 700.489 271.641 700.456 272.074 700.456H275.368C279.344 700.439 283.469 700.422 287.512 700.472C288.56 700.472 289.674 700.689 290.722 701.039C295.347 702.656 299.539 702.739 303.515 701.306C305.361 700.639 307.175 700.372 309.221 700.439C310.036 700.472 310.868 700.472 311.733 700.489H312.448V700.839C312.448 701.406 312.432 701.906 312.465 702.406C312.698 705.807 314.095 707.29 317.456 707.673C317.589 707.673 317.705 707.69 317.855 707.707C317.971 707.707 318.071 707.707 318.188 707.74C323.76 708.357 327.869 709.49 331.529 711.441C332.993 712.224 334.557 712.841 336.071 713.441L336.803 713.725C340.512 715.192 344.289 715.775 348.032 715.425C352.174 715.042 355.684 713.408 358.479 710.557C361.14 707.857 361.723 704.84 360.259 701.356C360.142 701.072 360.042 700.789 359.943 700.472C360.026 700.472 360.092 700.456 360.159 700.456H361.307C366.048 700.456 370.955 700.439 375.78 700.456C376.379 700.456 377.011 700.622 377.443 700.739C380.937 701.706 384.047 702.656 386.942 704.256C388.755 705.273 390.602 705.673 392.415 705.456C394.877 705.156 397.772 704.773 400.616 704.19C404.343 703.406 408.785 702.673 413.376 703.173C417.418 703.623 421.128 702.989 424.405 701.306C425.57 700.706 426.784 700.439 428.381 700.439C467.325 700.439 506.934 700.456 545.229 700.439H564.809C565.092 700.439 565.375 700.439 565.641 700.439C565.94 700.456 566.24 700.506 566.572 700.556V737.262H566.173C565.574 737.262 565.009 737.262 564.46 737.262C561.532 737.162 558.571 737.029 555.693 736.912H555.327C549.005 736.629 542.467 736.345 535.996 736.245C519.843 735.979 500.762 735.779 481.748 736.462C472.831 736.779 463.382 737.196 453.651 737.729C450.14 737.912 446.614 738.346 443.17 738.746L442.272 738.846C440.475 739.063 438.695 739.496 437.348 739.846C435.252 740.396 435.019 740.963 434.985 742.93C434.985 743.413 434.985 743.897 434.985 744.43V744.68H317.456C312.215 744.68 306.909 744.68 301.652 744.68C300.72 744.68 300.171 744.547 299.639 743.797C296.595 739.596 292.436 736.879 287.295 735.679C282.038 734.462 276.832 733.228 271.924 732.078C271.508 731.978 271.076 731.845 270.676 731.728L270.51 731.678V700.489L270.543 700.522ZM444.584 699.339C444.584 699.339 444.617 699.272 444.634 699.255C444.667 699.289 444.684 699.322 444.734 699.339C444.684 699.339 444.634 699.339 444.584 699.339ZM576.654 779.22L577.951 786.921H574.99C574.058 786.921 573.143 786.921 572.245 786.921C571.862 786.921 571.746 786.821 571.696 786.438L570.748 779.203H576.654V779.22ZM574.424 778.103C574.424 778.103 574.458 778.02 574.458 777.97C574.474 778.02 574.508 778.07 574.541 778.103H574.408H574.424ZM574.624 763.234C574.79 764.167 574.94 765.117 575.106 766.051C574.94 766.051 574.774 766.134 574.674 766.268C574.674 765.251 574.657 764.234 574.624 763.217V763.234ZM575.273 770.852L576.337 777.186H575.422C575.239 775.803 575.206 773.136 575.273 770.852ZM587.051 815.327L586.285 808.359C585.986 805.675 585.703 803.008 585.42 800.324C585.287 799.14 585.171 797.957 585.054 796.69L584.938 795.523H585.005C585.337 795.473 585.653 795.44 585.936 795.44C587.982 795.44 590.028 795.44 592.091 795.44H592.74C597.015 795.44 601.457 795.44 605.832 795.406C606.747 795.406 607.329 795.79 607.995 796.406L627.841 814.677C634.096 820.444 640.351 826.195 646.606 831.963C641.349 832.663 636.076 833.247 630.819 833.263C618.725 833.297 600.509 833.33 578.184 833.363C576.903 825.679 573.476 799.707 573.227 795.54H579.382C579.448 795.79 579.498 795.99 579.531 796.206C580.097 799.507 580.663 802.791 581.228 806.092L581.794 809.426C582.21 811.876 582.642 814.393 583.091 816.877C583.324 818.144 584.056 818.644 585.404 818.511C586.618 818.377 587.101 817.81 587.117 816.494C587.117 816.093 587.084 815.71 587.051 815.327ZM572.711 793.589L572.611 793.039C572.362 791.572 572.112 790.189 572.062 788.722H572.761C574.674 788.672 576.487 788.638 578.3 788.738L579.082 793.589H572.711ZM572.212 794.69C572.212 794.69 572.195 794.723 572.179 794.74C572.179 794.723 572.179 794.689 572.179 794.673H572.212V794.69ZM571.214 787.722C571.214 787.722 571.214 787.705 571.214 787.688C571.214 787.688 571.214 787.688 571.23 787.688L571.214 787.722ZM573.543 772.069C573.543 773.469 573.509 774.853 573.509 776.253C573.509 776.57 573.476 776.903 573.426 777.27L570.465 777.303C570.332 776.403 570.199 775.503 570.049 774.602C568.984 767.601 567.887 760.383 568.519 753.065L572.228 752.732C572.362 753.549 572.495 754.349 572.644 755.166C573.01 757.266 573.36 759.233 573.443 761.233C573.593 764.834 573.559 768.518 573.526 772.069H573.543ZM556.358 751.882C546.327 752.298 536.562 752.565 527.362 752.665C499.581 752.982 476.957 752.515 456.146 751.198C451.688 750.915 447.213 750.448 443.37 750.031C441.906 749.881 440.425 749.565 438.995 749.281C438.595 749.198 438.213 749.114 437.813 749.048C437.032 748.898 436.815 748.748 436.815 748.414C436.782 747.081 436.782 745.731 436.799 744.43V743.43C437.314 743.53 437.813 743.63 438.296 743.73L438.429 743.763C440.026 744.08 441.54 744.38 443.07 744.53L446.264 744.83C452.419 745.397 458.774 745.981 465.062 746.281C475.044 746.747 485.191 747.047 495.206 747.164C518.828 747.431 544.231 747.431 569.816 745.697C573.177 745.464 576.836 745.13 580.995 744.63C582.742 744.43 584.456 744.13 586.302 743.813C586.934 743.713 587.566 743.597 588.215 743.48V744.314C588.215 745.347 588.215 746.347 588.215 747.347C588.215 748.37 587.744 748.964 586.801 749.131C583.907 749.665 580.929 750.215 577.984 750.465C571.13 751.031 563.794 751.598 556.391 751.898L556.358 751.882ZM567.521 752.365C567.521 752.365 567.521 752.398 567.521 752.415C567.521 752.398 567.504 752.382 567.487 752.365C567.504 752.365 567.521 752.365 567.537 752.365H567.521ZM567.288 755.449C567.238 756.649 567.238 757.833 567.271 759.033C567.105 757.866 566.955 756.682 566.789 755.516H567.088C567.088 755.516 567.221 755.482 567.271 755.449H567.288ZM460.088 786.838L461.502 779.203H563.461L564.842 786.838H460.088ZM565.242 788.772L566.123 793.573H458.791L459.706 788.772H565.242ZM461.02 778.086V778.053C461.02 778.053 461.053 778.07 461.053 778.086C461.053 778.086 461.037 778.086 461.02 778.086ZM461.569 777.553L461.652 777.436V777.486L461.569 777.536V777.553ZM563.029 777.32C529.642 777.32 496.271 777.353 462.883 777.353C462.6 777.353 462.284 777.32 461.985 777.286H461.818L466.21 753.582C496.736 754.832 527.862 754.832 558.737 753.582L563.129 777.27L563.029 777.303V777.32ZM446.514 752.198L450.956 752.615C450.956 752.748 450.956 752.865 450.922 752.965L450.739 754.082C449.725 760.183 448.693 766.268 447.662 772.369C445.749 783.671 443.836 794.956 441.922 806.258L441.274 810.092C440.941 812.076 440.592 814.06 440.259 816.043C440.176 816.577 440.059 816.677 440.026 816.694C440.026 816.694 439.893 816.744 439.544 816.627L440.276 809.842C442.305 791.005 444.401 771.535 446.531 752.198H446.514ZM440.741 794.673C440.741 794.673 440.775 794.673 440.791 794.673C440.791 794.673 440.791 794.69 440.791 794.706C440.791 794.706 440.758 794.706 440.758 794.69L440.741 794.673ZM442.505 778.353H442.521C442.521 778.353 442.538 778.353 442.555 778.353C442.555 778.353 442.521 778.353 442.505 778.353ZM446.63 788.822H452.935L452.253 793.573H445.882L446.647 788.822H446.63ZM447.013 786.821L448.31 779.27H454.233L453.168 786.821H447.013ZM448.61 777.203L452.752 752.732L457.826 753.132C456.795 761.283 455.68 769.168 454.532 777.203H448.61ZM437.165 750.048C437.331 750.098 437.481 750.131 437.597 750.148L438.778 750.381C438.778 750.381 438.928 750.415 438.995 750.431H437.165C437.165 750.431 437.181 750.398 437.198 750.365C437.231 750.248 437.215 750.148 437.181 750.048H437.165ZM586.435 742.03C585.919 742.113 585.404 742.213 584.888 742.297C583.042 742.63 581.112 742.963 579.232 743.097C577.485 743.213 575.755 743.347 573.958 743.48C566.256 744.03 558.305 744.614 550.469 744.897C540.089 745.28 528.743 745.48 515.768 745.497C507.4 745.497 498.733 745.364 491.097 745.23C488.053 745.18 485.008 745.13 481.981 745.08C471.201 744.93 460.355 744.38 449.741 743.463C446.664 743.197 443.553 742.747 440.542 742.297L438.346 741.98C437.93 741.93 437.547 741.863 437.231 741.646C438.429 741.146 439.61 740.963 440.725 740.846C442.089 740.713 443.436 740.563 444.8 740.413L445.15 740.38C449.675 739.896 454.349 739.396 458.974 739.129C466.976 738.663 475.776 738.312 486.672 738.012C494.224 737.812 502.06 737.729 509.978 737.762C517.947 737.796 526.065 737.929 533.95 738.046C536.861 738.096 539.773 738.129 542.667 738.179C553.547 738.329 564.46 738.879 575.09 739.779C578.117 740.046 581.178 740.496 584.156 740.93C584.888 741.03 585.62 741.146 586.352 741.246C586.751 741.296 587.151 741.463 587.583 741.646C587.184 741.796 586.818 741.947 586.435 741.997V742.03ZM566.656 681.685V685.036C566.656 689.07 566.656 693.121 566.656 697.155C566.656 697.588 566.622 698.022 566.606 698.455V698.555H507.799V698.405C507.749 697.988 507.716 697.588 507.699 697.205C507.4 687.836 507.866 679.352 509.13 671.25C510.411 662.982 512.44 655.731 515.302 649.129C515.934 647.662 516.899 646.712 518.413 646.079C525.35 643.145 532.436 641.295 539.49 640.561C549.122 639.561 557.789 640.561 566.007 643.595C571.031 645.462 575.838 648.113 580.297 651.48C581.361 652.28 581.777 653.264 581.628 654.68C581.494 655.964 581.178 656.848 579.881 657.598C574.008 660.948 569.966 665.999 567.87 672.65C567.038 675.251 566.656 678.135 566.656 681.719V681.685ZM506.418 679.385C506.119 683.936 506.002 688.553 505.886 693.037C505.836 694.871 505.803 696.688 505.736 698.522C499.947 698.822 450.357 698.722 445.499 698.405C445.283 697.272 445.599 696.188 445.965 695.171C449.275 686.153 452.919 678.351 457.111 671.317C461.286 664.316 465.628 658.715 470.386 654.214C471.667 653.013 473.097 652.397 474.794 652.363C482.097 652.18 489.434 653.097 496.587 655.081C501.261 656.381 505.52 658.081 509.596 660.248C507.849 666.983 506.801 673.251 506.385 679.402L506.418 679.385ZM506.784 699.339H506.718C506.718 699.339 506.751 699.289 506.768 699.272C506.768 699.289 506.768 699.322 506.784 699.339ZM436.233 742.23C436.233 742.23 436.167 742.23 436.15 742.23C436.15 742.197 436.15 742.163 436.15 742.13C436.183 742.163 436.2 742.197 436.233 742.213V742.23ZM434.952 746.564C435.002 746.897 435.002 747.264 434.985 747.614C434.985 748.281 434.952 749.014 435.302 749.665H302.766L301.485 746.564H434.952ZM439.327 751.532C439.51 751.532 439.71 751.532 439.91 751.532C440.309 751.532 440.725 751.515 441.107 751.548C442.072 751.648 443.004 751.782 444.035 751.932L444.767 752.032L442.022 777.253H308.156L303.265 751.548H439.311L439.327 751.532ZM441.773 779.403L440.924 786.871H310.036L308.589 779.32C318.154 778.953 432.723 779.02 441.773 779.387V779.403ZM440.758 788.988L440.226 793.573H311.267L310.385 788.855C319.934 788.488 431.974 788.622 440.758 789.005V788.988ZM440.043 795.706C440.043 795.806 440.043 795.906 440.043 796.023C439.843 797.823 439.643 799.624 439.46 801.407L438.845 806.992C438.728 808.109 438.612 809.226 438.479 810.392V810.476C438.279 812.343 438.08 814.26 437.863 816.143C437.764 816.977 437.913 817.577 438.313 817.994C438.862 818.561 439.71 818.561 440.292 818.511C441.623 818.411 441.823 817.244 441.922 816.627C442.688 812.076 443.47 807.458 444.251 802.974L444.434 801.941C444.701 800.391 444.967 798.824 445.25 797.24L445.549 795.473C448.078 795.406 450.057 795.406 452.037 795.473L446.797 833.447C404.077 833.463 359.593 833.48 318.853 833.48L311.666 795.656C321.115 795.323 431.708 795.373 440.043 795.706ZM448.543 833.447L459.606 753.249L464.447 753.482L449.641 833.447C449.275 833.447 448.909 833.447 448.543 833.447ZM451.421 833.447L458.441 795.54H566.522L573.526 833.347C539.456 833.38 496.553 833.413 451.421 833.43V833.447ZM560.584 753.799C560.584 753.799 560.584 753.632 560.584 753.549V753.482L565.275 753.249C565.341 753.399 565.375 753.499 565.391 753.582C566.04 758.199 566.672 762.817 567.288 767.418L568.352 775.153C569.034 780.104 569.7 785.054 570.382 790.005C571.13 795.39 571.879 800.791 572.628 806.175L574.524 819.811C575.156 824.328 575.772 828.846 576.387 833.363C576.005 833.363 575.655 833.363 575.273 833.363C570.365 806.842 565.458 780.32 560.567 753.799H560.584ZM585.42 816.61C585.021 816.71 584.888 816.694 584.838 816.677C584.772 816.577 584.705 816.193 584.655 815.877L584.622 815.643C583.807 810.959 583.008 806.175 582.226 801.557L575.456 761.45C575.123 759.45 574.79 757.466 574.458 755.399L573.992 752.615L578.467 752.182L585.437 816.594L585.42 816.61ZM412.178 631.043L412.228 631.409C419.947 631.459 427.816 631.46 434.769 631.443H464.53C495.139 631.443 526.73 631.443 557.805 631.46C559.536 631.46 561.798 631.526 563.877 632.026C574.524 634.61 581.361 641.545 584.239 652.663C584.406 653.297 584.489 653.964 584.589 654.68C584.622 654.88 584.638 655.081 584.672 655.297L583.241 655.831C583.241 655.681 583.274 655.531 583.308 655.381C583.74 652.997 582.942 651.163 580.812 649.63C575.639 645.929 570.498 643.228 565.092 641.395C557.057 638.677 548.623 637.827 539.29 638.778C531.987 639.528 524.884 641.395 517.547 644.495C515.584 645.312 514.387 646.546 513.738 648.329C513.073 650.196 512.357 652.097 511.692 653.93L511.642 654.047C511.276 655.014 510.927 655.981 510.577 656.948C510.411 657.381 510.261 657.814 510.128 658.248L510.078 658.414C509.729 658.264 509.379 658.114 509.063 657.964C498.799 652.947 487.47 650.463 475.41 650.546C472.615 650.563 470.452 651.497 468.789 653.347C468.173 654.03 467.558 654.714 466.942 655.381C465.146 657.348 463.282 659.381 461.619 661.532C456.345 668.366 451.804 676.401 447.745 686.103C447.412 686.903 447.046 687.703 446.697 688.487C445.299 691.621 443.852 694.854 443.636 698.472C441.19 698.739 432.989 698.722 429.562 698.472C429.745 698.338 429.912 698.205 430.078 698.055C430.327 697.822 430.577 697.605 430.843 697.388C431.708 696.638 432.59 695.855 433.305 694.938C435.435 692.154 435.069 689.12 432.34 686.853C431.475 686.136 430.444 685.503 429.246 684.969C426.485 683.736 423.307 683.119 419.548 683.052C412.943 682.936 406.605 684.136 400.151 685.469C399.252 685.653 398.371 685.836 397.472 686.036L397.223 686.086C394.594 686.636 391.883 687.203 389.188 687.703C387.707 687.97 386.476 688.07 385.279 687.62L384.097 675.734C384.646 675.468 385.195 675.218 385.728 674.967C387.158 674.301 388.506 673.651 389.853 672.967C392.781 671.45 396.524 669.316 399.568 666.116C402.729 662.799 404.359 658.815 404.376 654.28C404.376 651.863 403.86 649.479 402.779 646.996L402.962 646.896C403.395 646.679 403.81 646.479 404.193 646.246C404.526 646.046 404.875 645.845 405.224 645.645C406.206 645.079 407.221 644.495 408.136 643.778C409.001 643.095 409.45 642.378 409.516 641.578C409.583 640.811 409.284 640.028 408.618 639.178C408.735 638.978 408.834 638.778 408.934 638.594L409.001 638.477C409.417 637.727 409.799 637.027 410.149 636.277C410.465 635.61 411.263 633.893 409.783 632.693C410.232 631.776 410.914 631.426 412.178 631.426V631.043ZM410.515 630.559C410.581 630.459 410.648 630.359 410.714 630.259C410.714 630.326 410.731 630.409 410.764 630.476C410.681 630.493 410.598 630.526 410.498 630.559H410.515ZM411.43 626.675C411.396 626.859 411.346 627.025 411.28 627.159C409.333 630.943 406.838 633.627 403.644 635.344C402.896 635.744 402.38 635.944 401.847 635.76C401.847 635.727 401.864 635.694 401.881 635.694L403.345 634.16C405.457 631.926 407.653 629.626 409.866 627.425C410.332 626.959 410.847 626.725 411.43 626.692V626.675ZM409.749 626.092C409.849 625.958 409.932 625.825 410.016 625.708C410.065 625.775 410.132 625.825 410.199 625.858C410.032 625.925 409.882 626.008 409.749 626.092ZM414.49 616.107C414.59 616.223 414.69 616.34 414.773 616.457L414.74 616.507C414.657 616.423 414.557 616.357 414.441 616.34C414.474 616.257 414.49 616.173 414.49 616.09V616.107ZM412.927 618.424L412.078 619.957C411.213 621.508 410.332 623.108 409.4 624.642C408.901 625.458 408.252 626.309 407.47 627.142C406.505 628.176 405.507 629.209 404.542 630.226L404.476 630.293C403.328 631.476 402.147 632.71 401.016 633.96C400.55 634.477 400.018 635.344 400.084 636.144C400.134 636.694 400.583 637.094 400.999 637.461C400.783 637.677 400.55 637.877 400.317 638.094C399.485 638.861 398.637 639.661 397.838 640.495C397.073 641.295 396.641 641.878 396.69 642.545C396.724 643.128 397.09 643.595 397.738 644.162L397.306 644.645C396.69 645.329 396.058 646.046 395.476 646.779C395.044 647.312 394.578 648.013 394.661 648.796C394.711 649.179 394.877 649.53 395.16 649.846L393.247 653.23C391.184 656.848 389.254 660.281 387.291 663.849C386.859 664.632 386.293 664.866 385.528 664.982C375.879 666.499 365.549 668.116 355.434 669.733C354.503 669.883 353.771 669.7 352.922 669.133C349.945 667.099 346.9 665.082 343.923 663.082L343.607 662.865C342.492 662.115 341.361 661.365 340.246 660.632C339.98 660.448 339.73 660.265 339.431 660.065L339.315 659.981C339.381 659.831 339.431 659.715 339.498 659.615L344.239 651.213C348.73 643.245 353.372 635.027 357.93 626.942C358.312 626.242 358.845 626.042 359.577 625.925C364.052 625.225 368.51 624.525 372.985 623.825L384.114 622.074C393.646 620.574 403.178 619.074 412.694 617.574C412.91 617.54 413.143 617.524 413.409 617.49C413.243 617.824 413.093 618.107 412.943 618.39L412.927 618.424ZM356.083 625.192C356.366 624.675 356.715 624.458 357.431 624.358C360.408 623.908 363.436 623.425 366.364 622.958C367.861 622.725 369.342 622.475 370.839 622.241L397.838 617.974C402.613 617.224 407.387 616.457 412.161 615.707C412.594 615.64 412.86 615.64 413.043 615.757C413.043 615.757 413.027 615.757 413.01 615.757L409.001 616.407C405.208 617.023 401.415 617.64 397.605 618.224C383.315 620.474 371.321 622.341 359.177 624.225C357.847 624.425 356.948 625.075 356.266 626.292C353.438 631.376 350.51 636.544 347.682 641.528L342.808 650.163C341.211 652.997 339.614 655.814 338 658.648C337.934 658.765 337.834 658.881 337.701 659.015L337.219 658.648C337.219 658.648 337.252 658.548 337.268 658.514L342.974 648.396C347.333 640.661 351.708 632.926 356.05 625.192H356.083ZM342.941 644.712C342.475 643.678 342.143 642.978 342.509 642.145H344.488L342.958 644.779L342.608 644.862L342.941 644.712ZM345.769 641.145C345.769 641.145 345.819 641.128 345.836 641.111C345.836 641.128 345.802 641.161 345.802 641.178C345.802 641.178 345.786 641.145 345.769 641.145ZM350.444 631.543C350.277 631.876 350.144 632.176 349.978 632.476C349.03 634.193 348.065 635.877 347.017 637.744C345.486 640.445 345.486 640.461 342.342 640.294C342.226 640.128 342.109 639.978 341.976 639.811C341.627 639.361 341.311 638.928 341.011 638.477C340.695 638.011 340.645 637.827 340.662 637.744C340.912 636.094 341.194 634.41 341.494 632.76L341.71 631.543H350.444ZM341.261 630.426C341.261 630.426 341.261 630.426 341.261 630.409C341.261 630.409 341.278 630.409 341.294 630.426H341.261ZM313.463 551.728L313.962 546.794C315.809 539.093 323.644 536.409 323.744 536.375C326.023 535.475 328.368 535.142 330.714 535.359C338.067 536.075 343.34 540.559 344.821 547.344C344.921 547.794 345.021 548.244 345.104 548.678C344.954 548.678 344.788 548.744 344.688 548.861C343.324 550.378 341.96 550.495 340.396 550.495C336.919 550.495 333.625 549.528 330.614 547.611C329.666 547.011 328.734 546.377 327.786 545.76C327.254 545.394 326.705 545.044 326.173 544.694C325.84 544.477 325.507 544.26 325.108 544.027L324.492 543.643C324.326 543.543 324.126 543.527 323.96 543.61C323.794 543.693 323.677 543.86 323.644 544.043C323.577 544.544 323.527 545.01 323.478 545.51C323.378 546.494 323.278 547.444 323.078 548.344C322.796 549.644 322.446 551.128 321.847 552.428C320.949 554.362 319.884 554.729 317.772 553.795C316.59 553.278 315.343 552.812 314.145 552.362L313.646 552.178C313.546 552.145 313.43 552.112 313.313 552.078C313.396 551.995 313.463 551.878 313.48 551.745L313.463 551.728ZM312.897 557.929C312.049 557.713 311.367 557.463 310.818 557.146C309.803 556.579 309.271 554.995 309.653 553.762C309.853 553.112 310.153 552.678 312.132 552.945C312.581 553.012 312.947 553.095 313.263 553.212L313.796 553.412C314.96 553.845 316.175 554.295 317.322 554.812C319.984 555.979 321.681 555.396 322.845 552.895C323.494 551.495 323.86 549.928 324.16 548.578C324.359 547.627 324.476 546.661 324.576 545.627C324.592 545.444 324.609 545.244 324.642 545.044C324.975 545.244 325.274 545.427 325.557 545.627C326.089 545.977 326.638 546.344 327.171 546.694C328.102 547.311 329.05 547.961 330.015 548.561C333.209 550.578 336.703 551.612 340.396 551.612C341.81 551.612 343.29 551.511 344.721 550.361L344.771 550.678C344.904 551.445 345.004 552.095 345.07 552.745C345.387 555.829 345.553 559.88 344.172 563.78C342.359 568.915 338.949 571.815 334.058 572.399C330.747 572.799 327.636 572.049 324.808 570.182C321.797 568.181 319.385 565.281 317.206 561.03C317.139 560.88 317.073 560.713 317.023 560.547L317.755 560.363C317.988 560.296 318.154 560.096 318.171 559.863C318.171 559.613 318.038 559.396 317.822 559.313C316.507 558.796 315.226 558.496 313.979 558.179L313.879 558.529L313.962 558.179C313.613 558.096 313.263 558.013 312.914 557.913L312.897 557.929ZM308.123 578.616C308.456 578.083 308.805 577.566 309.171 577.016C309.836 576.033 310.518 574.999 311.101 573.932C313.513 569.515 314.162 564.581 314.611 559.913C314.611 559.746 314.578 559.596 314.511 559.48C314.96 559.596 315.409 559.713 315.859 559.846C315.859 559.863 315.825 559.896 315.825 559.913C315.759 560.046 315.742 560.213 315.792 560.363C315.825 560.463 315.859 560.58 315.908 560.713C315.992 560.997 316.075 561.28 316.224 561.563C318.487 565.997 321.032 569.031 324.21 571.132C326.372 572.565 328.718 573.399 331.18 573.582C331.147 573.632 331.13 573.699 331.113 573.766L329.782 582.234C329.716 582.634 329.782 582.934 329.932 583.184C329.782 583.267 329.683 583.401 329.649 583.567L329.416 584.818C329.267 585.634 329.134 586.351 329.017 587.068C328.851 588.118 328.668 589.235 328.551 590.369C328.502 590.885 328.335 591.135 327.587 591.285C320.733 592.569 313.563 589.385 309.753 583.384C309.57 583.101 309.387 582.767 309.221 582.467C308.655 581.45 308.056 580.383 307.092 579.867C307.008 579.817 306.925 579.783 306.842 579.75C307.391 579.533 307.807 579.183 308.14 578.65L308.123 578.616ZM286.63 589.719C288.027 586.601 290.456 584.134 293.85 582.384C296.445 581.05 299.323 580.45 302.65 580.583C303.116 580.6 303.598 580.583 304.031 580.55C304.962 580.5 305.91 580.45 306.526 580.784C307.208 581.15 307.724 582.067 308.223 582.951C308.406 583.284 308.605 583.617 308.788 583.934C312.847 590.319 320.467 593.686 327.753 592.336C328.901 592.119 329.5 591.519 329.616 590.469C329.733 589.352 329.916 588.252 330.082 587.218C330.198 586.518 330.315 585.818 330.481 584.968L330.564 584.551C330.781 584.701 331.013 584.834 331.213 584.968C332.095 585.534 332.843 586.018 333.559 586.568C337.069 589.302 339.83 593.019 341.993 597.887C343.956 602.321 344.455 606.805 343.523 611.573C342.642 616.007 341.86 620.541 341.095 624.908L341.061 625.075C340.729 627.025 340.379 628.992 340.03 630.943C339.764 632.46 339.481 633.96 339.198 635.494L338.899 637.144C336.803 636.794 334.307 636.477 332.145 638.111C333.193 635.327 334.241 632.51 335.256 629.709C338.233 621.458 340.13 614.623 341.228 608.205C341.344 607.572 341.394 606.938 341.444 606.255C341.461 605.988 341.494 605.721 341.51 605.455C341.544 605.155 341.327 604.888 341.028 604.855L340.645 604.805C340.379 604.771 340.113 604.955 340.047 605.221L339.947 605.571C339.864 605.838 339.797 606.138 339.73 606.422C339.614 607.038 339.514 607.672 339.398 608.305C339.215 609.405 339.015 610.556 338.766 611.656C336.869 620.124 334.024 628.259 331.479 635.094C330.065 638.911 328.568 642.795 327.087 646.612C326.489 648.163 325.89 649.713 325.291 651.28L325.174 651.213C324.842 651.03 324.492 650.863 324.143 650.68C322.912 650.046 321.664 649.396 320.433 648.763C317.539 647.246 314.528 645.679 311.517 644.279C308.323 642.778 305.345 642.311 302.434 642.845C302.051 642.912 301.885 642.878 301.818 642.845C300.321 642.261 298.857 641.678 297.31 641.045L296.295 640.628L296.345 640.411C296.428 640.028 296.511 639.694 296.611 639.361C300.088 627.525 303.099 615.257 305.578 602.888C306.227 599.654 306.875 595.386 306.143 590.985C305.578 587.601 304.347 584.918 302.367 582.801C302.151 582.567 301.885 582.451 301.668 582.367C301.585 582.334 301.519 582.3 301.452 582.267C301.269 582.167 301.036 582.184 300.853 582.317C300.687 582.451 300.604 582.667 300.637 582.867C300.77 583.534 301.103 583.967 301.402 584.301C302.949 586.135 303.931 588.385 304.413 591.185C304.912 594.086 304.846 597.203 304.197 600.704C302.35 610.689 299.888 621.141 296.462 633.593C296.062 635.06 295.63 636.544 295.197 638.094L294.731 639.761C292.752 638.944 290.689 638.794 288.31 639.278C285.349 639.894 282.87 641.028 281.872 642.261C281.706 642.461 281.706 642.728 281.855 642.945C282.005 643.145 282.271 643.228 282.504 643.145C282.754 643.045 282.987 642.962 283.22 642.862C283.636 642.695 283.985 642.562 284.334 642.461C284.867 642.311 285.382 642.145 285.915 641.978C287.329 641.545 288.809 641.078 290.256 640.861C291.188 640.711 292.369 640.878 293.75 641.345C294.998 641.778 296.229 642.345 297.443 642.912C297.925 643.145 298.424 643.378 298.907 643.595C299.023 643.645 299.14 643.712 299.273 643.778C296.911 644.812 294.964 646.379 293.5 648.446C292.219 650.246 291.038 652.163 289.907 654.03L289.791 654.214C289.408 654.83 289.025 655.447 288.643 656.064C288.327 656.564 288.044 657.081 287.778 657.581L287.611 657.881L287.179 657.764C286.647 657.614 286.197 657.481 285.748 657.331C282.305 656.147 278.329 654.564 275.018 651.863C272.606 649.896 271.342 647.946 271.042 645.712C270.71 643.345 270.593 641.295 270.693 639.411C270.959 634.443 272.074 629.659 273.255 625.242C276.682 612.389 281.972 600.187 286.647 589.735L286.63 589.719ZM270.56 629.809C271.192 627.725 271.858 625.642 272.54 623.575C272.407 624.025 272.29 624.492 272.157 624.942C271.591 627.042 271.059 629.226 270.593 631.476C270.543 631.443 270.493 631.426 270.427 631.409C270.161 631.343 269.878 631.493 269.778 631.76C269.645 632.126 269.529 632.476 269.412 632.843C269.379 632.776 269.346 632.71 269.296 632.643C269.163 632.51 268.98 632.46 268.813 632.493C269.662 631.826 270.211 630.993 270.56 629.809ZM269.196 637.394C269.046 638.894 268.913 640.411 268.863 641.928C268.713 647.279 270.909 651.447 275.401 654.33C275.601 654.464 275.8 654.597 276 654.714C276.732 655.197 277.48 655.697 278.312 656.064C280.026 656.831 281.789 657.564 283.552 658.281C284.234 658.565 284.916 658.831 285.582 659.115C285.931 659.265 286.297 659.398 286.68 659.565H286.696L284.251 663.799C283.785 663.799 283.336 663.799 282.887 663.782H282.787C282.255 663.782 281.739 663.765 281.24 663.765C280.441 663.765 279.793 663.799 279.194 663.849C277.447 664.016 275.584 664.249 273.87 664.832C272.739 665.232 271.724 665.832 270.66 666.483C270.394 666.649 270.128 666.799 269.861 666.966C266.917 656.714 266.684 646.996 269.196 637.394ZM268.264 633.743C268.264 633.743 268.231 633.893 268.214 633.977C268.098 634.46 267.965 634.96 267.815 635.51C267.516 636.594 267.216 637.711 267.067 638.861C266.917 639.961 266.401 640.361 265.32 640.878C262.858 642.028 260.446 643.362 257.984 644.729C254.656 646.596 253.276 649.546 253.858 653.497C253.958 654.13 253.974 654.78 253.991 655.514C253.991 655.631 253.991 655.731 253.991 655.847L252.577 655.331C252.727 647.029 261.028 635.677 268.264 633.727V633.743ZM254.973 657.048C254.973 657.048 254.973 657.048 254.956 657.048C254.956 657.048 254.956 657.048 254.956 657.064L254.973 657.048ZM219.755 675.418L220.121 675.451C220.154 675.134 220.188 674.834 220.254 674.551C222.633 664.399 231.533 656.681 241.914 655.797C242.596 655.731 243.311 655.714 244.01 655.714C250.231 655.714 256.17 658.014 260.745 662.215C265.852 666.883 268.664 673.251 268.697 680.152C268.747 692.171 268.747 704.373 268.73 716.158C268.73 720.843 268.73 725.543 268.73 730.228C268.73 730.561 268.697 730.894 268.664 731.294L263.623 730.144V717.409C263.623 707.623 263.623 697.855 263.623 688.07V687.737C263.623 686.62 263.623 685.453 263.457 684.319C262.325 676.318 256.087 669.633 248.285 668.033C239.967 666.333 231.799 669.867 227.474 677.035C227.241 677.418 227.008 677.801 226.792 678.185L226.709 678.335L220.154 675.551V675.484L219.805 675.418H219.755ZM261.843 717.525V728.677C261.843 728.977 261.826 729.277 261.793 729.711C261.261 729.594 260.745 729.477 260.246 729.344L260.13 729.311C258.383 728.877 256.736 728.477 255.056 728.177C253.841 727.961 253.292 727.461 252.843 726.21C249.949 717.825 246.788 708.89 242.629 697.238C240.117 690.187 235.642 684.419 229.337 680.102C229.004 679.885 228.688 679.652 228.356 679.402L228.239 679.318C228.322 679.102 228.389 678.935 228.472 678.785C231.45 673.034 237.588 669.316 244.093 669.316C245.657 669.316 247.22 669.533 248.718 669.95C256.536 672.117 261.81 678.985 261.843 687.053C261.876 697.205 261.86 707.54 261.843 717.525ZM172.56 681.269C176.569 677.218 181.743 675.151 187.965 675.151H193.388C198.445 675.151 203.502 675.151 208.559 675.151C212.086 675.151 214.748 675.418 217.193 676.001C217.692 676.118 218.191 676.068 218.724 676.101C218.824 676.101 218.907 676.084 218.99 676.034C219.04 676.201 219.14 676.334 219.306 676.401L226.676 679.535C226.775 679.585 226.892 679.585 227.008 679.552C227.008 679.702 227.091 679.852 227.224 679.952L227.69 680.285C228.023 680.535 228.356 680.769 228.705 681.002C234.81 685.186 239.152 690.77 241.581 697.588C245.74 709.24 248.884 718.175 251.795 726.56C252.361 728.194 253.242 728.977 254.856 729.261C256.52 729.544 258.15 729.961 259.88 730.378C260.629 730.561 261.394 730.744 262.176 730.928C262.209 730.928 262.276 730.944 262.309 730.944C262.409 730.944 262.508 730.911 262.592 730.861C262.675 730.978 262.775 731.061 262.924 731.094L269.013 732.511C269.013 732.511 269.113 732.511 269.146 732.511C269.262 732.511 269.379 732.478 269.479 732.411C269.512 732.395 269.512 732.361 269.545 732.345C269.612 732.478 269.728 732.578 269.878 732.628C270.061 732.678 270.244 732.728 270.444 732.795C270.859 732.928 271.292 733.061 271.741 733.161C276.649 734.312 281.872 735.545 287.112 736.762C291.987 737.896 295.929 740.48 298.807 744.447C299.273 745.08 299.755 745.414 300.321 745.597C300.288 745.63 300.254 745.647 300.221 745.68C300.121 745.831 300.105 746.031 300.171 746.197L301.918 750.415C301.968 750.531 302.051 750.631 302.167 750.681C302.101 750.798 302.068 750.915 302.101 751.048L307.208 777.87C307.258 778.12 307.458 778.286 307.707 778.303C307.508 778.42 307.391 778.653 307.441 778.887L309.088 787.505C309.121 787.688 309.254 787.838 309.421 787.905C309.387 787.938 309.354 787.955 309.337 787.988C309.254 788.105 309.221 788.272 309.238 788.405L310.319 794.189C310.369 794.423 310.552 794.606 310.785 794.623C310.585 794.74 310.452 794.956 310.502 795.206L317.755 833.447C316.524 833.447 315.293 833.447 314.079 833.447L306.742 794.806C306.709 794.64 306.609 794.506 306.459 794.439C306.543 794.323 306.576 794.173 306.559 794.039L305.478 788.138C305.428 787.905 305.245 787.738 305.012 787.705C305.179 787.588 305.278 787.372 305.245 787.155L303.681 778.753C303.648 778.553 303.482 778.37 303.282 778.32C303.216 778.303 303.066 778.286 302.833 778.27C303.016 778.186 303.149 778.036 303.166 777.836C303.349 776.453 301.119 764.167 300.338 762.184C300.238 761.933 299.988 761.8 299.739 761.833H299.722C299.722 761.833 299.789 761.667 299.789 761.567V758.616C299.789 758.383 299.639 758.166 299.406 758.083C299.339 758.066 299.19 758.066 298.957 758.066C299.057 758.033 299.173 757.999 299.29 757.983C299.539 757.916 299.722 757.683 299.705 757.433C299.689 756.833 299.473 756.466 299.206 756.199C299.323 756.066 299.389 755.882 299.339 755.699L298.242 750.865C298.192 750.648 298.009 750.481 297.792 750.448C297.842 750.331 297.842 750.215 297.809 750.081C297.227 748.348 296.362 746.914 295.131 745.697C294.914 745.497 294.632 745.397 294.332 745.347C294.415 745.147 294.382 744.914 294.216 744.747C294.066 744.597 293.933 744.447 293.8 744.297C293.567 744.047 293.384 743.83 293.151 743.647C291.205 742.03 288.992 740.913 286.58 740.346L282.571 739.413C278.911 738.546 275.235 737.696 271.575 736.846C271.275 736.779 270.976 736.745 270.627 736.695C270.46 736.679 270.294 736.646 270.094 736.629C269.961 736.629 269.828 736.662 269.712 736.729C269.662 736.546 269.512 736.379 269.312 736.329L263.324 734.945C263.157 734.912 262.991 734.945 262.841 735.045C262.841 735.045 262.824 735.079 262.808 735.079C262.741 734.912 262.608 734.778 262.409 734.728L255.255 733.045C255.072 733.011 254.873 733.045 254.74 733.195C254.607 733.328 254.557 733.528 254.59 733.712C254.64 733.945 254.69 734.162 254.723 734.345C254.806 734.728 254.873 735.045 254.973 735.345C255.255 736.162 255.538 736.996 255.838 737.812C256.337 739.213 256.852 740.646 257.318 742.096C257.468 742.563 257.667 742.947 257.917 743.263C257.368 743.163 256.786 743.097 256.237 743.163C255.438 743.247 254.623 743.33 253.808 743.413C253.808 743.33 253.808 743.247 253.808 743.163C253.725 742.897 253.658 742.663 253.592 742.397C253.475 741.963 253.359 741.58 253.226 741.213L247.869 726.044L247.769 725.744C244.692 717.025 241.598 708.29 238.537 699.555C237.039 695.288 234.943 691.721 232.132 688.653C231.966 688.47 231.766 688.287 231.566 688.103L231.267 687.82C231.101 687.67 230.868 687.62 230.668 687.72C230.468 687.803 230.335 688.02 230.335 688.237C230.352 689.537 247.42 739.563 249.316 743.864C248.718 743.93 248.119 743.98 247.503 744.047C247.503 743.98 247.503 743.897 247.487 743.83L227.041 684.653C226.942 684.386 226.676 684.236 226.393 684.303L225.827 684.436V683.752C225.827 683.569 225.744 683.402 225.594 683.302C224.114 682.252 222.35 681.419 219.888 680.569C219.689 680.502 219.472 680.552 219.323 680.685C219.173 680.835 219.123 681.052 219.173 681.252C220.254 684.769 221.419 688.087 222.55 691.287C223.116 692.887 223.698 694.554 224.247 696.171C224.33 696.388 224.53 696.555 224.762 696.555C224.796 696.555 224.879 696.555 224.912 696.538L225.295 696.438C225.295 696.972 225.295 697.488 225.295 698.022C225.295 698.839 225.411 699.555 225.627 700.172C229.986 712.824 234.428 725.677 238.72 738.112L240.633 743.63C240.699 743.813 240.766 743.997 240.866 744.247L241.049 744.714C240.483 744.78 239.917 744.83 239.352 744.897C239.352 744.83 239.352 744.747 239.335 744.68L226.859 708.557C226.775 708.307 226.526 708.174 226.276 708.19L225.927 708.224C225.927 708.224 225.827 708.24 225.794 708.257C225.794 707.707 225.794 707.157 225.794 706.607C225.794 705.857 225.694 705.19 225.494 704.64C224.047 700.372 222.533 696.038 221.086 691.854L220.337 689.72C220.271 689.52 220.171 689.32 220.088 689.137C220.055 689.053 220.021 688.987 219.988 688.903C219.872 688.653 219.605 688.52 219.339 688.587L218.94 688.687C218.923 688.003 218.89 687.32 218.84 686.636C218.74 685.036 218.158 683.502 217.609 682.002C217.41 681.469 217.21 680.919 217.027 680.385C216.861 679.885 216.228 679.485 215.746 679.418C214.598 679.235 213.417 679.102 212.136 678.952L210.656 678.768C210.473 678.735 210.273 678.818 210.14 678.968C210.023 679.118 209.99 679.318 210.04 679.502L217.326 700.606C217.393 700.806 217.576 700.956 217.792 700.972L218.125 701.006C218.241 701.006 218.341 700.972 218.424 700.906C218.524 703.539 219.09 706.207 220.171 709.007C220.986 711.141 221.735 713.341 222.45 715.475L222.5 715.642C222.833 716.609 223.149 717.575 223.481 718.526C223.731 719.259 224.014 719.976 224.596 720.743C224.696 720.876 224.862 720.959 225.029 720.959C225.062 720.959 225.128 720.959 225.162 720.959C225.212 720.959 225.262 720.926 225.311 720.909C225.311 721.426 225.311 721.959 225.311 722.476C225.311 723.293 225.428 724.027 225.627 724.627C227.59 730.394 229.62 736.245 231.583 741.93L232.631 744.947C232.681 745.08 232.731 745.197 232.831 745.38C232.864 745.43 232.897 745.514 232.93 745.581L230.768 745.797C230.818 744.214 227.624 734.729 226.426 732.911C226.293 732.711 226.027 732.611 225.81 732.678C225.794 732.678 225.777 732.695 225.761 732.695C225.761 732.228 225.761 731.761 225.761 731.294C225.761 730.728 225.727 729.894 225.461 729.128C224.08 725.077 222.666 720.959 221.286 716.975L220.304 714.158C220.238 713.958 220.154 713.758 220.055 713.541L219.955 713.308C219.855 713.058 219.589 712.924 219.339 712.974L218.973 713.041C218.94 712.058 218.873 711.091 218.707 710.124C218.324 707.857 217.493 705.656 216.678 703.523C216.362 702.689 216.029 701.822 215.729 700.956C214.049 696.071 212.352 691.187 210.656 686.303L208.876 681.152C208.742 680.769 208.609 680.402 208.46 679.985L208.21 679.302C208.127 679.085 207.927 678.935 207.694 678.935H202.171C201.988 678.935 201.822 679.018 201.722 679.168C201.622 679.318 201.589 679.502 201.656 679.668L217.31 724.993C217.393 725.21 217.593 725.36 217.825 725.36C217.859 725.36 217.925 725.36 217.942 725.36L218.408 725.26C218.474 727.777 218.99 730.344 220.005 733.028C220.936 735.495 221.801 738.012 222.616 740.446L222.666 740.596C223.049 741.713 223.432 742.83 223.814 743.947C223.947 744.33 224.164 744.83 224.679 745.314C224.779 745.414 224.912 745.464 225.062 745.464C225.112 745.464 225.212 745.447 225.262 745.43C225.311 745.414 225.361 745.38 225.395 745.364V746.147C225.395 746.147 225.411 746.247 225.428 746.297C224.563 746.381 223.698 746.481 222.833 746.564C222.833 746.497 222.833 746.414 222.833 746.347C222.783 746.181 222.75 746.031 222.716 745.881L222.35 745.964L222.683 745.797C222.6 745.464 222.533 745.18 222.45 744.897C221.868 743.18 221.269 741.463 220.653 739.679L219.971 737.696C219.888 737.479 219.705 737.329 219.456 737.329C219.239 737.329 219.04 737.462 218.94 737.662C218.907 737.729 218.89 737.812 218.857 737.896C218.857 737.212 218.857 736.512 218.857 735.829C218.857 734.962 218.69 734.095 218.424 733.328C212.752 716.825 206.962 700.055 201.356 683.836L200.308 680.819C200.192 680.469 200.059 680.118 199.892 679.752L199.676 679.218C199.593 679.002 199.393 678.868 199.16 678.868H193.77C193.604 678.868 193.438 678.952 193.321 679.085C193.222 679.218 193.188 679.402 193.238 679.568L193.438 680.285C193.554 680.735 193.671 681.152 193.82 681.552C199.343 697.538 204.866 713.541 210.389 729.528C212.269 734.979 214.149 740.413 216.045 745.864L216.112 746.064C216.228 746.447 216.411 746.947 216.861 747.231C216.711 747.264 216.528 747.314 216.312 747.347C216.079 747.397 215.912 747.581 215.879 747.814C215.846 748.048 215.962 748.264 216.162 748.381C223.415 752.298 227.258 758.316 227.89 766.818C227.907 767.101 228.139 767.301 228.406 767.318C228.239 767.435 228.139 767.634 228.173 767.851L228.639 770.818C228.672 771.035 228.821 771.202 229.021 771.252C229.038 771.252 229.071 771.252 229.088 771.252C229.021 771.285 228.971 771.335 228.938 771.385C228.855 771.502 228.805 771.652 228.838 771.802L229.82 777.77C229.853 777.936 229.953 778.086 230.102 778.153C230.003 778.27 229.953 778.437 229.986 778.603L231.45 787.372C231.483 787.572 231.633 787.738 231.816 787.805C231.733 787.905 231.683 788.022 231.683 788.155C231.683 789.622 231.949 791.005 232.232 792.456C232.332 793.006 232.448 793.573 232.531 794.123C232.564 794.306 232.681 794.456 232.847 794.539C232.814 794.556 232.797 794.59 232.764 794.606C232.681 794.723 232.648 794.873 232.664 795.023C234.727 807.859 236.906 820.961 238.986 833.33C237.672 833.33 236.341 833.33 235.06 833.33C234.611 827.279 228.921 795.44 228.855 795.106C228.822 794.94 228.722 794.806 228.555 794.723C228.439 794.656 228.322 794.656 228.189 794.69C228.655 794.039 228.772 793.323 228.589 792.472C228.372 791.489 228.206 790.472 228.04 789.472C227.973 789.038 227.89 788.605 227.823 788.172C227.79 788.022 227.707 787.872 227.557 787.788C227.441 787.722 227.324 787.655 227.208 787.605C227.474 787.521 227.657 787.271 227.607 786.988L226.16 778.286C226.11 778.02 225.894 777.82 225.611 777.82H225.511C225.91 776.436 225.694 775.169 225.478 773.936L225.378 773.352C225.079 771.502 224.896 770.602 224.247 770.002C224.347 769.985 224.43 769.952 224.496 769.885C224.646 769.752 224.713 769.568 224.679 769.385C224.613 769.001 224.579 768.651 224.53 768.318C224.43 767.518 224.347 766.818 224.114 766.151C224.03 765.918 223.864 765.734 223.664 765.568C223.748 765.534 223.814 765.501 223.881 765.451C224.014 765.317 224.08 765.117 224.03 764.934C223.931 764.484 223.847 764.067 223.764 763.667C223.598 762.884 223.465 762.217 223.249 761.55C221.385 756.016 217.576 752.382 211.92 750.765C209.757 750.148 207.511 749.665 205.349 749.181L203.852 748.864C203.17 748.714 202.421 748.664 201.689 748.748C200.574 748.864 199.427 748.964 198.262 749.081C198.262 748.998 198.262 748.898 198.262 748.814C198.229 748.681 198.196 748.564 198.179 748.448C198.112 748.114 198.029 747.748 197.63 747.631C196.166 747.197 194.685 746.797 193.238 746.397L192.124 746.097C191.907 746.031 191.658 746.131 191.525 746.314L191.242 746.731C191.142 746.881 191.109 747.064 191.175 747.231L192.024 749.665C192.024 749.665 192.04 749.698 192.057 749.715C191.458 749.781 190.843 749.831 190.227 749.898C190.244 749.798 190.244 749.715 190.227 749.615C190.111 749.265 189.994 748.914 189.878 748.564C189.612 747.731 189.362 746.931 189.029 746.181C188.813 745.647 188.198 745.28 187.715 745.164C186.368 744.814 185.037 744.514 183.49 744.147L181.627 743.714C181.444 743.664 181.244 743.714 181.111 743.864C180.978 743.997 180.928 744.197 180.961 744.38L182.458 750.648C182.458 750.648 182.475 750.681 182.492 750.715C182.159 750.765 181.859 750.865 181.577 750.948C181.444 750.998 181.31 751.048 181.161 751.081C180.878 751.165 180.712 751.448 180.778 751.748C180.895 752.215 181.094 752.532 181.327 752.748C181.277 752.782 181.227 752.815 181.194 752.865C181.161 752.915 181.127 752.949 181.094 752.982C180.994 753.099 180.861 753.249 180.828 753.499C180.545 756.616 180.712 756.916 183.556 757.783C183.556 757.783 183.54 757.816 183.523 757.816C182.924 759.066 173.026 814.06 169.965 832.53C169.666 832.496 169.366 832.463 169.067 832.43V816.077C169.433 814.043 169.799 812.009 170.148 809.976C170.98 805.275 171.812 800.591 172.643 795.89L172.76 795.223C174.706 784.138 176.736 772.685 178.832 761.433C179.597 757.366 179.481 753.615 178.482 749.648C175.521 737.779 172.41 724.977 169.067 710.824V685.519C170.015 683.986 171.179 682.519 172.577 681.102L172.56 681.269ZM224.679 684.086V694.188C224.297 693.104 223.914 692.004 223.548 690.937C222.55 688.07 221.502 685.119 220.52 682.019C222.234 682.669 223.548 683.319 224.679 684.086ZM219.556 693.971C219.556 693.254 219.539 692.537 219.539 691.821V691.054L219.971 692.271C221.419 696.455 222.933 700.789 224.38 705.056C224.53 705.506 224.613 706.057 224.613 706.673C224.629 710.874 224.629 715.008 224.613 718.559C224.563 718.426 224.53 718.309 224.48 718.175C224.13 717.159 223.781 716.158 223.432 715.108C222.716 712.974 221.968 710.774 221.136 708.624C219.822 705.223 219.273 702.006 219.489 698.822C219.589 697.205 219.572 695.555 219.539 693.954L219.556 693.971ZM217.776 695.938V696.038C217.776 696.888 217.742 697.722 217.742 698.572L211.338 680.002L211.986 680.085C213.284 680.235 214.399 680.369 215.53 680.552C215.679 680.569 215.912 680.735 215.929 680.769C216.112 681.319 216.312 681.885 216.511 682.436C217.044 683.852 217.576 685.336 217.676 686.77C217.875 689.82 217.825 692.937 217.792 695.955L217.776 695.938ZM219.556 717.992C219.556 717.159 219.539 716.308 219.539 715.475L220.204 717.409C221.585 721.376 222.999 725.477 224.363 729.511C224.563 730.111 224.596 730.828 224.596 731.328C224.613 735.195 224.613 739.063 224.596 742.997C224.263 742.046 223.947 741.096 223.631 740.146C222.799 737.696 221.934 735.162 221.003 732.695C219.822 729.594 219.323 726.66 219.489 723.76C219.589 721.843 219.572 719.876 219.539 717.975L219.556 717.992ZM217.759 723.076L202.92 680.118H207.279L207.445 680.585C207.578 680.935 207.694 681.269 207.794 681.602L209.574 686.753C211.271 691.637 212.968 696.521 214.648 701.406C214.947 702.273 215.28 703.156 215.613 704.006C216.395 706.09 217.21 708.224 217.576 710.391C217.925 712.508 217.859 714.758 217.792 716.942C217.759 717.892 217.726 718.876 217.742 719.859C217.742 720.943 217.742 722.009 217.742 723.093L217.759 723.076ZM657.535 830.363C655.572 828.562 653.609 826.745 651.646 824.945L640.9 815.06C631.351 806.292 621.486 797.207 611.771 788.238C610.773 787.322 609.708 786.905 608.294 786.905C602.755 786.938 597.115 786.938 591.659 786.938H583.99L583.125 779.137H618.708C619.008 779.137 619.257 778.903 619.257 778.603C619.34 775.169 619.324 771.802 619.324 768.535C619.324 766.984 619.324 765.451 619.324 763.917C619.324 760.567 619.324 757.199 619.324 753.849V753.265C619.623 754.899 619.922 756.516 620.222 758.149L620.671 760.617C621.187 763.417 621.719 766.301 622.185 769.185C622.434 770.702 623.216 771.652 624.514 772.035L625.495 772.319C627.042 772.785 628.639 773.269 630.27 773.502C636.641 774.436 642.497 774.636 648.17 774.119C650.332 773.919 652.511 773.619 654.657 773.319C655.539 773.202 656.421 773.069 657.286 772.952C657.485 772.919 657.685 772.869 657.901 772.819C658.001 772.786 658.118 772.769 658.217 772.735C660.929 772.202 662.36 770.668 662.825 767.768C664.04 760.3 665.454 752.748 666.818 745.43C667.3 742.797 667.799 740.163 668.282 737.529C668.332 737.296 668.398 737.062 668.482 736.762C673.223 738.879 678.662 741.696 683.32 746.397C683.453 746.531 683.636 746.581 683.819 746.547C684.002 746.514 684.152 746.397 684.219 746.214C684.285 746.047 684.368 745.897 684.435 745.747C684.585 745.447 684.718 745.147 684.768 744.814C686.049 734.212 684.834 724.21 681.158 715.075C679.677 711.407 677.747 708.574 675.285 706.44C681.956 708.424 688.328 711.357 695.664 715.075C695.514 737.446 695.414 774.602 691.389 795.156C685.5 814.476 677.248 826.795 657.502 830.329L657.535 830.363Z" fill="white"/>
<path d="M185.02 680.485C185.137 680.919 185.253 681.302 185.386 681.686L191.142 698.355C196.432 713.658 201.706 728.961 206.979 744.28C207.345 745.347 207.911 746.381 209.524 746.581C210.423 746.698 211.321 746.931 212.419 747.214C212.901 747.348 213.417 747.481 213.983 747.598C214.016 747.598 214.082 747.598 214.116 747.598C214.265 747.598 214.415 747.531 214.532 747.414C214.665 747.264 214.715 747.048 214.648 746.864L191.342 679.385C191.259 679.168 191.059 679.018 190.826 679.018H185.353C185.187 679.018 185.02 679.102 184.904 679.235C184.804 679.368 184.771 679.552 184.821 679.719C184.904 679.985 184.97 680.219 185.037 680.452L185.02 680.485ZM190.41 680.152L213.251 746.297C213.034 746.247 212.835 746.197 212.635 746.147C211.554 745.864 210.622 745.631 209.657 745.497C208.676 745.364 208.327 744.864 208.01 743.93C202.82 728.828 197.613 713.742 192.39 698.655L186.418 681.352C186.285 680.985 186.185 680.619 186.068 680.185L190.41 680.169V680.152Z" fill="white"/>
<path d="M177.934 684.636C183.839 701.722 189.745 718.792 195.65 735.879L196.815 739.229C196.948 739.613 197.081 739.979 197.231 740.38C197.497 741.13 197.78 741.913 198.013 742.68C198.295 743.614 198.861 744.114 199.826 744.314C200.874 744.514 201.905 744.764 203.12 745.047C203.652 745.18 204.201 745.297 204.8 745.447C204.833 745.447 204.9 745.447 204.933 745.447C205.083 745.447 205.232 745.38 205.349 745.264C205.482 745.114 205.532 744.897 205.465 744.714L183.14 680.052C183.057 679.802 182.791 679.652 182.525 679.685C180.645 680.002 179.198 680.819 177.584 681.919C177.385 682.052 177.301 682.302 177.368 682.536C177.434 682.736 177.484 682.952 177.551 683.186C177.667 683.636 177.817 684.136 177.983 684.619L177.934 684.636ZM182.209 680.885L204.051 744.13C203.802 744.08 203.569 744.014 203.336 743.964C202.122 743.68 201.09 743.43 200.009 743.213C199.443 743.097 199.194 742.88 199.044 742.347C198.811 741.546 198.512 740.746 198.245 739.979L198.179 739.796C198.062 739.479 197.963 739.179 197.846 738.863L197.264 737.162C191.175 719.542 185.07 701.906 178.982 684.286C178.832 683.852 178.699 683.386 178.582 682.919L178.499 682.636C179.714 681.819 180.845 681.202 182.209 680.885Z" fill="white"/>
<path d="M170.265 700.222C172.826 711.041 175.538 722.293 177.934 732.195L179.397 738.296C179.447 738.529 179.547 738.746 179.647 738.979C179.697 739.096 179.747 739.213 179.797 739.363C179.863 739.529 180.013 739.663 180.179 739.696L186.002 741.063C186.002 741.063 186.102 741.063 186.118 741.063C186.251 741.063 186.384 741.013 186.484 740.93C186.617 740.813 186.684 740.646 186.667 740.463C186.484 738.413 171.895 696.305 170.897 694.955C170.764 694.771 170.531 694.688 170.331 694.738C170.115 694.788 169.948 694.955 169.915 695.171C169.566 697.022 169.899 698.672 170.265 700.206V700.222ZM185.403 739.796L180.745 738.713L180.695 738.579C180.612 738.379 180.545 738.229 180.512 738.062L178.998 731.761C176.486 721.343 173.891 710.591 171.379 699.989C171.213 699.305 171.063 698.605 170.98 697.855C174.191 706.223 183.906 734.378 185.42 739.813L185.403 739.796Z" fill="white"/>
<path d="M171.778 691.254C173.608 696.605 175.455 701.939 177.301 707.29L181.493 719.426C183.806 726.127 186.201 733.045 188.53 739.896C188.913 741.013 189.495 742.08 191.192 742.33C192.057 742.463 192.939 742.663 193.953 742.913C194.453 743.03 194.985 743.163 195.584 743.297C195.6 743.297 195.667 743.297 195.7 743.297C195.867 743.297 196.016 743.23 196.116 743.113C196.249 742.963 196.299 742.747 196.233 742.563L176.054 684.169C175.987 683.986 175.854 683.852 175.671 683.819C175.488 683.769 175.305 683.819 175.155 683.952C173.392 685.586 172.227 687.236 171.496 689.153C171.246 689.787 171.512 690.537 171.728 691.154L171.762 691.27L171.778 691.254ZM172.527 689.537C173.109 688.02 173.991 686.686 175.288 685.353L194.852 741.98C194.636 741.93 194.436 741.88 194.22 741.83C193.172 741.58 192.273 741.363 191.358 741.23C190.294 741.08 189.928 740.513 189.595 739.546C187.283 732.728 184.887 725.81 182.558 719.059L178.366 706.923C176.519 701.572 174.673 696.238 172.826 690.887L172.776 690.77C172.643 690.387 172.444 689.787 172.527 689.537Z" fill="white"/>
<path d="M334.956 557.829C335.089 557.829 335.206 557.763 335.272 557.646C335.339 557.529 335.339 557.396 335.272 557.279C335.139 557.046 335.023 556.862 334.89 556.746C334.723 556.579 334.557 556.496 334.357 556.462C334.357 556.462 334.274 556.462 334.257 556.462C334.191 556.462 334.141 556.462 334.091 556.479C334.074 556.479 333.991 556.496 333.975 556.512C333.908 556.529 333.842 556.562 333.758 556.612C333.758 556.612 333.675 556.662 333.659 556.662C333.592 556.696 333.509 556.763 333.426 556.829C333.426 556.829 333.359 556.879 333.343 556.896C333.243 556.979 333.126 557.079 333.01 557.213C332.91 557.313 332.877 557.479 332.927 557.613C332.977 557.746 333.126 557.846 333.259 557.846H334.956V557.829Z" fill="white"/>
<path d="M334.058 560.63H334.174C334.856 560.63 335.505 560.363 335.987 559.88C336.52 559.363 336.819 558.613 336.803 557.863C336.769 556.379 335.621 555.246 334.141 555.246C333.492 555.246 332.793 555.512 332.294 556.012C331.795 556.513 331.512 557.179 331.512 557.896C331.512 559.363 332.61 560.563 334.058 560.63ZM334.124 556.346C335.006 556.346 335.671 557.013 335.688 557.879C335.688 558.329 335.522 558.78 335.206 559.08C334.906 559.38 334.524 559.53 334.091 559.513C333.243 559.48 332.594 558.763 332.61 557.896C332.61 557.046 333.309 556.329 334.108 556.329L334.124 556.346Z" fill="white"/>
<path d="M343.074 557.096C343.207 557.096 343.324 557.029 343.39 556.913C343.457 556.796 343.457 556.663 343.39 556.546C343.257 556.312 343.141 556.129 343.008 556.012C342.841 555.846 342.675 555.762 342.475 555.729C342.475 555.729 342.392 555.729 342.376 555.729C342.309 555.729 342.259 555.729 342.209 555.746C342.193 555.746 342.109 555.762 342.093 555.779C342.026 555.796 341.96 555.829 341.876 555.879C341.876 555.879 341.793 555.929 341.777 555.929C341.71 555.962 341.627 556.029 341.544 556.096C341.544 556.096 341.477 556.146 341.461 556.162C341.361 556.246 341.244 556.346 341.128 556.479C341.028 556.579 340.995 556.746 341.045 556.879C341.095 557.013 341.244 557.113 341.377 557.113H343.074V557.096Z" fill="white"/>
<path d="M339.797 565.097C340.363 565.097 341.178 564.664 341.427 564.097C341.677 563.497 341.743 562.73 341.627 562.013C341.477 561.197 341.278 560.396 341.078 559.613C341.411 559.78 341.777 559.88 342.176 559.896H342.276C342.958 559.896 343.607 559.63 344.089 559.146C344.621 558.629 344.921 557.879 344.904 557.129C344.871 555.646 343.723 554.512 342.242 554.512H342.209C341.527 554.512 340.878 554.779 340.396 555.279C340.063 555.612 339.83 556.029 339.714 556.462L339.115 555.379C338.982 555.146 338.716 555.045 338.466 555.129C338.217 555.212 338.067 555.446 338.084 555.712C338.183 556.846 338.566 557.896 338.949 558.913C339.431 560.246 339.947 561.63 339.797 563.197L338.383 561.78C338.217 561.613 337.984 561.58 337.784 561.663C337.585 561.747 337.435 561.947 337.435 562.18C337.435 562.98 337.817 563.88 338.4 564.464C338.816 564.881 339.315 565.114 339.78 565.114L339.797 565.097ZM342.242 555.612C343.124 555.612 343.79 556.279 343.806 557.146C343.806 557.596 343.64 558.046 343.324 558.346C343.024 558.646 342.642 558.796 342.209 558.78C341.361 558.746 340.712 558.029 340.729 557.163C340.729 556.312 341.427 555.596 342.226 555.596L342.242 555.612Z" fill="white"/>
<path d="M315.11 555.746C315.825 556.096 316.491 556.546 317.139 556.996L317.472 557.213C317.472 557.213 317.605 557.279 317.672 557.279C317.772 557.279 317.855 557.246 317.921 557.179C318.038 557.062 318.071 556.879 317.988 556.729C317.439 555.796 316.524 555.029 315.393 554.579C314.112 554.062 312.698 553.995 311.417 554.379C311.25 554.429 311.134 554.595 311.151 554.762C311.167 554.945 311.3 555.079 311.483 555.095L311.766 555.129C311.899 555.129 312.032 555.162 312.215 555.195L311.616 555.879C311.5 556.012 311.5 556.196 311.6 556.329C311.7 556.462 311.883 556.529 312.032 556.462C312.299 556.346 312.565 556.229 312.814 556.112C313.663 555.712 314.328 555.379 315.093 555.762L315.11 555.746Z" fill="white"/>
<path d="M339.398 565.964C337.468 566.181 336.137 565.581 335.056 564.014C334.906 563.814 334.64 563.714 334.407 563.814C334.174 563.897 334.024 564.13 334.041 564.381C334.141 565.514 334.723 566.431 335.671 566.981C336.237 567.314 336.902 567.481 337.618 567.481C338.333 567.481 339.015 567.314 339.681 567.014C339.93 566.898 340.046 566.631 339.98 566.364C339.913 566.098 339.664 565.931 339.398 565.964Z" fill="white"/>
</svg>